<?xml version="1.0" encoding="utf-8"?>
<!-- Generator: Adobe Illustrator 19.0.0, SVG Export Plug-In . SVG Version: 6.00 Build 0)  -->
<svg version="1.1" id="Layer_1" xmlns="http://www.w3.org/2000/svg" xmlns:xlink="http://www.w3.org/1999/xlink" x="0px" y="0px"
	 viewBox="-240 357 130 80" style="enable-background:new -240 357 130 80;" xml:space="preserve">
<style type="text/css">
	.st0{fill:#FFFFFF;}
	.st1{fill-rule:evenodd;clip-rule:evenodd;fill:#FFFFFF;}
	.st2{fill-rule:evenodd;clip-rule:evenodd;fill:#ff004d;}
</style>
<g>
	<g id="XMLID_183_">
		<path id="XMLID_228_" class="st0" d="M-232.7,420.3v0.9h-0.8v-0.9H-232.7z M-232.7,422.5v5.3h-0.8v-5.3H-232.7z"/>
		<path id="XMLID_226_" class="st0" d="M-230.4,422.5h0.7l0,0.7l0,0c0.2-0.5,0.8-0.8,1.8-0.8c0.8,0,1.3,0.1,1.5,0.4
			c0.3,0.3,0.4,0.8,0.4,1.5v3.4h-0.8v-3.4v-0.2c0-0.5-0.1-0.8-0.3-0.9c-0.2-0.2-0.5-0.2-1-0.2c-1.1,0-1.6,0.5-1.6,1.5v3.2h-0.8
			V422.5z"/>
		<path id="XMLID_224_" class="st0" d="M-220.9,422.5v0.6h-2v3.2c0,0.6,0.3,0.8,0.8,0.8c0.5,0,0.7-0.3,0.7-0.8l0-0.3l0-0.3h0.7
			l0,0.4c0,1-0.5,1.6-1.5,1.6c-1,0-1.5-0.4-1.5-1.3v-0.2v-3.2h-0.7v-0.6h0.7v-1.3h0.8v1.3H-220.9z"/>
		<path id="XMLID_221_" class="st0" d="M-215.4,426.2h0.8l0,0.2c0,0.5-0.2,0.9-0.5,1.1c-0.3,0.2-0.9,0.3-1.7,0.3
			c-1,0-1.6-0.2-1.9-0.5c-0.3-0.4-0.5-1.1-0.5-2.2c0-1.1,0.2-1.8,0.5-2.1c0.3-0.4,0.9-0.5,1.8-0.5c1,0,1.6,0.2,1.9,0.5
			c0.3,0.3,0.5,1,0.5,2v0.4h-3.8c0,0.8,0.1,1.4,0.3,1.6c0.2,0.2,0.6,0.3,1.2,0.3c0.6,0,1-0.1,1.2-0.2c0.2-0.1,0.3-0.3,0.3-0.7V426.2
			z M-215.4,424.7l0-0.2c0-0.6-0.1-0.9-0.3-1.1s-0.6-0.3-1.2-0.3c-0.6,0-1,0.1-1.2,0.3c-0.2,0.2-0.3,0.6-0.3,1.3H-215.4z"/>
		<path id="XMLID_219_" class="st0" d="M-212.4,422.5h0.8l-0.1,0.6l0,0c0.3-0.5,0.8-0.7,1.5-0.7c1,0,1.5,0.5,1.5,1.5l0,0.4h-0.8
			l0-0.1c0-0.1,0-0.2,0-0.3c0-0.5-0.3-0.8-0.9-0.8c-0.9,0-1.3,0.5-1.3,1.6v3.2h-0.8V422.5z"/>
		<path id="XMLID_216_" class="st0" d="M-206.3,420.3v0.9h-0.8v-0.9H-206.3z M-206.3,422.5v5.3h-0.8v-5.3H-206.3z"/>
		<path id="XMLID_213_" class="st0" d="M-201.8,422.4c1,0,1.6,0.2,1.9,0.5c0.3,0.3,0.4,1.1,0.4,2.2c0,1.1-0.1,1.9-0.4,2.2
			c-0.3,0.3-0.9,0.5-1.9,0.5c-1,0-1.6-0.2-1.9-0.5c-0.3-0.3-0.4-1.1-0.4-2.2c0-1.1,0.1-1.9,0.4-2.2
			C-203.4,422.6-202.8,422.4-201.8,422.4z M-201.8,423.1c-0.7,0-1.1,0.1-1.3,0.3c-0.2,0.2-0.2,0.8-0.2,1.7c0,0.9,0.1,1.5,0.2,1.7
			c0.2,0.2,0.6,0.3,1.3,0.3c0.7,0,1.1-0.1,1.3-0.3c0.2-0.2,0.2-0.8,0.2-1.7c0-0.9-0.1-1.5-0.2-1.7
			C-200.7,423.2-201.1,423.1-201.8,423.1z"/>
		<path id="XMLID_211_" class="st0" d="M-197.3,422.5h0.8l-0.1,0.6l0,0c0.3-0.5,0.8-0.7,1.5-0.7c1,0,1.5,0.5,1.5,1.5l0,0.4h-0.8
			l0-0.1c0-0.1,0-0.2,0-0.3c0-0.5-0.3-0.8-0.9-0.8c-0.9,0-1.3,0.5-1.3,1.6v3.2h-0.8V422.5z"/>
		<path id="XMLID_209_" class="st0" d="M-187.9,423.9h-0.8c0-0.4-0.1-0.6-0.2-0.7c-0.1-0.1-0.5-0.1-1.1-0.1c-0.6,0-0.9,0-1.1,0.1
			c-0.2,0.1-0.2,0.3-0.2,0.7c0,0.5,0.3,0.8,0.8,0.8l0.6,0l0.8,0c1,0,1.4,0.5,1.4,1.5c0,0.6-0.2,1-0.5,1.2c-0.3,0.2-0.9,0.3-1.7,0.3
			c-0.9,0-1.5-0.1-1.8-0.3c-0.3-0.2-0.5-0.6-0.5-1.2l0-0.3h0.8l0,0.2c0,0.3,0.1,0.6,0.3,0.7c0.2,0.1,0.5,0.2,1,0.2
			c0.6,0,1.1-0.1,1.3-0.2c0.2-0.1,0.3-0.4,0.3-0.8c0-0.6-0.3-0.8-0.8-0.8c-1.2,0-1.9-0.1-2.3-0.3c-0.4-0.2-0.6-0.6-0.6-1.2
			c0-0.6,0.1-1,0.4-1.2c0.3-0.2,0.9-0.3,1.7-0.3c1.4,0,2.1,0.4,2.1,1.3V423.9z"/>
		<path id="XMLID_206_" class="st0" d="M-176.8,424.5h0.8l0,0.2l0,0.4c0,0.4,0,0.8-0.1,1.1l1.3,1.1l-0.5,0.6l-1.1-0.9
			c-0.3,0.7-1.2,1-2.5,1c-1.3,0-2.2-0.1-2.6-0.4c-0.4-0.3-0.6-0.9-0.6-2c0-0.7,0.1-1.1,0.3-1.4c0.2-0.3,0.5-0.4,1-0.6
			c0,0,0.1,0,0.2,0c-0.5-0.4-0.7-0.8-0.7-1.3c0-0.7,0.2-1.2,0.5-1.4c0.3-0.3,0.9-0.4,1.8-0.4c0.8,0,1.4,0.1,1.7,0.4
			c0.3,0.3,0.5,0.7,0.5,1.4l0,0.5h-0.8v-0.3c0-0.6-0.1-0.9-0.2-1c-0.2-0.1-0.5-0.2-1.2-0.2c-0.6,0-0.9,0.1-1.1,0.2
			c-0.2,0.1-0.3,0.4-0.3,0.7c0,0.4,0.2,0.8,0.5,1l0.2,0.2l2.8,2.4v-0.2V425v-0.4V424.5z M-179.9,423.9c-0.6,0.1-0.9,0.3-1.1,0.4
			c-0.1,0.2-0.2,0.5-0.2,1.1c0,0.8,0.1,1.2,0.3,1.4c0.2,0.2,0.8,0.3,1.8,0.3c1.2,0,1.9-0.3,2-0.8L-179.9,423.9z"/>
		<path id="XMLID_204_" class="st0" d="M-169.1,427.8v-4.6h-0.8v-0.6h0.8v-0.8c0-1,0.5-1.5,1.6-1.5c0.2,0,0.3,0,0.6,0v0.6
			c-0.3,0-0.4,0-0.5,0c-0.6,0-0.8,0.3-0.8,0.8v0.9h1.4v0.6h-1.4v4.6H-169.1z"/>
		<path id="XMLID_202_" class="st0" d="M-161.1,422.5v5.3h-0.8l0.1-0.7l0,0c-0.3,0.5-0.8,0.8-1.7,0.8c-1.2,0-1.8-0.6-1.8-1.8v-3.5
			h0.8v3.5c0,0.5,0.1,0.8,0.2,1c0.2,0.2,0.5,0.2,0.9,0.2c0.6,0,1-0.1,1.2-0.4c0.2-0.2,0.3-0.7,0.3-1.3v-3H-161.1z"/>
		<path id="XMLID_200_" class="st0" d="M-158.7,422.5h0.8l-0.1,0.6l0,0c0.3-0.5,0.8-0.7,1.5-0.7c1,0,1.5,0.5,1.5,1.5l0,0.4h-0.8
			l0-0.1c0-0.1,0-0.2,0-0.3c0-0.5-0.3-0.8-0.9-0.8c-0.9,0-1.3,0.5-1.3,1.6v3.2h-0.8V422.5z"/>
		<path id="XMLID_198_" class="st0" d="M-153.4,422.5h0.7l0,0.7l0,0c0.2-0.5,0.8-0.8,1.8-0.8c0.8,0,1.3,0.1,1.5,0.4
			c0.3,0.3,0.4,0.8,0.4,1.5v3.4h-0.8v-3.4v-0.2c0-0.5-0.1-0.8-0.3-0.9c-0.2-0.2-0.5-0.2-1-0.2c-1.1,0-1.6,0.5-1.6,1.5v3.2h-0.8
			V422.5z"/>
		<path id="XMLID_195_" class="st0" d="M-145.8,420.3v0.9h-0.8v-0.9H-145.8z M-145.8,422.5v5.3h-0.8v-5.3H-145.8z"/>
		<path id="XMLID_193_" class="st0" d="M-140.8,422.5v0.6h-2v3.2c0,0.6,0.3,0.8,0.8,0.8c0.5,0,0.7-0.3,0.7-0.8l0-0.3l0-0.3h0.7
			l0,0.4c0,1-0.5,1.6-1.5,1.6c-1,0-1.5-0.4-1.5-1.3v-0.2v-3.2h-0.7v-0.6h0.7v-1.3h0.8v1.3H-140.8z"/>
		<path id="XMLID_191_" class="st0" d="M-134.7,422.5v5.3h-0.8l0.1-0.7l0,0c-0.3,0.5-0.8,0.8-1.7,0.8c-1.2,0-1.8-0.6-1.8-1.8v-3.5
			h0.8v3.5c0,0.5,0.1,0.8,0.2,1c0.2,0.2,0.5,0.2,0.9,0.2c0.6,0,1-0.1,1.2-0.4c0.2-0.2,0.3-0.7,0.3-1.3v-3H-134.7z"/>
		<path id="XMLID_189_" class="st0" d="M-132.2,422.5h0.8l-0.1,0.6l0,0c0.3-0.5,0.8-0.7,1.5-0.7c1,0,1.5,0.5,1.5,1.5l0,0.4h-0.8
			l0-0.1c0-0.1,0-0.2,0-0.3c0-0.5-0.3-0.8-0.9-0.8c-0.9,0-1.3,0.5-1.3,1.6v3.2h-0.8V422.5z"/>
		<path id="XMLID_186_" class="st0" d="M-123.2,426.2h0.8l0,0.2c0,0.5-0.2,0.9-0.5,1.1c-0.3,0.2-0.9,0.3-1.7,0.3
			c-1,0-1.6-0.2-1.9-0.5c-0.3-0.4-0.5-1.1-0.5-2.2c0-1.1,0.2-1.8,0.5-2.1c0.3-0.4,0.9-0.5,1.8-0.5c1,0,1.6,0.2,1.9,0.5
			c0.3,0.3,0.5,1,0.5,2v0.4h-3.8c0,0.8,0.1,1.4,0.3,1.6c0.2,0.2,0.6,0.3,1.2,0.3c0.6,0,1-0.1,1.2-0.2c0.2-0.1,0.3-0.3,0.3-0.7V426.2
			z M-123.2,424.7l0-0.2c0-0.6-0.1-0.9-0.3-1.1s-0.6-0.3-1.2-0.3c-0.6,0-1,0.1-1.2,0.3c-0.2,0.2-0.3,0.6-0.3,1.3H-123.2z"/>
		<path id="XMLID_184_" class="st0" d="M-116.2,423.9h-0.8c0-0.4-0.1-0.6-0.2-0.7c-0.1-0.1-0.5-0.1-1.1-0.1c-0.6,0-0.9,0-1.1,0.1
			c-0.2,0.1-0.2,0.3-0.2,0.7c0,0.5,0.3,0.8,0.8,0.8l0.6,0l0.8,0c1,0,1.4,0.5,1.4,1.5c0,0.6-0.2,1-0.5,1.2c-0.3,0.2-0.9,0.3-1.7,0.3
			c-0.9,0-1.5-0.1-1.8-0.3c-0.3-0.2-0.5-0.6-0.5-1.2l0-0.3h0.8l0,0.2c0,0.3,0.1,0.6,0.3,0.7c0.2,0.1,0.5,0.2,1,0.2
			c0.6,0,1.1-0.1,1.3-0.2c0.2-0.1,0.3-0.4,0.3-0.8c0-0.6-0.3-0.8-0.8-0.8c-1.2,0-1.9-0.1-2.3-0.3c-0.4-0.2-0.6-0.6-0.6-1.2
			c0-0.6,0.1-1,0.4-1.2c0.3-0.2,0.9-0.3,1.7-0.3c1.4,0,2.1,0.4,2.1,1.3V423.9z"/>
	</g>
	<g id="XMLID_180_">
		<path id="XMLID_181_" class="st0" d="M-141.4,393.6c-0.1,0.1-0.3,0.3-0.5,0.4l-3.2,2h-0.8l3-3.1c0.1-0.1,0.2-0.2,0.4-0.3
			c0.2-0.1,0.3-0.2,0.5-0.2c0.2,0,0.3,0.1,0.5,0.2c0.1,0.1,0.2,0.3,0.2,0.5C-141.2,393.3-141.3,393.5-141.4,393.6z"/>
	</g>
	<path id="XMLID_103_" class="st1" d="M-221.8,409.7c-0.2,0.3-0.4,0.5-0.8,0.5c-0.4,0-0.6-0.2-0.8-0.5l-10.5-16.8h2l8.5,13.6
		c0.2,0.4,0.5,0.6,0.8,0.6c0.3,0,0.5-0.2,0.7-0.6l8.5-13.6h2L-221.8,409.7z"/>
	<path id="XMLID_164_" class="st1" d="M-210.1,410.2v-12.2h1.7v12.2H-210.1z M-210.1,396.7V395h1.7v1.7H-210.1z"/>
	<path id="XMLID_161_" class="st1" d="M-190.7,406.8c0,1.1-0.5,2-1.5,2.6c-0.9,0.6-2,0.9-3.2,0.9h-6c-1.2,0-2.3-0.3-3.2-0.9
		c-1-0.6-1.6-1.5-1.6-2.6c0-1.1,0.5-1.9,1.6-2.6c0.9-0.6,2-0.9,3.1-0.9h6c0.2,0,0.4,0,0.6,0c0.2,0,0.4,0,0.6,0.1
		c0.2,0.1,0.5,0.1,0.8,0.2c0.3,0.1,0.6,0.2,1,0.3v-2.4c-0.1-0.5-0.5-1-1.2-1.3c-0.6-0.3-1.2-0.5-1.8-0.5h-6c-0.6,0-1.2,0.1-1.6,0.3
		c-0.7,0.3-1.1,0.8-1.3,1.4h-1.8c0.2-1.1,0.8-2,1.8-2.7c0.8-0.6,1.8-0.8,2.9-0.8h6.1c1.1,0,2.1,0.3,3,0.8c1.1,0.7,1.7,1.6,1.7,2.7
		V406.8z M-192.4,406.8c0-0.6-0.4-1-1.1-1.3c-0.6-0.3-1.2-0.4-1.8-0.4h-6c-0.8,0-1.5,0.2-2.1,0.5c-0.6,0.3-0.9,0.7-0.9,1.2
		c0,0.5,0.3,0.9,0.9,1.2c0.6,0.3,1.3,0.5,2.1,0.5h6.1c0.6,0,1.2-0.1,1.8-0.4C-192.8,407.8-192.4,407.4-192.4,406.8z"/>
	<path id="XMLID_98_" class="st1" d="M-172.2,401.6h-1.8c-0.2-0.6-0.6-1.1-1.3-1.4c-0.5-0.2-1-0.3-1.6-0.3h-6
		c-0.7,0-1.3,0.1-1.8,0.4c-0.8,0.3-1.1,0.8-1.1,1.4v8.7h-1.7v-12.2h1.7v0.8c0.5-0.3,1-0.5,1.5-0.6c0.5-0.1,1-0.2,1.5-0.2h6.1
		c1.1,0,2,0.3,2.9,0.8C-172.9,399.5-172.3,400.4-172.2,401.6z"/>
	<path id="XMLID_97_" class="st1" d="M-156,410.2v-8.7c-0.2-0.6-0.6-1.1-1.2-1.4c-0.5-0.3-1.1-0.4-1.8-0.4h-6
		c-0.6,0-1.3,0.1-1.8,0.4c-0.8,0.3-1.1,0.8-1.1,1.4v8.7h-1.7v-12.2h1.7v0.8c0.5-0.3,1-0.5,1.5-0.6c0.5-0.1,1-0.2,1.5-0.2h6.1
		c1.1,0,2.2,0.3,3.1,0.9c1.1,0.7,1.6,1.5,1.6,2.6v8.7H-156z"/>
	<path id="XMLID_156_" class="st1" d="M-137.8,401.6c0-0.5-0.3-0.9-0.9-1.2c-0.6-0.3-1.3-0.5-2.1-0.5h-6c-0.6,0-1.2,0.1-1.8,0.4
		c-0.8,0.3-1.2,0.8-1.2,1.4c0,0.6,0.4,1,1.1,1.3c0.6,0.3,1.2,0.4,1.8,0.4h6c0.8,0,1.5-0.2,2.1-0.5
		C-138.1,402.5-137.8,402.1-137.8,401.6z M-136.1,401.5c0,1-0.5,1.9-1.6,2.6c-0.9,0.6-2,0.9-3.1,0.9h-6c-0.2,0-0.4,0-0.6,0
		c-0.2,0-0.4-0.1-0.6-0.1c-0.2-0.1-0.5-0.1-0.8-0.2c-0.3-0.1-0.6-0.2-1-0.4v2.4c0.1,0.5,0.5,1,1.2,1.3c0.6,0.3,1.2,0.5,1.8,0.5h6
		c0.6,0,1.1-0.1,1.6-0.3c0.7-0.3,1.1-0.8,1.3-1.4h1.8c-0.2,1.1-0.8,2-1.8,2.7c-0.9,0.6-1.8,0.8-2.9,0.8h-6c-1.1,0-2.1-0.3-3-0.9
		c-1.1-0.7-1.7-1.6-1.7-2.7v-5.2c0-1.1,0.5-1.9,1.5-2.6c0.9-0.6,2-0.9,3.2-0.9h6c1.2,0,2.3,0.3,3.2,0.8
		C-136.6,399.6-136.1,400.4-136.1,401.5z"/>
	<path id="XMLID_94_" class="st1" d="M-118.4,406.8c0,1.1-0.5,2-1.6,2.6c-0.9,0.6-2,0.9-3.2,0.9h-6c-0.9,0-1.5-0.1-2-0.2
		c-0.7-0.2-1.3-0.5-1.7-1c-0.5-0.5-0.8-1.3-1-2.3h1.8c0.2,0.6,0.6,1,1.1,1.3c0.5,0.3,1.1,0.4,1.8,0.4h6c0.8,0,1.5-0.2,2.1-0.5
		c0.6-0.3,0.9-0.8,0.9-1.3c0-0.5-0.3-0.9-0.9-1.2c-0.6-0.3-1.3-0.5-2.1-0.5h-6c-1.2,0-2.2-0.3-3.1-0.9c-1.1-0.7-1.6-1.6-1.6-2.6
		c0-1.1,0.5-1.9,1.6-2.6c0.9-0.6,2-0.9,3.2-0.9h6c1.1,0,2.1,0.3,2.9,0.8c1,0.6,1.6,1.5,1.8,2.7h-1.8c-0.2-0.6-0.6-1-1.1-1.3
		c-0.5-0.3-1.1-0.4-1.8-0.4h-6c-0.8,0-1.5,0.2-2.1,0.5c-0.6,0.3-0.9,0.7-0.9,1.2c0,0.5,0.3,0.9,1,1.3c0.6,0.3,1.3,0.5,2,0.5h6
		c1.1,0,2.1,0.3,3.1,0.9C-119,404.9-118.4,405.7-118.4,406.8z"/>
</g>
<g>
	<path class="st2" d="M-232.1,371.9c0-0.8,0.1-1.2,0.2-1.2c0.2,0,0.4,0.3,0.9,0.9c0.6,1,1.3,2,2,3.2c0.7,1.2,1.5,2.3,2.2,3.6
		c0.8,1.2,1.5,2.4,2.3,3.6c0.7,1.2,1.4,2.3,2.1,3.4c0.1,0.2,0.2,0.4,0.4,0.5c0.2,0.1,0.4,0.1,0.5,0.1c0.4,0,0.7-0.2,0.9-0.6
		l8.6-13.8c0.4-0.5,0.6-0.7,0.8-0.7c0.2,0,0.3,0.3,0.3,1v14h1.9v-19.9h-1.9l-9.8,15.6c-0.3,0.4-0.6,0.6-0.9,0.6
		c-0.3,0-0.6-0.2-0.9-0.6c-0.4-0.7-1-1.6-1.7-2.6c-0.7-1.1-1.5-2.3-2.3-3.7c-0.9-1.4-1.8-2.8-2.8-4.4c-1-1.6-2-3.2-3-4.9h-2V386h2
		V371.9z"/>
	<path class="st2" d="M-191.1,378.5c-0.3-0.1-0.6-0.2-0.9-0.3c-0.3-0.1-0.5-0.1-0.7-0.1c-0.2,0-0.5,0-0.7,0h-6.9
		c-1.3,0-2.5,0.3-3.6,1c-1.2,0.8-1.8,1.8-1.8,3c0,1.3,0.6,2.3,1.8,3c1,0.7,2.2,1,3.6,1h6.9c1.4,0,2.6-0.3,3.6-1
		c1.2-0.8,1.8-1.8,1.8-3v-6c0-1.3-0.6-2.3-1.9-3c-1.1-0.6-2.2-1-3.5-1h-6.9c-1.3,0-2.4,0.3-3.4,1c-1.2,0.7-1.8,1.7-2,3h2
		c0.2-0.7,0.7-1.3,1.5-1.6c0.5-0.3,1.1-0.4,1.9-0.4h6.9c0.7,0,1.3,0.2,2,0.5c0.8,0.4,1.3,0.9,1.4,1.5v2.8
		C-190.4,378.7-190.8,378.5-191.1,378.5z M-191.4,383.6c-0.7,0.3-1.4,0.4-2.1,0.4h-6.9c-0.9,0-1.7-0.2-2.4-0.6c-0.7-0.4-1-0.9-1-1.4
		c0-0.6,0.3-1,1-1.4c0.7-0.4,1.5-0.6,2.4-0.6h6.9c0.7,0,1.4,0.2,2.1,0.5c0.9,0.4,1.3,0.9,1.3,1.5
		C-190,382.7-190.5,383.2-191.4,383.6z"/>
	<path class="st2" d="M-182.6,376c0-0.7,0.4-1.2,1.3-1.6c0.6-0.3,1.4-0.5,2.1-0.5h6.9c0.7,0,1.3,0.1,1.8,0.4
		c0.8,0.3,1.3,0.9,1.5,1.6h2c-0.2-1.3-0.9-2.3-2-3.1c-1-0.6-2.1-0.9-3.3-0.9h-6.9c-0.6,0-1.1,0.1-1.7,0.2c-0.5,0.1-1.1,0.4-1.7,0.7
		V372h-2v14h2V376z"/>
	<path class="st2" d="M-163.2,385c1.1,0.7,2.3,1,3.6,1h6.9c0.9,0,1.7,0.2,2.4,0.6c0.7,0.4,1,0.8,1,1.4c0,0.6-0.3,1.1-1,1.5
		c-0.7,0.4-1.5,0.5-2.4,0.5h-6.9c-0.8,0-1.5-0.2-2.1-0.5c-0.6-0.3-1.1-0.9-1.3-1.5h-2c0.2,1.3,0.9,2.3,2,3.1c1,0.6,2.1,0.9,3.4,0.9
		h6.9c1.4,0,2.6-0.3,3.6-1c1.2-0.7,1.8-1.7,1.8-3c0-0.5-0.1-1-0.4-1.5c-0.3-0.4-0.7-0.9-1.3-1.5c0.7-0.6,1.1-1.1,1.4-1.6
		c0.2-0.4,0.4-0.9,0.4-1.5v-6c0-1.2-0.6-2.3-1.9-3c-1.1-0.6-2.2-1-3.5-1h-6.9c-1.3,0-2.5,0.3-3.6,1c-1.2,0.8-1.8,1.8-1.8,3v6
		C-165.1,383.2-164.5,384.2-163.2,385z M-163.1,376c0-0.7,0.4-1.2,1.3-1.6c0.7-0.3,1.4-0.4,2.1-0.4h6.9c0.7,0,1.4,0.2,2.1,0.5
		c0.9,0.4,1.3,0.9,1.3,1.5v6c0,0.7-0.4,1.2-1.3,1.6c-0.6,0.3-1.3,0.5-2.1,0.5h-6.9c-0.7,0-1.4-0.2-2.1-0.5c-0.9-0.4-1.3-0.9-1.3-1.5
		V376z"/>
	<path class="st2" d="M-143,385c1.1,0.7,2.3,1,3.6,1h6.9c1.3,0,2.5-0.3,3.6-1c1.2-0.8,1.8-1.8,1.8-3v-6c0-1.2-0.6-2.3-1.9-3
		c-1.1-0.6-2.2-1-3.5-1h-6.9c-1.3,0-2.5,0.3-3.6,1c-1.2,0.8-1.8,1.8-1.8,3v6C-144.9,383.2-144.3,384.2-143,385z M-142.9,376
		c0-0.7,0.4-1.2,1.3-1.6c0.7-0.3,1.4-0.4,2.1-0.4h6.9c0.7,0,1.4,0.2,2.1,0.5c0.9,0.4,1.3,0.9,1.3,1.5v6c0,0.7-0.4,1.2-1.3,1.6
		c-0.6,0.3-1.3,0.5-2.1,0.5h-6.9c-0.7,0-1.4-0.2-2.1-0.5c-0.9-0.4-1.3-0.9-1.3-1.5V376z"/>
	<polygon class="st2" points="-123.1,386 -121.1,386 -121.1,374 -118.1,374 -118.1,372 -121.1,372 -121.1,366.2 -123.1,366.2 
		-123.1,372 -126,372 -126,374 -123.1,374 	"/>
	<rect x="-234.1" y="415.4" class="st2" width="118.2" height="1.1"/>
</g>
</svg>
