<?xml version="1.0" encoding="utf-8"?>
<!-- Generator: Adobe Illustrator 19.0.0, SVG Export Plug-In . SVG Version: 6.00 Build 0)  -->
<svg version="1.1" id="Layer_1" xmlns="http://www.w3.org/2000/svg" xmlns:xlink="http://www.w3.org/1999/xlink" x="0px" y="0px"
	 viewBox="477.6 -490 1000 1000" style="enable-background:new 477.6 -490 1000 1000;" xml:space="preserve">
<style type="text/css">
	.st0{fill:#1C252B}
</style>
<g>
	<path class="st0" d="M610.8,15.6c0,3.7-3,6.8-6.8,6.8c-3.7,0-6.7-3-6.7-6.8c0-3.7,3-6.7,6.7-6.7C607.8,8.8,610.8,11.8,610.8,15.6z"
		/>
	<path class="st0" d="M628.7,15.8c0,3.7-3,6.8-6.8,6.8c-3.7,0-6.7-3-6.7-6.8c0-3.7,3-6.7,6.7-6.7C625.7,9,628.7,12.1,628.7,15.8z"/>
	<path class="st0" d="M646.5,15.8c0,3.7-3,6.8-6.8,6.8c-3.7,0-6.8-3-6.8-6.8c0-3.7,3-6.8,6.8-6.8S646.5,12.1,646.5,15.8z"/>
	<path class="st0" d="M664.4,15.6c0,3.7-3,6.8-6.8,6.8c-3.7,0-6.7-3-6.7-6.8c0-3.7,3-6.8,6.7-6.8C661.3,8.9,664.4,11.9,664.4,15.6z"
		/>
	<path class="st0" d="M682.2,15.6c0,3.7-3,6.8-6.8,6.8c-3.7,0-6.7-3-6.7-6.8c0-3.7,3-6.8,6.7-6.8C679.2,8.9,682.2,11.9,682.2,15.6z"
		/>
	<path class="st0" d="M860.7,15.7c0,3.7-3,6.7-6.8,6.7c-3.7,0-6.8-3-6.8-6.7s3-6.8,6.8-6.8C857.7,9,860.7,12,860.7,15.7z"/>
	<path class="st0" d="M878.5,15.6c0,3.7-3,6.8-6.8,6.8c-3.7,0-6.8-3-6.8-6.8c0-3.7,3-6.7,6.8-6.7C875.5,8.8,878.5,11.8,878.5,15.6z"
		/>
	<path class="st0" d="M896.4,15.6c0,3.7-3,6.8-6.8,6.8c-3.7,0-6.8-3-6.8-6.8c0-3.7,3-6.8,6.8-6.8C893.3,8.8,896.4,11.8,896.4,15.6z"
		/>
	<path class="st0" d="M914.2,15.8c0,3.7-3,6.7-6.8,6.7c-3.7,0-6.8-3-6.8-6.7s3-6.8,6.8-6.8S914.2,12,914.2,15.8z"/>
	<path class="st0" d="M932,15.8c0,3.7-3,6.8-6.8,6.8c-3.7,0-6.8-3-6.8-6.8c0-3.7,3-6.8,6.8-6.8S932,12,932,15.8z"/>
	<path class="st0" d="M949.9,15.6c0,3.7-3,6.8-6.8,6.8c-3.7,0-6.8-3-6.8-6.8c0-3.7,3-6.8,6.8-6.8C946.9,8.8,949.9,11.9,949.9,15.6z"
		/>
	<path class="st0" d="M967.7,15.6c0,3.7-3,6.8-6.8,6.8c-3.7,0-6.7-3-6.7-6.8c0-3.7,3-6.8,6.7-6.8C964.7,8.8,967.7,11.9,967.7,15.6z"
		/>
	<path class="st0" d="M985.6,15.6c0,3.7-3,6.8-6.8,6.8c-3.7,0-6.8-3-6.8-6.8c0-3.7,3-6.7,6.8-6.7S985.6,11.9,985.6,15.6z"/>
	<path class="st0" d="M1003.4,15.7c0,3.7-3,6.8-6.8,6.8c-3.7,0-6.8-3-6.8-6.8c0-3.7,3-6.7,6.8-6.7
		C1000.4,8.9,1003.4,11.9,1003.4,15.7z"/>
	<path class="st0" d="M1021.3,15.5c0,3.7-3,6.8-6.8,6.8c-3.7,0-6.8-3-6.8-6.8c0-3.7,3-6.7,6.8-6.7S1021.3,11.8,1021.3,15.5z"/>
	<path class="st0" d="M1039.1,15.5c0,3.7-3,6.8-6.8,6.8c-3.7,0-6.7-3-6.7-6.8c0-3.7,3-6.7,6.7-6.7
		C1036.1,8.8,1039.1,11.8,1039.1,15.5z"/>
	<path class="st0" d="M1057,16c0,3.7-3,6.8-6.7,6.8c-3.7,0-6.8-3-6.8-6.8c0-3.7,3-6.8,6.8-6.8C1053.9,9.2,1057,12.2,1057,16z"/>
	<path class="st0" d="M1074.8,16c0,3.7-3,6.8-6.7,6.8s-6.8-3-6.8-6.8c0-3.7,3-6.7,6.8-6.7C1071.8,9.2,1074.8,12.2,1074.8,16z"/>
	<path class="st0" d="M1092.7,15.8c0,3.7-3,6.8-6.8,6.8c-3.7,0-6.8-3-6.8-6.8c0-3.7,3-6.8,6.8-6.8
		C1089.6,9.1,1092.7,12.1,1092.7,15.8z"/>
	<path class="st0" d="M1289,15.9c0,3.7-3,6.8-6.8,6.8c-3.7,0-6.8-3-6.8-6.8c0-3.7,3-6.7,6.8-6.7C1285.9,9.1,1289,12.2,1289,15.9z"/>
	<path class="st0" d="M610.8,34.8c0,3.7-3,6.8-6.8,6.8c-3.7,0-6.7-3-6.7-6.8c0-3.7,3-6.7,6.7-6.7C607.8,28.1,610.8,31.1,610.8,34.8z
		"/>
	<path class="st0" d="M628.7,35c0,3.7-3,6.8-6.8,6.8c-3.7,0-6.7-3-6.7-6.8c0-3.7,3-6.7,6.7-6.7C625.7,28.3,628.7,31.3,628.7,35z"/>
	<path class="st0" d="M646.5,35c0,3.7-3,6.7-6.8,6.7c-3.7,0-6.8-3-6.8-6.7s3-6.8,6.8-6.8C643.5,28.3,646.5,31.3,646.5,35z"/>
	<path class="st0" d="M664.4,34.8c0,3.7-3,6.8-6.8,6.8c-3.7,0-6.7-3-6.7-6.8c0-3.7,3-6.7,6.7-6.7C661.3,28.1,664.4,31.1,664.4,34.8z
		"/>
	<path class="st0" d="M682.2,34.8c0,3.7-3,6.8-6.8,6.8c-3.7,0-6.7-3-6.7-6.8c0-3.7,3-6.8,6.7-6.8C679.2,28.1,682.2,31.1,682.2,34.8z
		"/>
	<path class="st0" d="M700.1,34.9c0,3.7-3,6.7-6.8,6.7c-3.7,0-6.7-3-6.7-6.7s3-6.8,6.7-6.8C697,28.2,700.1,31.2,700.1,34.9z"/>
	<path class="st0" d="M896.4,34.8c0,3.7-3,6.8-6.8,6.8c-3.7,0-6.8-3-6.8-6.8c0-3.7,3-6.8,6.8-6.8C893.3,28,896.4,31.1,896.4,34.8z"
		/>
	<path class="st0" d="M949.9,34.8c0,3.7-3,6.8-6.8,6.8c-3.7,0-6.8-3-6.8-6.8c0-3.7,3-6.8,6.8-6.8C946.9,28.1,949.9,31.1,949.9,34.8z
		"/>
	<path class="st0" d="M967.7,34.8c0,3.7-3,6.8-6.8,6.8c-3.7,0-6.7-3-6.7-6.8c0-3.7,3-6.8,6.7-6.8C964.7,28.1,967.7,31.1,967.7,34.8z
		"/>
	<path class="st0" d="M985.6,34.9c0,3.7-3,6.8-6.8,6.8c-3.7,0-6.8-3-6.8-6.8c0-3.7,3-6.8,6.8-6.8S985.6,31.2,985.6,34.9z"/>
	<path class="st0" d="M1003.4,34.9c0,3.7-3,6.7-6.8,6.7c-3.7,0-6.8-3-6.8-6.7s3-6.7,6.8-6.7C1000.4,28.1,1003.4,31.2,1003.4,34.9z"
		/>
	<path class="st0" d="M1021.3,34.8c0,3.7-3,6.8-6.8,6.8c-3.7,0-6.8-3-6.8-6.8c0-3.7,3-6.8,6.8-6.8S1021.3,31,1021.3,34.8z"/>
	<path class="st0" d="M1039.1,34.8c0,3.7-3,6.7-6.8,6.7c-3.7,0-6.7-3-6.7-6.7s3-6.8,6.7-6.8C1036.1,28,1039.1,31,1039.1,34.8z"/>
	<path class="st0" d="M1057,35.2c0,3.7-3,6.8-6.7,6.8c-3.7,0-6.8-3-6.8-6.8c0-3.7,3-6.8,6.8-6.8C1053.9,28.4,1057,31.5,1057,35.2z"
		/>
	<path class="st0" d="M1074.8,35.2c0,3.7-3,6.8-6.7,6.8s-6.8-3-6.8-6.8c0-3.7,3-6.8,6.8-6.8C1071.8,28.4,1074.8,31.5,1074.8,35.2z"
		/>
	<path class="st0" d="M1092.7,35.1c0,3.7-3,6.8-6.8,6.8c-3.7,0-6.8-3-6.8-6.8c0-3.7,3-6.8,6.8-6.8
		C1089.6,28.3,1092.7,31.3,1092.7,35.1z"/>
	<path class="st0" d="M1289,35.1c0,3.7-3,6.8-6.8,6.8c-3.7,0-6.8-3-6.8-6.8c0-3.7,3-6.7,6.8-6.7C1285.9,28.4,1289,31.4,1289,35.1z"
		/>
	<path class="st0" d="M1306.8,34.9c0,3.7-3,6.8-6.8,6.8c-3.7,0-6.8-3-6.8-6.8c0-3.7,3-6.7,6.8-6.7
		C1303.8,28.2,1306.8,31.2,1306.8,34.9z"/>
	<path class="st0" d="M1342.5,35.2c0,3.7-3,6.8-6.7,6.8c-3.7,0-6.8-3-6.8-6.8c0-3.7,3-6.8,6.8-6.8
		C1339.5,28.4,1342.5,31.4,1342.5,35.2z"/>
	<path class="st0" d="M610.8,54c0,3.7-3,6.8-6.8,6.8c-3.7,0-6.7-3-6.7-6.8c0-3.7,3-6.8,6.7-6.8C607.8,47.3,610.8,50.3,610.8,54z"/>
	<path class="st0" d="M628.7,54.3c0,3.7-3,6.8-6.8,6.8c-3.7,0-6.7-3-6.7-6.8c0-3.7,3-6.8,6.7-6.8C625.7,47.5,628.7,50.5,628.7,54.3z
		"/>
	<path class="st0" d="M646.5,54.3c0,3.7-3,6.8-6.8,6.8c-3.7,0-6.8-3-6.8-6.8c0-3.7,3-6.7,6.8-6.7C643.5,47.5,646.5,50.5,646.5,54.3z
		"/>
	<path class="st0" d="M664.4,54.1c0,3.7-3,6.8-6.8,6.8c-3.7,0-6.7-3-6.7-6.8c0-3.7,3-6.8,6.7-6.8C661.3,47.3,664.4,50.3,664.4,54.1z
		"/>
	<path class="st0" d="M682.2,54.1c0,3.7-3,6.8-6.8,6.8c-3.7,0-6.7-3-6.7-6.8c0-3.7,3-6.8,6.7-6.8C679.2,47.3,682.2,50.3,682.2,54.1z
		"/>
	<path class="st0" d="M700.1,54.1c0,3.7-3,6.8-6.8,6.8c-3.7,0-6.7-3-6.7-6.8c0-3.7,3-6.8,6.7-6.8C697,47.4,700.1,50.4,700.1,54.1z"
		/>
	<path class="st0" d="M949.9,54c0,3.7-3,6.8-6.8,6.8c-3.7,0-6.8-3-6.8-6.8c0-3.7,3-6.7,6.8-6.7C946.9,47.3,949.9,50.3,949.9,54z"/>
	<path class="st0" d="M967.7,54.1c0,3.7-3,6.8-6.8,6.8c-3.7,0-6.7-3-6.7-6.8c0-3.7,3-6.7,6.7-6.7C964.7,47.3,967.7,50.3,967.7,54.1z
		"/>
	<path class="st0" d="M985.6,54.1c0,3.7-3,6.8-6.8,6.8c-3.7,0-6.8-3-6.8-6.8c0-3.7,3-6.7,6.8-6.7S985.6,50.4,985.6,54.1z"/>
	<path class="st0" d="M1003.4,54.1c0,3.7-3,6.8-6.8,6.8c-3.7,0-6.8-3-6.8-6.8c0-3.7,3-6.7,6.8-6.7S1003.4,50.4,1003.4,54.1z"/>
	<path class="st0" d="M1021.3,54c0,3.7-3,6.8-6.8,6.8c-3.7,0-6.8-3-6.8-6.8c0-3.7,3-6.8,6.8-6.8S1021.3,50.3,1021.3,54z"/>
	<path class="st0" d="M1039.1,54c0,3.7-3,6.8-6.8,6.8c-3.7,0-6.7-3-6.7-6.8c0-3.7,3-6.8,6.7-6.8C1036.1,47.2,1039.1,50.3,1039.1,54z
		"/>
	<path class="st0" d="M1057,54.4c0,3.7-3,6.8-6.7,6.8c-3.7,0-6.8-3-6.8-6.8c0-3.7,3-6.7,6.8-6.7C1053.9,47.7,1057,50.7,1057,54.4z"
		/>
	<path class="st0" d="M1074.8,54.4c0,3.7-3,6.8-6.7,6.8s-6.8-3-6.8-6.8c0-3.7,3-6.8,6.8-6.8C1071.8,47.7,1074.8,50.7,1074.8,54.4z"
		/>
	<path class="st0" d="M1306.8,54.1c0,3.7-3,6.7-6.8,6.7c-3.7,0-6.8-3-6.8-6.7s3-6.8,6.8-6.8C1303.8,47.4,1306.8,50.4,1306.8,54.1z"
		/>
	<path class="st0" d="M1342.5,54.4c0,3.7-3,6.8-6.7,6.8c-3.7,0-6.8-3-6.8-6.8c0-3.7,3-6.7,6.8-6.7
		C1339.5,47.7,1342.5,50.7,1342.5,54.4z"/>
	<path class="st0" d="M1413.9,54.3c0,3.7-3,6.8-6.8,6.8c-3.7,0-6.8-3-6.8-6.8c0-3.7,3-6.7,6.8-6.7
		C1410.9,47.6,1413.9,50.6,1413.9,54.3z"/>
	<path class="st0" d="M610.8,73.3c0,3.7-3,6.8-6.8,6.8c-3.7,0-6.8-3-6.8-6.8c0-3.7,3-6.7,6.8-6.7C607.8,66.5,610.8,69.5,610.8,73.3z
		"/>
	<path class="st0" d="M628.7,73.5c0,3.7-3,6.8-6.8,6.8c-3.7,0-6.7-3-6.7-6.8c0-3.7,3-6.8,6.7-6.8C625.7,66.7,628.7,69.8,628.7,73.5z
		"/>
	<path class="st0" d="M646.5,73.5c0,3.7-3,6.8-6.7,6.8s-6.8-3-6.8-6.8c0-3.7,3-6.8,6.8-6.8C643.5,66.7,646.5,69.8,646.5,73.5z"/>
	<path class="st0" d="M664.4,73.3c0,3.7-3,6.8-6.8,6.8c-3.8,0-6.8-3-6.8-6.8c0-3.7,3-6.7,6.8-6.7C661.4,66.6,664.4,69.6,664.4,73.3z
		"/>
	<path class="st0" d="M682.2,73.3c0,3.7-3,6.8-6.7,6.8s-6.8-3-6.8-6.8c0-3.7,3-6.7,6.8-6.7C679.2,66.5,682.2,69.6,682.2,73.3z"/>
	<path class="st0" d="M700.1,73.4c0,3.7-3,6.8-6.8,6.8c-3.7,0-6.8-3-6.8-6.8c0-3.7,3-6.8,6.8-6.8C697,66.6,700.1,69.7,700.1,73.4z"
		/>
	<path class="st0" d="M717.9,73.4c0,3.7-3,6.8-6.7,6.8c-3.7,0-6.8-3-6.8-6.8c0-3.7,3-6.7,6.8-6.7C714.9,66.6,717.9,69.7,717.9,73.4z
		"/>
	<path class="st0" d="M735.8,73.2c0,3.7-3,6.8-6.7,6.8s-6.8-3-6.8-6.8c0-3.7,3-6.7,6.8-6.7C732.7,66.5,735.8,69.5,735.8,73.2z"/>
	<path class="st0" d="M753.6,73.2c0,3.7-3,6.8-6.7,6.8c-3.7,0-6.8-3-6.8-6.8c0-3.7,3-6.8,6.8-6.8C750.6,66.5,753.6,69.5,753.6,73.2z
		"/>
	<path class="st0" d="M967.7,73.3c0,3.7-3,6.8-6.8,6.8c-3.7,0-6.8-3-6.8-6.8c0-3.7,3-6.7,6.8-6.7C964.7,66.5,967.7,69.6,967.7,73.3z
		"/>
	<path class="st0" d="M985.6,73.3c0,3.7-3,6.7-6.8,6.7s-6.8-3-6.8-6.7s3-6.8,6.8-6.8S985.6,69.6,985.6,73.3z"/>
	<path class="st0" d="M1003.4,73.4c0,3.7-3,6.8-6.8,6.8c-3.7,0-6.8-3-6.8-6.8c0-3.7,3-6.8,6.8-6.8S1003.4,69.6,1003.4,73.4z"/>
	<path class="st0" d="M1021.3,73.2c0,3.7-3,6.8-6.8,6.8c-3.7,0-6.8-3-6.8-6.8c0-3.7,3-6.7,6.8-6.7S1021.3,69.5,1021.3,73.2z"/>
	<path class="st0" d="M1039.1,73.2c0,3.7-3,6.8-6.8,6.8c-3.7,0-6.7-3-6.7-6.8c0-3.7,3-6.7,6.7-6.7
		C1036.1,66.5,1039.1,69.5,1039.1,73.2z"/>
	<path class="st0" d="M1057,73.6c0,3.7-3,6.8-6.8,6.8c-3.7,0-6.8-3-6.8-6.8c0-3.7,3-6.7,6.8-6.7C1053.9,66.9,1057,69.9,1057,73.6z"
		/>
	<path class="st0" d="M1306.8,73.4c0,3.7-3,6.8-6.8,6.8c-3.7,0-6.8-3-6.8-6.8c0-3.7,3-6.7,6.8-6.7
		C1303.8,66.6,1306.8,69.6,1306.8,73.4z"/>
	<path class="st0" d="M1342.5,73.6c0,3.7-3,6.7-6.8,6.7c-3.7,0-6.8-3-6.8-6.7s3-6.8,6.8-6.8C1339.5,66.9,1342.5,69.9,1342.5,73.6z"
		/>
	<path class="st0" d="M1431.7,73.6c0,3.7-3,6.8-6.7,6.8s-6.8-3-6.8-6.8c0-3.7,3-6.7,6.8-6.7C1428.7,66.8,1431.7,69.9,1431.7,73.6z"
		/>
	<path class="st0" d="M1449.6,73.4c0,3.7-3,6.8-6.8,6.8c-3.7,0-6.8-3-6.8-6.8c0-3.7,3-6.7,6.8-6.7
		C1446.5,66.6,1449.6,69.7,1449.6,73.4z"/>
	<path class="st0" d="M610.8,92.5c0,3.7-3,6.7-6.8,6.7c-3.7,0-6.7-3-6.7-6.7s3-6.7,6.7-6.7C607.8,85.8,610.8,88.8,610.8,92.5z"/>
	<path class="st0" d="M628.7,92.7c0,3.7-3,6.7-6.8,6.7c-3.7,0-6.7-3-6.7-6.7s3-6.8,6.7-6.8C625.7,86,628.7,89,628.7,92.7z"/>
	<path class="st0" d="M646.5,92.7c0,3.7-3,6.8-6.8,6.8c-3.7,0-6.8-3-6.8-6.8c0-3.7,3-6.7,6.8-6.7S646.5,89,646.5,92.7z"/>
	<path class="st0" d="M664.4,92.5c0,3.7-3,6.7-6.8,6.7c-3.7,0-6.7-3-6.7-6.7s3-6.8,6.7-6.8C661.3,85.8,664.4,88.8,664.4,92.5z"/>
	<path class="st0" d="M682.2,92.5c0,3.7-3,6.7-6.8,6.7c-3.7,0-6.7-3-6.7-6.7s3-6.8,6.7-6.8C679.2,85.8,682.2,88.8,682.2,92.5z"/>
	<path class="st0" d="M700.1,92.6c0,3.7-3,6.8-6.8,6.8c-3.7,0-6.7-3-6.7-6.8c0-3.7,3-6.8,6.7-6.8C697,85.9,700.1,88.9,700.1,92.6z"
		/>
	<path class="st0" d="M717.9,92.6c0,3.7-3,6.8-6.8,6.8c-3.7,0-6.7-3-6.7-6.8c0-3.7,3-6.7,6.7-6.7C714.9,85.9,717.9,88.9,717.9,92.6z
		"/>
	<path class="st0" d="M735.8,92.5c0,3.7-3,6.8-6.8,6.8c-3.7,0-6.8-3-6.8-6.8c0-3.7,3-6.8,6.8-6.8C732.7,85.7,735.8,88.7,735.8,92.5z
		"/>
	<path class="st0" d="M753.6,92.5c0,3.7-3,6.8-6.8,6.8c-3.7,0-6.8-3-6.8-6.8c0-3.7,3-6.8,6.8-6.8C750.6,85.7,753.6,88.7,753.6,92.5z
		"/>
	<path class="st0" d="M771.4,92.7c0,3.7-3,6.8-6.8,6.8c-3.7,0-6.8-3-6.8-6.8c0-3.7,3-6.8,6.8-6.8C768.4,86,771.4,89,771.4,92.7z"/>
	<path class="st0" d="M967.7,92.5c0,3.7-3,6.8-6.8,6.8c-3.7,0-6.7-3-6.7-6.8c0-3.7,3-6.8,6.7-6.8C964.7,85.8,967.7,88.8,967.7,92.5z
		"/>
	<path class="st0" d="M985.6,92.6c0,3.7-3,6.8-6.8,6.8c-3.7,0-6.8-3-6.8-6.8c0-3.7,3-6.8,6.8-6.8C982.6,85.8,985.6,88.9,985.6,92.6z
		"/>
	<path class="st0" d="M1003.4,92.6c0,3.7-3,6.8-6.8,6.8c-3.7,0-6.8-3-6.8-6.8c0-3.7,3-6.7,6.8-6.7
		C1000.4,85.8,1003.4,88.9,1003.4,92.6z"/>
	<path class="st0" d="M1021.3,92.5c0,3.7-3,6.8-6.8,6.8c-3.7,0-6.8-3-6.8-6.8c0-3.7,3-6.7,6.8-6.7
		C1018.3,85.7,1021.3,88.7,1021.3,92.5z"/>
	<path class="st0" d="M1039.1,92.5c0,3.7-3,6.8-6.8,6.8c-3.7,0-6.7-3-6.7-6.8c0-3.7,3-6.7,6.7-6.7
		C1036.1,85.7,1039.1,88.7,1039.1,92.5z"/>
	<path class="st0" d="M1057,92.9c0,3.7-3,6.8-6.7,6.8c-3.7,0-6.8-3-6.8-6.8c0-3.7,3-6.7,6.8-6.7C1053.9,86.1,1057,89.1,1057,92.9z"
		/>
	<path class="st0" d="M1449.5,92.6c0,3.7-3,6.8-6.7,6.8c-3.7,0-6.8-3-6.8-6.8c0-3.7,3-6.7,6.8-6.7
		C1446.5,85.9,1449.5,88.9,1449.5,92.6z"/>
	<path class="st0" d="M1467.4,92.6c0,3.7-3,6.8-6.8,6.8c-3.7,0-6.8-3-6.8-6.8c0-3.7,3-6.8,6.8-6.8
		C1464.4,85.9,1467.4,88.9,1467.4,92.6z"/>
	<path class="st0" d="M610.8,111.7c0,3.7-3,6.7-6.8,6.7c-3.7,0-6.8-3-6.8-6.7s3-6.8,6.8-6.8C607.8,105,610.8,108,610.8,111.7z"/>
	<path class="st0" d="M628.7,112c0,3.7-3,6.7-6.8,6.7c-3.7,0-6.7-3-6.7-6.7s3-6.8,6.7-6.8C625.7,105.2,628.7,108.2,628.7,112z"/>
	<path class="st0" d="M646.5,112c0,3.7-3,6.8-6.7,6.8s-6.8-3-6.8-6.8c0-3.7,3-6.7,6.8-6.7C643.5,105.2,646.5,108.2,646.5,112z"/>
	<path class="st0" d="M664.4,111.8c0,3.7-3,6.8-6.8,6.8c-3.8,0-6.8-3-6.8-6.8c0-3.7,3-6.8,6.8-6.8C661.4,105,664.4,108,664.4,111.8z
		"/>
	<path class="st0" d="M682.2,111.8c0,3.7-3,6.8-6.7,6.8s-6.8-3-6.8-6.8c0-3.7,3-6.8,6.8-6.8C679.2,105,682.2,108,682.2,111.8z"/>
	<path class="st0" d="M700.1,111.8c0,3.7-3,6.8-6.8,6.8c-3.7,0-6.8-3-6.8-6.8c0-3.7,3-6.8,6.8-6.8
		C697,105.1,700.1,108.1,700.1,111.8z"/>
	<path class="st0" d="M717.9,111.8c0,3.7-3,6.8-6.7,6.8c-3.7,0-6.8-3-6.8-6.8c0-3.7,3-6.7,6.8-6.7
		C714.9,105.1,717.9,108.1,717.9,111.8z"/>
	<path class="st0" d="M735.8,111.7c0,3.7-3,6.8-6.7,6.8s-6.8-3-6.8-6.8c0-3.7,3-6.8,6.8-6.8C732.7,104.9,735.8,108,735.8,111.7z"/>
	<path class="st0" d="M753.6,111.7c0,3.7-3,6.8-6.7,6.8c-3.7,0-6.8-3-6.8-6.8c0-3.7,3-6.8,6.8-6.8C750.6,105,753.6,108,753.6,111.7z
		"/>
	<path class="st0" d="M967.7,111.7c0,3.7-3,6.8-6.8,6.8c-3.7,0-6.8-3-6.8-6.8c0-3.7,3-6.7,6.8-6.7S967.7,108,967.7,111.7z"/>
	<path class="st0" d="M985.6,111.8c0,3.7-3,6.8-6.8,6.8s-6.8-3-6.8-6.8c0-3.7,3-6.8,6.8-6.8S985.6,108.1,985.6,111.8z"/>
	<path class="st0" d="M1003.4,111.8c0,3.7-3,6.8-6.8,6.8c-3.7,0-6.8-3-6.8-6.8c0-3.7,3-6.8,6.8-6.8
		C1000.4,105.1,1003.4,108.1,1003.4,111.8z"/>
	<path class="st0" d="M1021.3,111.7c0,3.7-3,6.8-6.8,6.8c-3.7,0-6.8-3-6.8-6.8c0-3.7,3-6.8,6.8-6.8
		C1018.3,104.9,1021.3,108,1021.3,111.7z"/>
	<path class="st0" d="M1039.1,111.7c0,3.7-3,6.8-6.8,6.8c-3.7,0-6.7-3-6.7-6.8c0-3.7,3-6.7,6.7-6.7
		C1036.1,104.9,1039.1,108,1039.1,111.7z"/>
	<path class="st0" d="M1057,112.1c0,3.7-3,6.8-6.8,6.8c-3.7,0-6.8-3-6.8-6.8c0-3.7,3-6.7,6.8-6.7
		C1053.9,105.4,1057,108.4,1057,112.1z"/>
	<path class="st0" d="M1092.7,112c0,3.7-3,6.8-6.8,6.8c-3.7,0-6.8-3-6.8-6.8c0-3.7,3-6.7,6.8-6.7
		C1089.6,105.2,1092.7,108.3,1092.7,112z"/>
	<path class="st0" d="M1413.9,112c0,3.7-3,6.8-6.8,6.8c-3.7,0-6.8-3-6.8-6.8c0-3.7,3-6.7,6.8-6.7
		C1410.9,105.3,1413.9,108.3,1413.9,112z"/>
	<path class="st0" d="M628.7,131.2c0,3.7-3,6.7-6.8,6.7c-3.7,0-6.7-3-6.7-6.7s3-6.7,6.7-6.7C625.7,124.4,628.7,127.5,628.7,131.2z"
		/>
	<path class="st0" d="M646.5,131.2c0,3.7-3,6.8-6.7,6.8s-6.8-3-6.8-6.8c0-3.7,3-6.8,6.8-6.8C643.5,124.4,646.5,127.5,646.5,131.2z"
		/>
	<path class="st0" d="M664.4,131c0,3.7-3,6.8-6.8,6.8c-3.8,0-6.8-3-6.8-6.8c0-3.7,3-6.8,6.8-6.8C661.4,124.2,664.4,127.3,664.4,131z
		"/>
	<path class="st0" d="M682.2,131c0,3.7-3,6.8-6.7,6.8s-6.8-3-6.8-6.8c0-3.7,3-6.7,6.8-6.7C679.2,124.2,682.2,127.3,682.2,131z"/>
	<path class="st0" d="M700.1,131.1c0,3.7-3,6.7-6.8,6.7c-3.7,0-6.8-3-6.8-6.7s3-6.8,6.8-6.8C697,124.3,700.1,127.3,700.1,131.1z"/>
	<path class="st0" d="M717.9,131.1c0,3.7-3,6.8-6.7,6.8c-3.7,0-6.8-3-6.8-6.8c0-3.7,3-6.8,6.8-6.8
		C714.9,124.3,717.9,127.3,717.9,131.1z"/>
	<path class="st0" d="M735.8,130.9c0,3.7-3,6.8-6.7,6.8s-6.8-3-6.8-6.8c0-3.7,3-6.7,6.8-6.7C732.7,124.2,735.8,127.2,735.8,130.9z"
		/>
	<path class="st0" d="M753.6,130.9c0,3.7-3,6.8-6.7,6.8c-3.7,0-6.8-3-6.8-6.8c0-3.7,3-6.7,6.8-6.7
		C750.6,124.2,753.6,127.2,753.6,130.9z"/>
	<path class="st0" d="M967.7,131c0,3.7-3,6.8-6.8,6.8c-3.7,0-6.8-3-6.8-6.8c0-3.7,3-6.7,6.8-6.7C964.7,124.2,967.7,127.2,967.7,131z
		"/>
	<path class="st0" d="M985.6,131c0,3.7-3,6.8-6.8,6.8s-6.8-3-6.8-6.8c0-3.7,3-6.7,6.8-6.7S985.6,127.3,985.6,131z"/>
	<path class="st0" d="M1003.4,131c0,3.7-3,6.8-6.8,6.8c-3.7,0-6.8-3-6.8-6.8c0-3.7,3-6.7,6.8-6.7S1003.4,127.3,1003.4,131z"/>
	<path class="st0" d="M1021.3,130.9c0,3.7-3,6.8-6.8,6.8c-3.7,0-6.8-3-6.8-6.8c0-3.7,3-6.8,6.8-6.8
		C1018.3,124.2,1021.3,127.2,1021.3,130.9z"/>
	<path class="st0" d="M1039.1,130.9c0,3.7-3,6.8-6.8,6.8c-3.7,0-6.7-3-6.7-6.8c0-3.7,3-6.7,6.7-6.7
		C1036.1,124.2,1039.1,127.2,1039.1,130.9z"/>
	<path class="st0" d="M1057,131.3c0,3.7-3,6.8-6.8,6.8c-3.7,0-6.8-3-6.8-6.8c0-3.7,3-6.7,6.8-6.7
		C1053.9,124.6,1057,127.6,1057,131.3z"/>
	<path class="st0" d="M1092.7,131.2c0,3.7-3,6.8-6.8,6.8c-3.7,0-6.8-3-6.8-6.8c0-3.7,3-6.7,6.8-6.7
		C1089.6,124.5,1092.7,127.5,1092.7,131.2z"/>
	<path class="st0" d="M1378.2,131.2c0,3.7-3,6.8-6.8,6.8c-3.7,0-6.8-3-6.8-6.8c0-3.7,3-6.8,6.8-6.8
		C1375.2,124.4,1378.2,127.5,1378.2,131.2z"/>
	<path class="st0" d="M1396,131.2c0,3.7-3,6.8-6.8,6.8c-3.7,0-6.7-3-6.7-6.8c0-3.7,3-6.8,6.7-6.8C1393,124.4,1396,127.5,1396,131.2z
		"/>
	<path class="st0" d="M1413.9,131.3c0,3.7-3,6.8-6.8,6.8c-3.7,0-6.8-3-6.8-6.8c0-3.7,3-6.7,6.8-6.7
		C1410.9,124.5,1413.9,127.5,1413.9,131.3z"/>
	<path class="st0" d="M1431.7,131.3c0,3.7-3,6.7-6.7,6.7s-6.8-3-6.8-6.7s3-6.7,6.8-6.7C1428.7,124.5,1431.7,127.6,1431.7,131.3z"/>
	<path class="st0" d="M646.5,150.4c0,3.7-3,6.8-6.7,6.8s-6.8-3-6.8-6.8c0-3.7,3-6.7,6.8-6.7C643.5,143.7,646.5,146.7,646.5,150.4z"
		/>
	<path class="st0" d="M664.4,150.2c0,3.7-3,6.8-6.8,6.8c-3.7,0-6.8-3-6.8-6.8c0-3.7,3-6.8,6.8-6.8
		C661.3,143.5,664.4,146.5,664.4,150.2z"/>
	<path class="st0" d="M682.2,150.2c0,3.7-3,6.8-6.8,6.8c-3.7,0-6.7-3-6.7-6.8c0-3.7,3-6.7,6.7-6.7
		C679.2,143.5,682.2,146.5,682.2,150.2z"/>
	<path class="st0" d="M700.1,150.3c0,3.7-3,6.8-6.8,6.8c-3.7,0-6.7-3-6.7-6.8c0-3.7,3-6.8,6.7-6.8S700.1,146.6,700.1,150.3z"/>
	<path class="st0" d="M717.9,150.3c0,3.7-3,6.8-6.8,6.8c-3.7,0-6.7-3-6.7-6.8c0-3.7,3-6.8,6.7-6.8
		C714.9,143.5,717.9,146.6,717.9,150.3z"/>
	<path class="st0" d="M735.8,150.2c0,3.7-3,6.8-6.8,6.8c-3.7,0-6.7-3-6.7-6.8c0-3.7,3-6.8,6.7-6.8
		C732.7,143.4,735.8,146.4,735.8,150.2z"/>
	<path class="st0" d="M753.6,150.2c0,3.7-3,6.7-6.7,6.7c-3.7,0-6.8-3-6.8-6.7s3-6.8,6.8-6.8C750.6,143.4,753.6,146.4,753.6,150.2z"
		/>
	<path class="st0" d="M967.7,150.2c0,3.7-3,6.8-6.8,6.8c-3.7,0-6.8-3-6.8-6.8c0-3.7,3-6.8,6.8-6.8
		C964.7,143.5,967.7,146.5,967.7,150.2z"/>
	<path class="st0" d="M985.6,150.3c0,3.7-3,6.8-6.8,6.8c-3.7,0-6.8-3-6.8-6.8c0-3.7,3-6.8,6.8-6.8S985.6,146.5,985.6,150.3z"/>
	<path class="st0" d="M1003.4,150.3c0,3.7-3,6.8-6.8,6.8c-3.7,0-6.7-3-6.7-6.8c0-3.7,3-6.8,6.7-6.8
		C1000.4,143.5,1003.4,146.6,1003.4,150.3z"/>
	<path class="st0" d="M1021.3,150.2c0,3.7-3,6.8-6.8,6.8c-3.7,0-6.8-3-6.8-6.8c0-3.7,3-6.7,6.8-6.7
		C1018.3,143.4,1021.3,146.4,1021.3,150.2z"/>
	<path class="st0" d="M1039.1,150.1c0,3.7-3,6.7-6.8,6.7c-3.7,0-6.7-3-6.7-6.7s3-6.8,6.7-6.8
		C1036.1,143.4,1039.1,146.4,1039.1,150.1z"/>
	<path class="st0" d="M1074.8,150.6c0,3.7-3,6.8-6.8,6.8c-3.7,0-6.8-3-6.8-6.8c0-3.7,3-6.7,6.8-6.7
		C1071.8,143.8,1074.8,146.8,1074.8,150.6z"/>
	<path class="st0" d="M1092.7,150.4c0,3.7-3,6.8-6.8,6.8c-3.7,0-6.8-3-6.8-6.8c0-3.7,3-6.7,6.8-6.7
		C1089.6,143.7,1092.7,146.7,1092.7,150.4z"/>
	<path class="st0" d="M1360.3,150.6c0,3.7-3,6.8-6.8,6.8c-3.7,0-6.8-3-6.8-6.8c0-3.7,3-6.8,6.8-6.8
		C1357.3,143.8,1360.3,146.8,1360.3,150.6z"/>
	<path class="st0" d="M1378.2,150.4c0,3.7-3,6.8-6.8,6.8c-3.7,0-6.8-3-6.8-6.8c0-3.7,3-6.8,6.8-6.8
		C1375.2,143.7,1378.2,146.7,1378.2,150.4z"/>
	<path class="st0" d="M1396,150.4c0,3.7-3,6.8-6.8,6.8c-3.7,0-6.8-3-6.8-6.8c0-3.7,3-6.8,6.8-6.8C1393,143.7,1396,146.7,1396,150.4z
		"/>
	<path class="st0" d="M1413.9,150.5c0,3.7-3,6.8-6.8,6.8c-3.7,0-6.8-3-6.8-6.8c0-3.7,3-6.8,6.8-6.8
		C1410.9,143.7,1413.9,146.8,1413.9,150.5z"/>
	<path class="st0" d="M1431.7,150.5c0,3.7-3,6.8-6.8,6.8c-3.7,0-6.8-3-6.8-6.8c0-3.7,3-6.8,6.8-6.8
		C1428.7,143.8,1431.7,146.8,1431.7,150.5z"/>
	<path class="st0" d="M664.4,169.4c0,3.7-3,6.8-6.8,6.8c-3.8,0-6.8-3-6.8-6.8c0-3.7,3-6.8,6.8-6.8
		C661.4,162.6,664.4,165.7,664.4,169.4z"/>
	<path class="st0" d="M682.2,169.4c0,3.7-3,6.8-6.7,6.8s-6.8-3-6.8-6.8c0-3.7,3-6.7,6.8-6.7C679.2,162.7,682.2,165.7,682.2,169.4z"
		/>
	<path class="st0" d="M700.1,169.5c0,3.7-3,6.8-6.8,6.8c-3.7,0-6.8-3-6.8-6.8c0-3.7,3-6.7,6.8-6.7
		C697,162.8,700.1,165.8,700.1,169.5z"/>
	<path class="st0" d="M717.9,169.5c0,3.7-3,6.8-6.7,6.8c-3.7,0-6.8-3-6.8-6.8c0-3.7,3-6.8,6.8-6.8
		C714.9,162.8,717.9,165.8,717.9,169.5z"/>
	<path class="st0" d="M735.8,169.4c0,3.7-3,6.7-6.7,6.7s-6.8-3-6.8-6.7s3-6.8,6.8-6.8C732.7,162.6,735.8,165.7,735.8,169.4z"/>
	<path class="st0" d="M967.7,169.4c0,3.7-3,6.8-6.8,6.8c-3.7,0-6.8-3-6.8-6.8c0-3.7,3-6.7,6.8-6.7
		C964.7,162.7,967.7,165.7,967.7,169.4z"/>
	<path class="st0" d="M985.6,169.5c0,3.7-3,6.8-6.8,6.8s-6.8-3-6.8-6.8c0-3.7,3-6.8,6.8-6.8S985.6,165.8,985.6,169.5z"/>
	<path class="st0" d="M1003.4,169.5c0,3.7-3,6.8-6.8,6.8c-3.7,0-6.8-3-6.8-6.8c0-3.7,3-6.8,6.8-6.8S1003.4,165.8,1003.4,169.5z"/>
	<path class="st0" d="M1021.3,169.4c0,3.7-3,6.8-6.8,6.8c-3.7,0-6.8-3-6.8-6.8c0-3.7,3-6.8,6.8-6.8S1021.3,165.7,1021.3,169.4z"/>
	<path class="st0" d="M1039.1,169.4c0,3.7-3,6.8-6.8,6.8c-3.7,0-6.7-3-6.7-6.8c0-3.7,3-6.7,6.7-6.7
		C1036.1,162.6,1039.1,165.6,1039.1,169.4z"/>
	<path class="st0" d="M1074.8,169.8c0,3.7-3,6.8-6.8,6.8c-3.7,0-6.8-3-6.8-6.8c0-3.7,3-6.7,6.8-6.7
		C1071.8,163.1,1074.8,166.1,1074.8,169.8z"/>
	<path class="st0" d="M1324.6,169.5c0,3.7-3,6.8-6.7,6.8c-3.7,0-6.8-3-6.8-6.8c0-3.7,3-6.7,6.8-6.7
		C1321.6,162.8,1324.6,165.8,1324.6,169.5z"/>
	<path class="st0" d="M1342.5,169.8c0,3.7-3,6.8-6.8,6.8c-3.7,0-6.8-3-6.8-6.8c0-3.7,3-6.7,6.8-6.7
		C1339.5,163,1342.5,166.1,1342.5,169.8z"/>
	<path class="st0" d="M1360.3,169.8c0,3.7-3,6.8-6.8,6.8c-3.7,0-6.8-3-6.8-6.8c0-3.7,3-6.8,6.8-6.8S1360.3,166.1,1360.3,169.8z"/>
	<path class="st0" d="M1378.2,169.6c0,3.7-3,6.8-6.8,6.8c-3.7,0-6.8-3-6.8-6.8c0-3.7,3-6.8,6.8-6.8
		C1375.2,162.9,1378.2,165.9,1378.2,169.6z"/>
	<path class="st0" d="M1396,169.6c0,3.7-3,6.8-6.8,6.8c-3.7,0-6.7-3-6.7-6.8c0-3.7,3-6.7,6.7-6.7C1393,162.9,1396,165.9,1396,169.6z
		"/>
	<path class="st0" d="M1413.9,169.7c0,3.7-3,6.8-6.8,6.8c-3.7,0-6.8-3-6.8-6.8c0-3.7,3-6.7,6.8-6.7
		C1410.9,163,1413.9,166,1413.9,169.7z"/>
	<path class="st0" d="M1431.7,169.7c0,3.7-3,6.8-6.8,6.8c-3.7,0-6.8-3-6.8-6.8c0-3.7,3-6.7,6.8-6.7S1431.7,166,1431.7,169.7z"/>
	<path class="st0" d="M664.4,188.7c0,3.7-3,6.8-6.8,6.8c-3.7,0-6.8-3-6.8-6.8c0-3.7,3-6.7,6.8-6.7
		C661.3,181.9,664.4,184.9,664.4,188.7z"/>
	<path class="st0" d="M682.2,188.7c0,3.7-3,6.8-6.8,6.8c-3.7,0-6.7-3-6.7-6.8c0-3.7,3-6.7,6.7-6.7
		C679.2,181.9,682.2,185,682.2,188.7z"/>
	<path class="st0" d="M700.1,188.8c0,3.7-3,6.8-6.8,6.8c-3.7,0-6.7-3-6.7-6.8c0-3.7,3-6.8,6.7-6.8S700.1,185,700.1,188.8z"/>
	<path class="st0" d="M717.9,188.8c0,3.7-3,6.7-6.8,6.7c-3.7,0-6.7-3-6.7-6.7s3-6.8,6.7-6.8C714.9,182,717.9,185,717.9,188.8z"/>
	<path class="st0" d="M967.7,188.7c0,3.7-3,6.8-6.8,6.8c-3.7,0-6.8-3-6.8-6.8c0-3.7,3-6.8,6.8-6.8
		C964.7,181.9,967.7,184.9,967.7,188.7z"/>
	<path class="st0" d="M985.6,188.7c0,3.7-3,6.7-6.8,6.7c-3.7,0-6.8-3-6.8-6.7s3-6.8,6.8-6.8C982.6,182,985.6,185,985.6,188.7z"/>
	<path class="st0" d="M1003.4,188.7c0,3.7-3,6.8-6.8,6.8c-3.7,0-6.7-3-6.7-6.8c0-3.7,3-6.7,6.7-6.7
		C1000.4,182,1003.4,185,1003.4,188.7z"/>
	<path class="st0" d="M1021.3,188.6c0,3.7-3,6.7-6.8,6.7c-3.7,0-6.8-3-6.8-6.7s3-6.8,6.8-6.8
		C1018.3,181.9,1021.3,184.9,1021.3,188.6z"/>
	<path class="st0" d="M1324.6,188.7c0,3.7-3,6.8-6.8,6.8c-3.7,0-6.8-3-6.8-6.8c0-3.7,3-6.7,6.8-6.7
		C1321.6,182,1324.6,185,1324.6,188.7z"/>
	<path class="st0" d="M1342.5,189c0,3.7-3,6.8-6.8,6.8c-3.7,0-6.7-3-6.7-6.8c0-3.7,3-6.7,6.7-6.7
		C1339.5,182.3,1342.5,185.3,1342.5,189z"/>
	<path class="st0" d="M1360.3,189c0,3.7-3,6.8-6.8,6.8c-3.7,0-6.8-3-6.8-6.8c0-3.7,3-6.8,6.8-6.8
		C1357.3,182.3,1360.3,185.3,1360.3,189z"/>
	<path class="st0" d="M1378.2,188.9c0,3.7-3,6.8-6.8,6.8c-3.7,0-6.8-3-6.8-6.8c0-3.7,3-6.8,6.8-6.8
		C1375.2,182.1,1378.2,185.2,1378.2,188.9z"/>
	<path class="st0" d="M1396,188.9c0,3.7-3,6.8-6.8,6.8c-3.7,0-6.8-3-6.8-6.8c0-3.7,3-6.8,6.8-6.8C1393,182.1,1396,185.2,1396,188.9z
		"/>
	<path class="st0" d="M1413.9,189c0,3.7-3,6.8-6.8,6.8c-3.7,0-6.8-3-6.8-6.8c0-3.7,3-6.8,6.8-6.8
		C1410.9,182.2,1413.9,185.2,1413.9,189z"/>
	<path class="st0" d="M1431.7,189c0,3.7-3,6.8-6.8,6.8c-3.7,0-6.8-3-6.8-6.8c0-3.7,3-6.7,6.8-6.7
		C1428.7,182.2,1431.7,185.2,1431.7,189z"/>
	<path class="st0" d="M664.4,207.9c0,3.7-3,6.8-6.8,6.8c-3.7,0-6.8-3-6.8-6.8c0-3.7,3-6.8,6.8-6.8
		C661.3,201.2,664.4,204.2,664.4,207.9z"/>
	<path class="st0" d="M682.2,207.9c0,3.7-3,6.8-6.8,6.8c-3.7,0-6.7-3-6.7-6.8c0-3.7,3-6.7,6.7-6.7
		C679.2,201.2,682.2,204.2,682.2,207.9z"/>
	<path class="st0" d="M700.1,208c0,3.7-3,6.8-6.8,6.8c-3.7,0-6.7-3-6.7-6.8c0-3.7,3-6.8,6.7-6.8S700.1,204.3,700.1,208z"/>
	<path class="st0" d="M717.9,208c0,3.7-3,6.7-6.8,6.7c-3.7,0-6.7-3-6.7-6.7s3-6.8,6.7-6.8C714.9,201.2,717.9,204.3,717.9,208z"/>
	<path class="st0" d="M985.6,207.9c0,3.7-3,6.8-6.8,6.8c-3.7,0-6.8-3-6.8-6.8c0-3.7,3-6.7,6.8-6.7S985.6,204.2,985.6,207.9z"/>
	<path class="st0" d="M1003.4,208c0,3.7-3,6.7-6.8,6.7c-3.7,0-6.7-3-6.7-6.7s3-6.8,6.7-6.8C1000.4,201.2,1003.4,204.2,1003.4,208z"
		/>
	<path class="st0" d="M1324.6,208c0,3.7-3,6.8-6.8,6.8c-3.7,0-6.8-3-6.8-6.8c0-3.7,3-6.8,6.8-6.8
		C1321.6,201.2,1324.6,204.3,1324.6,208z"/>
	<path class="st0" d="M1342.5,208.2c0,3.7-3,6.8-6.8,6.8c-3.7,0-6.7-3-6.7-6.8c0-3.7,3-6.7,6.7-6.7
		C1339.5,201.5,1342.5,204.5,1342.5,208.2z"/>
	<path class="st0" d="M1360.3,208.3c0,3.7-3,6.8-6.8,6.8c-3.7,0-6.8-3-6.8-6.8c0-3.7,3-6.8,6.8-6.8S1360.3,204.5,1360.3,208.3z"/>
	<path class="st0" d="M1378.2,208.1c0,3.7-3,6.8-6.8,6.8c-3.7,0-6.8-3-6.8-6.8c0-3.7,3-6.8,6.8-6.8
		C1375.2,201.4,1378.2,204.4,1378.2,208.1z"/>
	<path class="st0" d="M1396,208.1c0,3.7-3,6.8-6.8,6.8c-3.7,0-6.8-3-6.8-6.8c0-3.7,3-6.8,6.8-6.8C1393,201.4,1396,204.4,1396,208.1z
		"/>
	<path class="st0" d="M1413.9,208.2c0,3.7-3,6.8-6.8,6.8c-3.7,0-6.8-3-6.8-6.8c0-3.7,3-6.7,6.8-6.7
		C1410.9,201.4,1413.9,204.5,1413.9,208.2z"/>
	<path class="st0" d="M1431.7,208.2c0,3.7-3,6.8-6.8,6.8c-3.7,0-6.8-3-6.8-6.8c0-3.7,3-6.8,6.8-6.8S1431.7,204.5,1431.7,208.2z"/>
	<path class="st0" d="M664.4,227.1c0,3.7-3,6.8-6.8,6.8c-3.7,0-6.7-3-6.7-6.8c0-3.7,3-6.8,6.7-6.8
		C661.3,220.4,664.4,223.4,664.4,227.1z"/>
	<path class="st0" d="M682.2,227.1c0,3.7-3,6.8-6.8,6.8c-3.7,0-6.7-3-6.7-6.8c0-3.7,3-6.8,6.7-6.8
		C679.2,220.4,682.2,223.4,682.2,227.1z"/>
	<path class="st0" d="M700.1,227.2c0,3.7-3,6.8-6.8,6.8c-3.7,0-6.7-3-6.7-6.8c0-3.7,3-6.8,6.7-6.8
		C697,220.5,700.1,223.5,700.1,227.2z"/>
	<path class="st0" d="M1378.2,227.3c0,3.7-3,6.8-6.8,6.8c-3.7,0-6.8-3-6.8-6.8c0-3.7,3-6.7,6.8-6.7S1378.2,223.6,1378.2,227.3z"/>
	<path class="st0" d="M1396,227.3c0,3.7-3,6.8-6.8,6.8c-3.7,0-6.7-3-6.7-6.8c0-3.7,3-6.8,6.7-6.8C1393,220.6,1396,223.6,1396,227.3z
		"/>
	<path class="st0" d="M1413.9,227.4c0,3.7-3,6.8-6.8,6.8c-3.7,0-6.8-3-6.8-6.8c0-3.7,3-6.8,6.8-6.8
		C1410.9,220.7,1413.9,223.7,1413.9,227.4z"/>
	<path class="st0" d="M664.4,246.4c0,3.7-3,6.8-6.8,6.8c-3.7,0-6.8-3-6.8-6.8c0-3.7,3-6.8,6.8-6.8
		C661.3,239.6,664.4,242.6,664.4,246.4z"/>
	<path class="st0" d="M682.2,246.4c0,3.7-3,6.7-6.8,6.7c-3.7,0-6.7-3-6.7-6.7s3-6.8,6.7-6.8C679.2,239.6,682.2,242.6,682.2,246.4z"
		/>
	<path class="st0" d="M700.1,246.5c0,3.7-3,6.8-6.8,6.8c-3.7,0-6.7-3-6.7-6.8c0-3.7,3-6.8,6.7-6.8S700.1,242.7,700.1,246.5z"/>
	<path class="st0" d="M1378.2,246.6c0,3.7-3,6.8-6.8,6.8c-3.7,0-6.8-3-6.8-6.8c0-3.7,3-6.8,6.8-6.8S1378.2,242.8,1378.2,246.6z"/>
	<path class="st0" d="M1396,246.6c0,3.7-3,6.7-6.8,6.7c-3.7,0-6.8-3-6.8-6.7s3-6.8,6.8-6.8C1393,239.8,1396,242.8,1396,246.6z"/>
	<path class="st0" d="M1467.4,246.5c0,3.7-3,6.8-6.8,6.8c-3.7,0-6.8-3-6.8-6.8c0-3.7,3-6.8,6.8-6.8
		C1464.4,239.7,1467.4,242.7,1467.4,246.5z"/>
	<path class="st0" d="M682.2,265.6c0,3.7-3,6.8-6.8,6.8c-3.7,0-6.7-3-6.7-6.8c0-3.7,3-6.7,6.7-6.7
		C679.2,258.9,682.2,261.9,682.2,265.6z"/>
	<path class="st0" d="M700.1,265.7c0,3.7-3,6.8-6.8,6.8c-3.7,0-6.7-3-6.7-6.8c0-3.7,3-6.7,6.7-6.7C697,258.9,700.1,262,700.1,265.7z
		"/>
	<path class="st0" d="M1378.2,265.8c0,3.7-3,6.8-6.8,6.8c-3.7,0-6.8-3-6.8-6.8c0-3.7,3-6.7,6.8-6.7
		C1375.2,259,1378.2,262.1,1378.2,265.8z"/>
	<path class="st0" d="M1449.5,265.7c0,3.7-3,6.7-6.7,6.7c-3.7,0-6.8-3-6.8-6.7s3-6.8,6.8-6.8C1446.5,258.9,1449.5,262,1449.5,265.7z
		"/>
	<path class="st0" d="M1467.4,265.7c0,3.7-3,6.8-6.8,6.8c-3.7,0-6.8-3-6.8-6.8c0-3.7,3-6.7,6.8-6.7
		C1464.4,259,1467.4,262,1467.4,265.7z"/>
	<path class="st0" d="M682.2,284.8c0,3.7-3,6.8-6.8,6.8c-3.7,0-6.7-3-6.7-6.8c0-3.7,3-6.7,6.7-6.7
		C679.2,278.1,682.2,281.1,682.2,284.8z"/>
	<path class="st0" d="M700.1,284.9c0,3.7-3,6.8-6.8,6.8c-3.7,0-6.7-3-6.7-6.8c0-3.7,3-6.7,6.7-6.7S700.1,281.2,700.1,284.9z"/>
	<path class="st0" d="M1413.9,285.1c0,3.7-3,6.8-6.8,6.8c-3.7,0-6.8-3-6.8-6.8c0-3.7,3-6.7,6.8-6.7
		C1410.9,278.4,1413.9,281.4,1413.9,285.1z"/>
	<path class="st0" d="M1431.7,285.1c0,3.7-3,6.8-6.7,6.8s-6.8-3-6.8-6.8c0-3.7,3-6.8,6.8-6.8
		C1428.7,278.4,1431.7,281.4,1431.7,285.1z"/>
	<path class="st0" d="M700.1,304.1c0,3.7-3,6.8-6.8,6.8c-3.7,0-6.7-3-6.7-6.8c0-3.7,3-6.8,6.7-6.8
		C697,297.4,700.1,300.4,700.1,304.1z"/>
	<path class="st0" d="M556.7-272.8c0,3.7-3,6.8-6.8,6.8c-3.7,0-6.8-3-6.8-6.8c0-3.7,3-6.7,6.8-6.7
		C553.7-279.5,556.7-276.5,556.7-272.8z"/>
	<circle class="st0" cx="567.8" cy="-272.8" r="6.8"/>
	<path class="st0" d="M770.8-272.7c0,3.7-3,6.8-6.8,6.8c-3.7,0-6.8-3-6.8-6.8c0-3.7,3-6.7,6.8-6.7
		C767.8-279.5,770.8-276.4,770.8-272.7z"/>
	<path class="st0" d="M788.7-272.7c0,3.7-3,6.8-6.8,6.8c-3.7,0-6.8-3-6.8-6.8c0-3.7,3-6.8,6.8-6.8S788.7-276.4,788.7-272.7z"/>
	<path class="st0" d="M806.5-272.9c0,3.7-3,6.8-6.7,6.8s-6.8-3-6.8-6.8c0-3.7,3-6.8,6.8-6.8C803.5-279.7,806.5-276.6,806.5-272.9z"
		/>
	<path class="st0" d="M824.4-272.9c0,3.7-3,6.8-6.8,6.8c-3.7,0-6.7-3-6.7-6.8c0-3.7,3-6.8,6.7-6.8
		C821.4-279.7,824.4-276.6,824.4-272.9z"/>
	<path class="st0" d="M842.2-272.8c0,3.7-3,6.8-6.8,6.8c-3.7,0-6.8-3-6.8-6.8c0-3.7,3-6.7,6.8-6.7
		C839.2-279.6,842.2-276.5,842.2-272.8z"/>
	<path class="st0" d="M860.1-272.8c0,3.7-3,6.8-6.8,6.8c-3.7,0-6.8-3-6.8-6.8c0-3.7,3-6.8,6.8-6.8
		C857-279.6,860.1-276.5,860.1-272.8z"/>
	<path class="st0" d="M877.9-273c0,3.7-3,6.8-6.8,6.8c-3.7,0-6.8-3-6.8-6.8c0-3.7,3-6.7,6.8-6.7C874.9-279.7,877.9-276.7,877.9-273z
		"/>
	<path class="st0" d="M1092.1-272.7c0,3.7-3,6.8-6.8,6.8c-3.7,0-6.8-3-6.8-6.8c0-3.7,3-6.7,6.8-6.7
		C1089-279.4,1092.1-276.4,1092.1-272.7z"/>
	<path class="st0" d="M1109.9-272.7c0,3.7-3,6.8-6.8,6.8c-3.7,0-6.7-3-6.7-6.8c0-3.7,3-6.8,6.7-6.8
		C1106.9-279.4,1109.9-276.4,1109.9-272.7z"/>
	<path class="st0" d="M1127.8-272.6c0,3.7-3,6.8-6.8,6.8c-3.7,0-6.8-3-6.8-6.8c0-3.8,3-6.8,6.8-6.8
		C1124.7-279.4,1127.8-276.4,1127.8-272.6z"/>
	<path class="st0" d="M1145.6-272.6c0,3.7-3,6.8-6.8,6.8c-3.7,0-6.7-3-6.7-6.8c0-3.7,3-6.8,6.7-6.8
		C1142.6-279.4,1145.6-276.3,1145.6-272.6z"/>
	<path class="st0" d="M1163.4-272.8c0,3.7-3,6.8-6.8,6.8c-3.7,0-6.8-3-6.8-6.8c0-3.7,3-6.8,6.8-6.8
		C1160.4-279.6,1163.4-276.5,1163.4-272.8z"/>
	<path class="st0" d="M1181.3-272.8c0,3.7-3,6.8-6.8,6.8c-3.7,0-6.8-3-6.8-6.8c0-3.7,3-6.8,6.8-6.8S1181.3-276.5,1181.3-272.8z"/>
	<path class="st0" d="M1199.1-272.6c0,3.7-3,6.8-6.8,6.8c-3.7,0-6.8-3-6.8-6.8c0-3.7,3-6.8,6.8-6.8
		C1196.1-279.4,1199.1-276.3,1199.1-272.6z"/>
	<path class="st0" d="M1217-272.6c0,3.7-3,6.8-6.8,6.8c-3.7,0-6.7-3-6.7-6.8c0-3.7,3-6.8,6.7-6.8C1214-279.3,1217-276.3,1217-272.6z
		"/>
	<path class="st0" d="M1234.8-272.7c0,3.7-3,6.8-6.8,6.8c-3.7,0-6.8-3-6.8-6.8c0-3.7,3-6.8,6.8-6.8S1234.8-276.5,1234.8-272.7z"/>
	<path class="st0" d="M1252.7-272.7c0,3.7-3,6.8-6.8,6.8c-3.7,0-6.8-3-6.8-6.8c0-3.7,3-6.8,6.8-6.8
		C1249.6-279.5,1252.7-276.5,1252.7-272.7z"/>
	<path class="st0" d="M1270.5-272.7c0,3.7-3,6.8-6.7,6.8c-3.7,0-6.8-3-6.8-6.8c0-3.7,3-6.7,6.8-6.7
		C1267.5-279.4,1270.5-276.4,1270.5-272.7z"/>
	<path class="st0" d="M1288.4-272.6c0,3.7-3,6.8-6.8,6.8c-3.7,0-6.8-3-6.8-6.8c0-3.7,3-6.8,6.8-6.8
		C1285.3-279.4,1288.4-276.4,1288.4-272.6z"/>
	<path class="st0" d="M1306.2-272.9c0,3.7-3,6.8-6.8,6.8c-3.7,0-6.7-3-6.7-6.8c0-3.7,3-6.8,6.7-6.8
		C1303.2-279.6,1306.2-276.6,1306.2-272.9z"/>
	<path class="st0" d="M521-253.7c0,3.7-3,6.8-6.8,6.8c-3.7,0-6.8-3-6.8-6.8c0-3.7,3-6.8,6.8-6.8C518-260.4,521-257.4,521-253.7z"/>
	<path class="st0" d="M538.9-253.7c0,3.7-3,6.8-6.8,6.8c-3.7,0-6.8-3-6.8-6.8c0-3.7,3-6.7,6.8-6.7
		C535.8-260.4,538.9-257.4,538.9-253.7z"/>
	<path class="st0" d="M556.7-253.6c0,3.7-3,6.8-6.8,6.8c-3.7,0-6.8-3-6.8-6.8c0-3.7,3-6.8,6.8-6.8
		C553.7-260.3,556.7-257.3,556.7-253.6z"/>
	<path class="st0" d="M574.5-253.6c0,3.7-3,6.8-6.8,6.8c-3.7,0-6.8-3-6.8-6.8c0-3.7,3-6.7,6.8-6.7S574.5-257.3,574.5-253.6z"/>
	<path class="st0" d="M592.4-253.7c0,3.7-3,6.8-6.8,6.8c-3.7,0-6.8-3-6.8-6.8c0-3.7,3-6.7,6.8-6.7
		C589.4-260.5,592.4-257.5,592.4-253.7z"/>
	<path class="st0" d="M610.2-253.7c0,3.7-3,6.8-6.7,6.8s-6.8-3-6.8-6.8c0-3.7,3-6.8,6.8-6.8C607.2-260.5,610.2-257.4,610.2-253.7z"
		/>
	<path class="st0" d="M628.1-253.5c0,3.7-3,6.8-6.8,6.8c-3.7,0-6.8-3-6.8-6.8c0-3.7,3-6.8,6.8-6.8S628.1-257.2,628.1-253.5z"/>
	<path class="st0" d="M645.9-253.5c0,3.7-3,6.8-6.8,6.8c-3.7,0-6.8-3-6.8-6.8c0-3.7,3-6.8,6.8-6.8
		C642.9-260.3,645.9-257.2,645.9-253.5z"/>
	<path class="st0" d="M663.8-253.7c0,3.7-3,6.8-6.8,6.8c-3.7,0-6.8-3-6.8-6.8c0-3.7,3-6.7,6.8-6.7
		C660.7-260.4,663.8-257.4,663.8-253.7z"/>
	<circle class="st0" cx="674.9" cy="-253.7" r="6.8"/>
	<path class="st0" d="M699.5-253.6c0,3.7-3,6.8-6.8,6.8c-3.7,0-6.7-3-6.7-6.8c0-3.7,3-6.8,6.7-6.8S699.5-257.3,699.5-253.6z"/>
	<path class="st0" d="M717.3-253.6c0,3.7-3,6.8-6.7,6.8s-6.8-3-6.8-6.8c0-3.7,3-6.7,6.8-6.7C714.3-260.4,717.3-257.3,717.3-253.6z"
		/>
	<path class="st0" d="M735.2-253.8c0,3.7-3,6.8-6.8,6.8c-3.7,0-6.8-3-6.8-6.8c0-3.7,3-6.8,6.8-6.8
		C732.1-260.5,735.2-257.5,735.2-253.8z"/>
	<circle class="st0" cx="781.9" cy="-253.5" r="6.8"/>
	<path class="st0" d="M806.5-253.7c0,3.7-3,6.8-6.7,6.8s-6.8-3-6.8-6.8c0-3.7,3-6.8,6.8-6.8C803.5-260.4,806.5-257.4,806.5-253.7z"
		/>
	<path class="st0" d="M824.4-253.7c0,3.7-3,6.8-6.8,6.8c-3.7,0-6.7-3-6.7-6.8c0-3.7,3-6.8,6.7-6.8
		C821.4-260.4,824.4-257.4,824.4-253.7z"/>
	<path class="st0" d="M842.2-253.6c0,3.7-3,6.8-6.8,6.8c-3.7,0-6.8-3-6.8-6.8c0-3.7,3-6.8,6.8-6.8
		C839.2-260.3,842.2-257.3,842.2-253.6z"/>
	<path class="st0" d="M860.1-253.6c0,3.7-3,6.8-6.8,6.8c-3.7,0-6.8-3-6.8-6.8c0-3.7,3-6.7,6.8-6.7
		C857-260.3,860.1-257.3,860.1-253.6z"/>
	<path class="st0" d="M967.1-253.7c0,3.7-3,6.8-6.8,6.8c-3.7,0-6.8-3-6.8-6.8c0-3.7,3-6.8,6.8-6.8S967.1-257.4,967.1-253.7z"/>
	<path class="st0" d="M1056.4-253.3c0,3.7-3,6.8-6.8,6.8c-3.7,0-6.7-3-6.7-6.8c0-3.7,3-6.8,6.7-6.8
		C1053.4-260.1,1056.4-257.1,1056.4-253.3z"/>
	<path class="st0" d="M1074.2-253.3c0,3.7-3,6.8-6.8,6.8c-3.7,0-6.8-3-6.8-6.8c0-3.7,3-6.8,6.8-6.8S1074.2-257.1,1074.2-253.3z"/>
	<path class="st0" d="M1092.1-253.5c0,3.7-3,6.8-6.8,6.8c-3.7,0-6.8-3-6.8-6.8c0-3.7,3-6.8,6.8-6.8
		C1089-260.2,1092.1-257.2,1092.1-253.5z"/>
	<path class="st0" d="M1109.9-253.5c0,3.7-3,6.8-6.8,6.8c-3.7,0-6.7-3-6.7-6.8c0-3.7,3-6.7,6.7-6.7
		C1106.9-260.2,1109.9-257.2,1109.9-253.5z"/>
	<path class="st0" d="M1127.8-253.4c0,3.7-3,6.8-6.8,6.8c-3.7,0-6.8-3-6.8-6.8c0-3.7,3-6.8,6.8-6.8
		C1124.7-260.1,1127.8-257.1,1127.8-253.4z"/>
	<path class="st0" d="M1145.6-253.4c0,3.7-3,6.8-6.8,6.8c-3.7,0-6.7-3-6.7-6.8c0-3.7,3-6.8,6.7-6.8
		C1142.6-260.1,1145.6-257.1,1145.6-253.4z"/>
	<path class="st0" d="M1163.4-253.6c0,3.7-3,6.8-6.8,6.8c-3.7,0-6.8-3-6.8-6.8c0-3.7,3-6.8,6.8-6.8
		C1160.4-260.3,1163.4-257.3,1163.4-253.6z"/>
	<path class="st0" d="M1181.3-253.6c0,3.7-3,6.8-6.8,6.8c-3.7,0-6.8-3-6.8-6.8c0-3.7,3-6.7,6.8-6.7S1181.3-257.3,1181.3-253.6z"/>
	<path class="st0" d="M1199.1-253.4c0,3.7-3,6.8-6.8,6.8c-3.7,0-6.8-3-6.8-6.8c0-3.7,3-6.8,6.8-6.8
		C1196.1-260.1,1199.1-257.1,1199.1-253.4z"/>
	<path class="st0" d="M1217-253.4c0,3.7-3,6.8-6.8,6.8c-3.7,0-6.7-3-6.7-6.8c0-3.7,3-6.8,6.7-6.8C1214-260.1,1217-257.1,1217-253.4z
		"/>
	<path class="st0" d="M1234.8-253.5c0,3.7-3,6.8-6.8,6.8c-3.7,0-6.8-3-6.8-6.8c0-3.7,3-6.8,6.8-6.8S1234.8-257.2,1234.8-253.5z"/>
	<path class="st0" d="M1252.7-253.5c0,3.7-3,6.8-6.8,6.8c-3.7,0-6.8-3-6.8-6.8c0-3.7,3-6.8,6.8-6.8
		C1249.6-260.3,1252.7-257.2,1252.7-253.5z"/>
	<path class="st0" d="M1270.5-253.4c0,3.7-3,6.8-6.7,6.8c-3.7,0-6.8-3-6.8-6.8c0-3.7,3-6.8,6.8-6.8
		C1267.5-260.2,1270.5-257.2,1270.5-253.4z"/>
	<path class="st0" d="M1288.4-253.4c0,3.7-3,6.8-6.8,6.8c-3.7,0-6.8-3-6.8-6.8c0-3.7,3-6.8,6.8-6.8
		C1285.3-260.2,1288.4-257.1,1288.4-253.4z"/>
	<path class="st0" d="M1306.2-253.6c0,3.7-3,6.8-6.8,6.8c-3.7,0-6.7-3-6.7-6.8c0-3.7,3-6.8,6.7-6.8
		C1303.2-260.4,1306.2-257.4,1306.2-253.6z"/>
	<path class="st0" d="M1324.1-253.6c0,3.7-3,6.8-6.8,6.8c-3.7,0-6.7-3-6.7-6.8c0-3.7,3-6.7,6.7-6.7
		C1321-260.4,1324.1-257.3,1324.1-253.6z"/>
	<circle class="st0" cx="496.4" cy="-234.2" r="6.8"/>
	<path class="st0" d="M521-234.4c0,3.7-3,6.8-6.8,6.8c-3.7,0-6.8-3-6.8-6.8c0-3.7,3-6.7,6.8-6.7C518-241.2,521-238.2,521-234.4z"/>
	<path class="st0" d="M556.7-234.3c0,3.7-3,6.8-6.8,6.8c-3.7,0-6.8-3-6.8-6.8c0-3.7,3-6.8,6.8-6.8
		C553.7-241.1,556.7-238.1,556.7-234.3z"/>
	<path class="st0" d="M574.5-234.3c0,3.7-3,6.8-6.7,6.8s-6.8-3-6.8-6.8c0-3.7,3-6.8,6.8-6.8C571.5-241.1,574.5-238,574.5-234.3z"/>
	<path class="st0" d="M592.4-234.5c0,3.7-3,6.8-6.8,6.8c-3.7,0-6.8-3-6.8-6.8c0-3.7,3-6.8,6.8-6.8
		C589.4-241.2,592.4-238.2,592.4-234.5z"/>
	<path class="st0" d="M610.2-234.5c0,3.7-3,6.8-6.7,6.8s-6.8-3-6.8-6.8c0-3.7,3-6.7,6.8-6.7C607.2-241.2,610.2-238.2,610.2-234.5z"
		/>
	<path class="st0" d="M628.1-234.3c0,3.7-3,6.8-6.8,6.8c-3.7,0-6.8-3-6.8-6.8c0-3.7,3-6.7,6.8-6.7S628.1-238,628.1-234.3z"/>
	<path class="st0" d="M645.9-234.3c0,3.7-3,6.8-6.7,6.8s-6.8-3-6.8-6.8c0-3.7,3-6.8,6.8-6.8C642.9-241,645.9-238,645.9-234.3z"/>
	<path class="st0" d="M663.8-234.5c0,3.7-3,6.8-6.7,6.8c-3.7,0-6.8-3-6.8-6.8c0-3.7,3-6.8,6.8-6.8
		C660.7-241.2,663.8-238.2,663.8-234.5z"/>
	<path class="st0" d="M735.2-234.5c0,3.7-3,6.8-6.8,6.8c-3.7,0-6.8-3-6.8-6.8c0-3.7,3-6.8,6.8-6.8
		C732.1-241.3,735.2-238.2,735.2-234.5z"/>
	<path class="st0" d="M788.7-234.2c0,3.7-3,6.8-6.8,6.8c-3.7,0-6.8-3-6.8-6.8c0-3.7,3-6.8,6.8-6.8S788.7-238,788.7-234.2z"/>
	<path class="st0" d="M806.5-234.4c0,3.7-3,6.8-6.8,6.8c-3.7,0-6.8-3-6.8-6.8c0-3.7,3-6.8,6.8-6.8
		C803.5-241.2,806.5-238.2,806.5-234.4z"/>
	<path class="st0" d="M949.3-234.5c0,3.7-3,6.8-6.8,6.8c-3.7,0-6.7-3-6.7-6.8c0-3.7,3-6.8,6.7-6.8
		C946.3-241.2,949.3-238.2,949.3-234.5z"/>
	<path class="st0" d="M967.2-234.5c0,3.7-3,6.8-6.8,6.8c-3.7,0-6.8-3-6.8-6.8c0-3.7,3-6.8,6.8-6.8
		C964.1-241.2,967.2-238.2,967.2-234.5z"/>
	<path class="st0" d="M985-234.4c0,3.7-3,6.8-6.7,6.8s-6.8-3-6.8-6.8c0-3.7,3-6.7,6.8-6.7C982-241.2,985-238.1,985-234.4z"/>
	<circle class="st0" cx="996.1" cy="-234.4" r="6.8"/>
	<path class="st0" d="M1020.7-234.5c0,3.7-3,6.8-6.8,6.8c-3.7,0-6.8-3-6.8-6.8c0-3.7,3-6.7,6.8-6.7
		C1017.7-241.3,1020.7-238.3,1020.7-234.5z"/>
	<path class="st0" d="M1038.5-234.5c0,3.7-3,6.8-6.7,6.8c-3.7,0-6.8-3-6.8-6.8c0-3.7,3-6.8,6.8-6.8
		C1035.5-241.3,1038.5-238.3,1038.5-234.5z"/>
	<path class="st0" d="M1056.4-234.1c0,3.7-3,6.8-6.8,6.8c-3.7,0-6.7-3-6.7-6.8c0-3.7,3-6.8,6.7-6.8
		C1053.4-240.9,1056.4-237.8,1056.4-234.1z"/>
	<path class="st0" d="M1074.2-234.1c0,3.7-3,6.8-6.8,6.8c-3.7,0-6.8-3-6.8-6.8c0-3.7,3-6.8,6.8-6.8S1074.2-237.8,1074.2-234.1z"/>
	<path class="st0" d="M1092.1-234.2c0,3.7-3,6.8-6.8,6.8c-3.7,0-6.8-3-6.8-6.8c0-3.7,3-6.8,6.8-6.8
		C1089-241,1092.1-238,1092.1-234.2z"/>
	<path class="st0" d="M1109.9-234.2c0,3.7-3,6.8-6.8,6.8c-3.7,0-6.8-3-6.8-6.8c0-3.7,3-6.7,6.8-6.7
		C1106.9-241,1109.9-238,1109.9-234.2z"/>
	<path class="st0" d="M1127.8-234.2c0,3.7-3,6.8-6.8,6.8c-3.7,0-6.8-3-6.8-6.8c0-3.7,3-6.8,6.8-6.8
		C1124.7-240.9,1127.8-237.9,1127.8-234.2z"/>
	<path class="st0" d="M1145.6-234.2c0,3.7-3,6.8-6.7,6.8c-3.7,0-6.8-3-6.8-6.8c0-3.7,3-6.7,6.8-6.7
		C1142.6-240.9,1145.6-237.9,1145.6-234.2z"/>
	<path class="st0" d="M1163.4-234.3c0,3.7-3,6.8-6.8,6.8c-3.7,0-6.8-3-6.8-6.8c0-3.7,3-6.8,6.8-6.8
		C1160.4-241.1,1163.4-238.1,1163.4-234.3z"/>
	<path class="st0" d="M1181.3-234.3c0,3.7-3,6.8-6.8,6.8c-3.7,0-6.8-3-6.8-6.8c0-3.7,3-6.7,6.8-6.7
		C1178.3-241.1,1181.3-238.1,1181.3-234.3z"/>
	<path class="st0" d="M1199.1-234.1c0,3.7-3,6.7-6.7,6.7c-3.7,0-6.8-3-6.8-6.7c0-3.7,3-6.8,6.8-6.8
		C1196.1-240.9,1199.1-237.9,1199.1-234.1z"/>
	<circle class="st0" cx="1210.2" cy="-234.1" r="6.8"/>
	<path class="st0" d="M1234.8-234.3c0,3.7-3,6.8-6.8,6.8c-3.7,0-6.8-3-6.8-6.8c0-3.7,3-6.8,6.8-6.8
		C1231.8-241,1234.8-238,1234.8-234.3z"/>
	<path class="st0" d="M1252.7-234.3c0,3.7-3,6.8-6.7,6.8s-6.8-3-6.8-6.8c0-3.7,3-6.8,6.8-6.8C1249.6-241,1252.7-238,1252.7-234.3z"
		/>
	<path class="st0" d="M1270.5-234.2c0,3.7-3,6.8-6.7,6.8c-3.7,0-6.8-3-6.8-6.8c0-3.7,3-6.7,6.8-6.7
		C1267.5-240.9,1270.5-237.9,1270.5-234.2z"/>
	<path class="st0" d="M1324.1-234.4c0,3.7-3,6.8-6.8,6.8c-3.7,0-6.7-3-6.7-6.8c0-3.7,3-6.7,6.7-6.7
		C1321-241.1,1324.1-238.1,1324.1-234.4z"/>
	<path class="st0" d="M1341.9-234.1c0,3.7-3,6.8-6.8,6.8c-3.7,0-6.8-3-6.8-6.8c0-3.7,3-6.8,6.8-6.8
		C1338.9-240.9,1341.9-237.8,1341.9-234.1z"/>
	<path class="st0" d="M556.7-215.1c0,3.7-3,6.8-6.8,6.8c-3.7,0-6.8-3-6.8-6.8c0-3.7,3-6.7,6.8-6.7
		C553.7-221.8,556.7-218.8,556.7-215.1z"/>
	<path class="st0" d="M574.5-215.1c0,3.7-3,6.8-6.8,6.8c-3.7,0-6.8-3-6.8-6.8c0-3.7,3-6.7,6.8-6.7
		C571.5-221.8,574.5-218.8,574.5-215.1z"/>
	<path class="st0" d="M592.4-215.3c0,3.7-3,6.8-6.8,6.8c-3.7,0-6.8-3-6.8-6.8c0-3.7,3-6.7,6.8-6.7C589.4-222,592.4-219,592.4-215.3z
		"/>
	<path class="st0" d="M610.2-215.3c0,3.7-3,6.8-6.7,6.8s-6.8-3-6.8-6.8c0-3.7,3-6.8,6.8-6.8C607.2-222,610.2-219,610.2-215.3z"/>
	<path class="st0" d="M628.1-215c0,3.7-3,6.8-6.8,6.8c-3.7,0-6.8-3-6.8-6.8c0-3.7,3-6.8,6.8-6.8S628.1-218.8,628.1-215z"/>
	<path class="st0" d="M645.9-215c0,3.7-3,6.8-6.8,6.8c-3.7,0-6.8-3-6.8-6.8c0-3.7,3-6.8,6.8-6.8C642.9-221.8,645.9-218.8,645.9-215z
		"/>
	<path class="st0" d="M663.8-215.2c0,3.7-3,6.8-6.8,6.8c-3.7,0-6.8-3-6.8-6.8c0-3.7,3-6.8,6.8-6.8C660.7-222,663.8-219,663.8-215.2z
		"/>
	<path class="st0" d="M699.5-215.2c0,3.7-3,6.8-6.8,6.8c-3.7,0-6.7-3-6.7-6.8c0-3.7,3-6.8,6.7-6.8
		C696.4-221.9,699.5-218.9,699.5-215.2z"/>
	<path class="st0" d="M717.3-215.1c0,3.7-3,6.8-6.7,6.8s-6.8-3-6.8-6.8c0-3.7,3-6.8,6.8-6.8C714.3-221.9,717.3-218.9,717.3-215.1z"
		/>
	<path class="st0" d="M735.2-215.3c0,3.7-3,6.8-6.8,6.8c-3.7,0-6.8-3-6.8-6.8c0-3.7,3-6.7,6.8-6.7C732.1-222,735.2-219,735.2-215.3z
		"/>
	<path class="st0" d="M895.8-215.3c0,3.7-3,6.8-6.7,6.8s-6.8-3-6.8-6.8c0-3.7,3-6.7,6.8-6.7C892.7-222,895.8-219,895.8-215.3z"/>
	<path class="st0" d="M949.3-215.3c0,3.7-3,6.8-6.8,6.8c-3.7,0-6.7-3-6.7-6.8c0-3.7,3-6.7,6.7-6.7C946.3-222,949.3-219,949.3-215.3z
		"/>
	<path class="st0" d="M967.1-215.2c0,3.7-3,6.8-6.8,6.8c-3.7,0-6.8-3-6.8-6.8c0-3.7,3-6.7,6.8-6.7C964.1-222,967.1-219,967.1-215.2z
		"/>
	<path class="st0" d="M985-215.2c0,3.7-3,6.8-6.8,6.8c-3.7,0-6.8-3-6.8-6.8c0-3.7,3-6.7,6.8-6.7S985-218.9,985-215.2z"/>
	<path class="st0" d="M1002.8-215.2c0,3.7-3,6.8-6.8,6.8c-3.7,0-6.7-3-6.7-6.8c0-3.7,3-6.8,6.7-6.8
		C999.8-221.9,1002.8-218.9,1002.8-215.2z"/>
	<path class="st0" d="M1020.7-215.3c0,3.7-3,6.8-6.8,6.8c-3.7,0-6.8-3-6.8-6.8c0-3.7,3-6.8,6.8-6.8S1020.7-219,1020.7-215.3z"/>
	<path class="st0" d="M1038.5-215.3c0,3.7-3,6.8-6.7,6.8c-3.7,0-6.8-3-6.8-6.8c0-3.7,3-6.8,6.8-6.8
		C1035.5-222.1,1038.5-219,1038.5-215.3z"/>
	<path class="st0" d="M1056.4-214.9c0,3.7-3,6.8-6.8,6.8c-3.7,0-6.7-3-6.7-6.8c0-3.7,3-6.7,6.7-6.7
		C1053.4-221.6,1056.4-218.6,1056.4-214.9z"/>
	<path class="st0" d="M1074.2-214.9c0,3.7-3,6.8-6.8,6.8c-3.7,0-6.8-3-6.8-6.8c0-3.7,3-6.8,6.8-6.8
		C1071.2-221.6,1074.2-218.6,1074.2-214.9z"/>
	<path class="st0" d="M1092.1-215c0,3.7-3,6.8-6.8,6.8c-3.7,0-6.8-3-6.8-6.8c0-3.7,3-6.8,6.8-6.8
		C1089-221.8,1092.1-218.7,1092.1-215z"/>
	<path class="st0" d="M1109.9-215c0,3.7-3,6.8-6.8,6.8c-3.7,0-6.7-3-6.7-6.8c0-3.7,3-6.8,6.7-6.8
		C1106.9-221.7,1109.9-218.7,1109.9-215z"/>
	<path class="st0" d="M1127.8-214.9c0,3.7-3,6.7-6.8,6.7c-3.7,0-6.8-3-6.8-6.7c0-3.7,3-6.8,6.8-6.8
		C1124.7-221.7,1127.8-218.7,1127.8-214.9z"/>
	<path class="st0" d="M1145.6-214.9c0,3.7-3,6.8-6.8,6.8c-3.7,0-6.7-3-6.7-6.8c0-3.7,3-6.8,6.7-6.8
		C1142.6-221.7,1145.6-218.7,1145.6-214.9z"/>
	<path class="st0" d="M1163.4-215.1c0,3.7-3,6.8-6.8,6.8c-3.7,0-6.8-3-6.8-6.8c0-3.7,3-6.7,6.8-6.7
		C1160.4-221.9,1163.4-218.8,1163.4-215.1z"/>
	<path class="st0" d="M1181.3-215.1c0,3.7-3,6.8-6.8,6.8c-3.7,0-6.8-3-6.8-6.8c0-3.7,3-6.8,6.8-6.8S1181.3-218.8,1181.3-215.1z"/>
	<path class="st0" d="M1199.1-214.9c0,3.7-3,6.8-6.8,6.8c-3.7,0-6.8-3-6.8-6.8c0-3.7,3-6.7,6.8-6.7
		C1196.1-221.7,1199.1-218.6,1199.1-214.9z"/>
	<path class="st0" d="M1217-214.9c0,3.7-3,6.8-6.8,6.8c-3.7,0-6.7-3-6.7-6.8c0-3.7,3-6.8,6.7-6.8C1214-221.7,1217-218.6,1217-214.9z
		"/>
	<path class="st0" d="M1234.8-215.1c0,3.7-3,6.8-6.8,6.8c-3.7,0-6.8-3-6.8-6.8c0-3.7,3-6.7,6.8-6.7
		C1231.8-221.8,1234.8-218.8,1234.8-215.1z"/>
	<path class="st0" d="M1252.7-215.1c0,3.7-3,6.8-6.8,6.8c-3.7,0-6.8-3-6.8-6.8c0-3.7,3-6.7,6.8-6.7
		C1249.6-221.8,1252.7-218.8,1252.7-215.1z"/>
	<path class="st0" d="M1270.5-215c0,3.7-3,6.8-6.7,6.8c-3.7,0-6.8-3-6.8-6.8c0-3.7,3-6.8,6.8-6.8
		C1267.5-221.7,1270.5-218.7,1270.5-215z"/>
	<path class="st0" d="M1288.4-215c0,3.7-3,6.8-6.8,6.8c-3.7,0-6.8-3-6.8-6.8c0-3.7,3-6.8,6.8-6.8
		C1285.3-221.7,1288.4-218.7,1288.4-215z"/>
	<path class="st0" d="M1341.9-214.9c0,3.7-3,6.8-6.8,6.8c-3.7,0-6.8-3-6.8-6.8c0-3.7,3-6.8,6.8-6.8
		C1338.9-221.6,1341.9-218.6,1341.9-214.9z"/>
	<path class="st0" d="M556.7-195.9c0,3.7-3,6.8-6.8,6.8c-3.7,0-6.8-3-6.8-6.8c0-3.7,3-6.7,6.8-6.7
		C553.7-202.6,556.7-199.6,556.7-195.9z"/>
	<path class="st0" d="M574.5-195.9c0,3.7-3,6.8-6.7,6.8s-6.8-3-6.8-6.8c0-3.7,3-6.8,6.8-6.8C571.5-202.6,574.5-199.6,574.5-195.9z"
		/>
	<path class="st0" d="M592.4-196c0,3.7-3,6.8-6.8,6.8c-3.7,0-6.8-3-6.8-6.8c0-3.7,3-6.7,6.8-6.7C589.4-202.8,592.4-199.8,592.4-196z
		"/>
	<path class="st0" d="M610.2-196c0,3.7-3,6.8-6.7,6.8s-6.8-3-6.8-6.8c0-3.7,3-6.8,6.8-6.8C607.2-202.8,610.2-199.8,610.2-196z"/>
	<circle class="st0" cx="621.3" cy="-195.8" r="6.8"/>
	<path class="st0" d="M645.9-195.8c0,3.7-3,6.8-6.7,6.8s-6.8-3-6.8-6.8c0-3.7,3-6.8,6.8-6.8C642.9-202.6,645.9-199.5,645.9-195.8z"
		/>
	<path class="st0" d="M663.8-196c0,3.7-3,6.8-6.7,6.8c-3.7,0-6.8-3-6.8-6.8c0-3.7,3-6.8,6.8-6.8C660.7-202.8,663.8-199.7,663.8-196z
		"/>
	<path class="st0" d="M681.6-196c0,3.7-3,6.8-6.8,6.8s-6.8-3-6.8-6.8c0-3.7,3-6.8,6.8-6.8S681.6-199.7,681.6-196z"/>
	<path class="st0" d="M699.5-195.9c0,3.7-3,6.7-6.7,6.7s-6.8-3-6.8-6.7s3-6.8,6.8-6.8C696.4-202.7,699.5-199.6,699.5-195.9z"/>
	<path class="st0" d="M717.3-195.9c0,3.7-3,6.8-6.7,6.8s-6.8-3-6.8-6.8c0-3.7,3-6.8,6.8-6.8C714.3-202.7,717.3-199.6,717.3-195.9z"
		/>
	<path class="st0" d="M735.2-196.1c0,3.7-3,6.8-6.8,6.8c-3.7,0-6.8-3-6.8-6.8c0-3.7,3-6.7,6.8-6.7
		C732.1-202.8,735.2-199.8,735.2-196.1z"/>
	<path class="st0" d="M895.8-196c0,3.7-3,6.8-6.7,6.8s-6.8-3-6.8-6.8c0-3.7,3-6.8,6.8-6.8C892.7-202.8,895.8-199.8,895.8-196z"/>
	<path class="st0" d="M931.5-195.8c0,3.7-3,6.8-6.7,6.8s-6.8-3-6.8-6.8c0-3.7,3-6.8,6.8-6.8C928.4-202.6,931.5-199.6,931.5-195.8z"
		/>
	<path class="st0" d="M949.3-196c0,3.7-3,6.8-6.8,6.8c-3.7,0-6.7-3-6.7-6.8c0-3.7,3-6.8,6.7-6.8C946.3-202.8,949.3-199.7,949.3-196z
		"/>
	<path class="st0" d="M967.2-196c0,3.7-3,6.8-6.8,6.8c-3.7,0-6.8-3-6.8-6.8c0-3.7,3-6.8,6.8-6.8C964.1-202.8,967.2-199.7,967.2-196z
		"/>
	<path class="st0" d="M985-195.9c0,3.7-3,6.8-6.7,6.8s-6.8-3-6.8-6.8c0-3.7,3-6.8,6.8-6.8C982-202.7,985-199.7,985-195.9z"/>
	<path class="st0" d="M1002.8-195.9c0,3.7-3,6.8-6.8,6.8c-3.7,0-6.8-3-6.8-6.8c0-3.7,3-6.7,6.8-6.7
		C999.8-202.7,1002.8-199.7,1002.8-195.9z"/>
	<path class="st0" d="M1020.7-196.1c0,3.7-3,6.8-6.8,6.8c-3.7,0-6.8-3-6.8-6.8c0-3.7,3-6.7,6.8-6.7S1020.7-199.8,1020.7-196.1z"/>
	<path class="st0" d="M1038.5-196.1c0,3.7-3,6.8-6.7,6.8c-3.7,0-6.8-3-6.8-6.8c0-3.7,3-6.8,6.8-6.8
		C1035.5-202.8,1038.5-199.8,1038.5-196.1z"/>
	<path class="st0" d="M1056.4-195.6c0,3.7-3,6.8-6.8,6.8c-3.7,0-6.7-3-6.7-6.8c0-3.7,3-6.8,6.7-6.8
		C1053.4-202.4,1056.4-199.4,1056.4-195.6z"/>
	<path class="st0" d="M1074.2-195.6c0,3.7-3,6.8-6.8,6.8c-3.7,0-6.8-3-6.8-6.8c0-3.7,3-6.7,6.8-6.7
		C1071.2-202.4,1074.2-199.4,1074.2-195.6z"/>
	<path class="st0" d="M1092.1-195.8c0,3.7-3,6.8-6.8,6.8c-3.7,0-6.8-3-6.8-6.8c0-3.7,3-6.7,6.8-6.7
		C1089-202.5,1092.1-199.5,1092.1-195.8z"/>
	<path class="st0" d="M1109.9-195.8c0,3.7-3,6.8-6.8,6.8c-3.7,0-6.8-3-6.8-6.8c0-3.7,3-6.7,6.8-6.7
		C1106.9-202.5,1109.9-199.5,1109.9-195.8z"/>
	<path class="st0" d="M1127.8-195.7c0,3.7-3,6.8-6.8,6.8c-3.7,0-6.8-3-6.8-6.8c0-3.7,3-6.8,6.8-6.8
		C1124.7-202.5,1127.8-199.4,1127.8-195.7z"/>
	<path class="st0" d="M1145.6-195.7c0,3.7-3,6.8-6.7,6.8c-3.7,0-6.8-3-6.8-6.8c0-3.7,3-6.8,6.8-6.8
		C1142.6-202.4,1145.6-199.4,1145.6-195.7z"/>
	<path class="st0" d="M1163.4-195.9c0,3.7-3,6.8-6.8,6.8c-3.7,0-6.8-3-6.8-6.8c0-3.7,3-6.8,6.8-6.8
		C1160.4-202.6,1163.4-199.6,1163.4-195.9z"/>
	<path class="st0" d="M1181.3-195.9c0,3.7-3,6.8-6.8,6.8c-3.7,0-6.8-3-6.8-6.8c0-3.7,3-6.8,6.8-6.8
		C1178.3-202.6,1181.3-199.6,1181.3-195.9z"/>
	<path class="st0" d="M1199.1-195.7c0,3.7-3,6.8-6.7,6.8c-3.7,0-6.8-3-6.8-6.8c0-3.7,3-6.8,6.8-6.8
		C1196.1-202.4,1199.1-199.4,1199.1-195.7z"/>
	<path class="st0" d="M1217-195.7c0,3.7-3,6.8-6.8,6.8c-3.7,0-6.8-3-6.8-6.8c0-3.7,3-6.8,6.8-6.8C1214-202.4,1217-199.4,1217-195.7z
		"/>
	<path class="st0" d="M1234.8-195.8c0,3.7-3,6.8-6.8,6.8c-3.7,0-6.8-3-6.8-6.8c0-3.7,3-6.7,6.8-6.7
		C1231.8-202.6,1234.8-199.6,1234.8-195.8z"/>
	<path class="st0" d="M1252.7-195.8c0,3.7-3,6.8-6.7,6.8s-6.8-3-6.8-6.8c0-3.7,3-6.8,6.8-6.8
		C1249.6-202.6,1252.7-199.5,1252.7-195.8z"/>
	<path class="st0" d="M1270.5-195.7c0,3.7-3,6.8-6.7,6.8c-3.7,0-6.8-3-6.8-6.8c0-3.7,3-6.8,6.8-6.8
		C1267.5-202.5,1270.5-199.5,1270.5-195.7z"/>
	<path class="st0" d="M1288.4-195.7c0,3.7-3,6.8-6.8,6.8c-3.7,0-6.8-3-6.8-6.8c0-3.7,3-6.8,6.8-6.8
		C1285.3-202.5,1288.4-199.5,1288.4-195.7z"/>
	<circle class="st0" cx="1299.5" cy="-195.9" r="6.8"/>
	<path class="st0" d="M538.9-176.7c0,3.7-3,6.7-6.8,6.7c-3.7,0-6.8-3-6.8-6.7s3-6.8,6.8-6.8C535.8-183.5,538.9-180.5,538.9-176.7z"
		/>
	<path class="st0" d="M556.7-176.6c0,3.7-3,6.7-6.8,6.7c-3.7,0-6.8-3-6.8-6.7s3-6.8,6.8-6.8C553.7-183.4,556.7-180.4,556.7-176.6z"
		/>
	<path class="st0" d="M574.5-176.6c0,3.7-3,6.8-6.7,6.8s-6.8-3-6.8-6.8c0-3.7,3-6.8,6.8-6.8C571.5-183.4,574.5-180.4,574.5-176.6z"
		/>
	<path class="st0" d="M592.4-176.8c0,3.7-3,6.8-6.8,6.8c-3.7,0-6.8-3-6.8-6.8c0-3.7,3-6.7,6.8-6.7
		C589.4-183.6,592.4-180.5,592.4-176.8z"/>
	<path class="st0" d="M610.2-176.8c0,3.7-3,6.8-6.7,6.8s-6.8-3-6.8-6.8c0-3.7,3-6.8,6.8-6.8C607.2-183.6,610.2-180.5,610.2-176.8z"
		/>
	<path class="st0" d="M628.1-176.6c0,3.7-3,6.8-6.8,6.8c-3.7,0-6.8-3-6.8-6.8c0-3.7,3-6.7,6.8-6.7S628.1-180.3,628.1-176.6z"/>
	<path class="st0" d="M645.9-176.6c0,3.7-3,6.8-6.7,6.8s-6.8-3-6.8-6.8c0-3.7,3-6.7,6.8-6.7C642.9-183.3,645.9-180.3,645.9-176.6z"
		/>
	<path class="st0" d="M663.8-176.8c0,3.7-3,6.8-6.7,6.8c-3.7,0-6.8-3-6.8-6.8c0-3.7,3-6.7,6.8-6.7
		C660.7-183.5,663.8-180.5,663.8-176.8z"/>
	<path class="st0" d="M681.6-176.8c0,3.7-3,6.8-6.8,6.8s-6.8-3-6.8-6.8c0-3.7,3-6.8,6.8-6.8S681.6-180.5,681.6-176.8z"/>
	<path class="st0" d="M699.5-176.7c0,3.7-3,6.8-6.7,6.8s-6.8-3-6.8-6.8c0-3.7,3-6.7,6.8-6.7C696.4-183.4,699.5-180.4,699.5-176.7z"
		/>
	<path class="st0" d="M895.8-176.8c0,3.7-3,6.8-6.7,6.8s-6.8-3-6.8-6.8c0-3.7,3-6.7,6.8-6.7C892.7-183.6,895.8-180.5,895.8-176.8z"
		/>
	<path class="st0" d="M913.6-176.6c0,3.7-3,6.8-6.8,6.8c-3.7,0-6.8-3-6.8-6.8c0-3.7,3-6.8,6.8-6.8
		C910.6-183.4,913.6-180.3,913.6-176.6z"/>
	<path class="st0" d="M931.5-176.6c0,3.7-3,6.8-6.7,6.8s-6.8-3-6.8-6.8s3-6.7,6.8-6.7C928.4-183.4,931.5-180.3,931.5-176.6z"/>
	<path class="st0" d="M949.3-176.8c0,3.7-3,6.8-6.8,6.8c-3.7,0-6.7-3-6.7-6.8c0-3.7,3-6.7,6.7-6.7
		C946.3-183.5,949.3-180.5,949.3-176.8z"/>
	<path class="st0" d="M967.2-176.8c0,3.7-3,6.8-6.8,6.8c-3.7,0-6.8-3-6.8-6.8c0-3.7,3-6.7,6.8-6.7
		C964.1-183.5,967.2-180.5,967.2-176.8z"/>
	<path class="st0" d="M985-176.7c0,3.7-3,6.8-6.7,6.8s-6.8-3-6.8-6.8c0-3.7,3-6.8,6.8-6.8C982-183.5,985-180.4,985-176.7z"/>
	<circle class="st0" cx="996.1" cy="-176.7" r="6.8"/>
	<path class="st0" d="M1020.7-176.8c0,3.7-3,6.8-6.8,6.8c-3.7,0-6.8-3-6.8-6.8c0-3.7,3-6.8,6.8-6.8S1020.7-180.6,1020.7-176.8z"/>
	<path class="st0" d="M1038.5-176.8c0,3.7-3,6.8-6.7,6.8c-3.7,0-6.8-3-6.8-6.8c0-3.7,3-6.8,6.8-6.8
		C1035.5-183.6,1038.5-180.6,1038.5-176.8z"/>
	<path class="st0" d="M1056.4-176.4c0,3.7-3,6.8-6.8,6.8c-3.7,0-6.7-3-6.7-6.8c0-3.7,3-6.8,6.7-6.8
		C1053.4-183.2,1056.4-180.1,1056.4-176.4z"/>
	<path class="st0" d="M1074.2-176.4c0,3.7-3,6.8-6.8,6.8c-3.7,0-6.8-3-6.8-6.8c0-3.7,3-6.8,6.8-6.8S1074.2-180.1,1074.2-176.4z"/>
	<path class="st0" d="M1092.1-176.5c0,3.7-3,6.8-6.8,6.8c-3.7,0-6.8-3-6.8-6.8c0-3.7,3-6.7,6.8-6.7
		C1089-183.3,1092.1-180.3,1092.1-176.5z"/>
	<path class="st0" d="M1109.9-176.5c0,3.7-3,6.8-6.8,6.8c-3.7,0-6.8-3-6.8-6.8c0-3.7,3-6.8,6.8-6.8
		C1106.9-183.3,1109.9-180.3,1109.9-176.5z"/>
	<path class="st0" d="M1127.8-176.5c0,3.7-3,6.8-6.8,6.8c-3.7,0-6.8-3-6.8-6.8c0-3.7,3-6.7,6.8-6.7
		C1124.7-183.2,1127.8-180.2,1127.8-176.5z"/>
	<path class="st0" d="M1145.6-176.5c0,3.7-3,6.8-6.7,6.8c-3.7,0-6.8-3-6.8-6.8c0-3.7,3-6.8,6.8-6.8
		C1142.6-183.2,1145.6-180.2,1145.6-176.5z"/>
	<path class="st0" d="M1163.4-176.7c0,3.7-3,6.8-6.8,6.8c-3.7,0-6.8-3-6.8-6.8c0-3.7,3-6.8,6.8-6.8
		C1160.4-183.4,1163.4-180.4,1163.4-176.7z"/>
	<path class="st0" d="M1181.3-176.6c0,3.7-3,6.8-6.8,6.8c-3.7,0-6.8-3-6.8-6.8c0-3.7,3-6.8,6.8-6.8
		C1178.3-183.4,1181.3-180.4,1181.3-176.6z"/>
	<path class="st0" d="M1199.1-176.5c0,3.7-3,6.8-6.7,6.8c-3.7,0-6.8-3-6.8-6.8c0-3.7,3-6.7,6.8-6.7
		C1196.1-183.2,1199.1-180.2,1199.1-176.5z"/>
	<path class="st0" d="M1217-176.4c0,3.7-3,6.8-6.8,6.8c-3.7,0-6.8-3-6.8-6.8c0-3.7,3-6.8,6.8-6.8C1214-183.2,1217-180.2,1217-176.4z
		"/>
	<path class="st0" d="M1234.8-176.6c0,3.7-3,6.8-6.8,6.8c-3.7,0-6.8-3-6.8-6.8c0-3.7,3-6.8,6.8-6.8
		C1231.8-183.3,1234.8-180.3,1234.8-176.6z"/>
	<path class="st0" d="M1252.7-176.6c0,3.7-3,6.8-6.7,6.8s-6.8-3-6.8-6.8c0-3.7,3-6.8,6.8-6.8
		C1249.6-183.3,1252.7-180.3,1252.7-176.6z"/>
	<path class="st0" d="M1270.5-176.5c0,3.7-3,6.8-6.7,6.8c-3.7,0-6.8-3-6.8-6.8c0-3.7,3-6.7,6.8-6.7
		C1267.5-183.3,1270.5-180.2,1270.5-176.5z"/>
	<path class="st0" d="M1288.4-176.5c0,3.7-3,6.8-6.8,6.8c-3.7,0-6.8-3-6.8-6.8c0-3.7,3-6.8,6.8-6.8
		C1285.3-183.2,1288.4-180.2,1288.4-176.5z"/>
	<path class="st0" d="M1306.2-176.7c0,3.7-3,6.7-6.8,6.7c-3.7,0-6.8-3-6.8-6.7s3-6.8,6.8-6.8S1306.2-180.4,1306.2-176.7z"/>
	<path class="st0" d="M1324.1-176.7c0,3.7-3,6.8-6.8,6.8c-3.7,0-6.7-3-6.7-6.8c0-3.7,3-6.8,6.7-6.8
		C1321-183.5,1324.1-180.4,1324.1-176.7z"/>
	<path class="st0" d="M521-157.5c0,3.7-3,6.8-6.8,6.8c-3.7,0-6.8-3-6.8-6.8c0-3.7,3-6.8,6.8-6.8C518-164.3,521-161.2,521-157.5z"/>
	<path class="st0" d="M538.9-157.5c0,3.7-3,6.8-6.8,6.8c-3.7,0-6.8-3-6.8-6.8c0-3.7,3-6.8,6.8-6.8
		C535.8-164.3,538.9-161.2,538.9-157.5z"/>
	<path class="st0" d="M556.7-157.4c0,3.7-3,6.8-6.8,6.8c-3.7,0-6.8-3-6.8-6.8c0-3.7,3-6.8,6.8-6.8
		C553.7-164.2,556.7-161.1,556.7-157.4z"/>
	<path class="st0" d="M574.5-157.4c0,3.7-3,6.7-6.8,6.7c-3.7,0-6.8-3-6.8-6.7s3-6.8,6.8-6.8S574.5-161.1,574.5-157.4z"/>
	<path class="st0" d="M592.4-157.6c0,3.7-3,6.8-6.8,6.8c-3.7,0-6.8-3-6.8-6.8c0-3.7,3-6.8,6.8-6.8
		C589.4-164.3,592.4-161.3,592.4-157.6z"/>
	<path class="st0" d="M610.2-157.6c0,3.7-3,6.8-6.8,6.8c-3.7,0-6.7-3-6.7-6.8c0-3.7,3-6.8,6.7-6.8
		C607.2-164.3,610.2-161.3,610.2-157.6z"/>
	<path class="st0" d="M628.1-157.4c0,3.7-3,6.8-6.8,6.8c-3.7,0-6.8-3-6.8-6.8c0-3.7,3-6.7,6.8-6.7
		C625.1-164.1,628.1-161.1,628.1-157.4z"/>
	<path class="st0" d="M645.9-157.3c0,3.7-3,6.8-6.8,6.8c-3.7,0-6.8-3-6.8-6.8c0-3.7,3-6.8,6.8-6.8
		C642.9-164.1,645.9-161.1,645.9-157.3z"/>
	<path class="st0" d="M663.8-157.5c0,3.7-3,6.8-6.8,6.8c-3.7,0-6.7-3-6.7-6.8c0-3.7,3-6.7,6.7-6.7
		C660.7-164.3,663.8-161.3,663.8-157.5z"/>
	<path class="st0" d="M681.6-157.5c0,3.7-3,6.8-6.8,6.8c-3.7,0-6.8-3-6.8-6.8c0-3.7,3-6.8,6.8-6.8S681.6-161.3,681.6-157.5z"/>
	<path class="st0" d="M895.8-157.6c0,3.7-3,6.8-6.7,6.8s-6.8-3-6.8-6.8c0-3.7,3-6.8,6.8-6.8C892.7-164.3,895.8-161.3,895.8-157.6z"
		/>
	<path class="st0" d="M913.6-157.4c0,3.7-3,6.8-6.8,6.8c-3.7,0-6.8-3-6.8-6.8c0-3.7,3-6.8,6.8-6.8
		C910.6-164.1,913.6-161.1,913.6-157.4z"/>
	<path class="st0" d="M931.5-157.4c0,3.7-3,6.8-6.8,6.8c-3.7,0-6.8-3-6.8-6.8c0-3.7,3-6.7,6.8-6.7
		C928.4-164.1,931.5-161.1,931.5-157.4z"/>
	<path class="st0" d="M949.3-157.6c0,3.7-3,6.8-6.8,6.8c-3.7,0-6.8-3-6.8-6.8c0-3.7,3-6.8,6.8-6.8
		C946.3-164.3,949.3-161.3,949.3-157.6z"/>
	<path class="st0" d="M967.1-157.6c0,3.7-3,6.8-6.7,6.8s-6.7-3-6.7-6.8c0-3.7,3-6.7,6.7-6.7S967.1-161.3,967.1-157.6z"/>
	<path class="st0" d="M985-157.5c0,3.7-3,6.8-6.8,6.8c-3.7,0-6.8-3-6.8-6.8c0-3.7,3-6.7,6.8-6.7S985-161.2,985-157.5z"/>
	<path class="st0" d="M1002.8-157.5c0,3.7-3,6.8-6.8,6.8c-3.7,0-6.8-3-6.8-6.8c0-3.7,3-6.7,6.8-6.7S1002.8-161.2,1002.8-157.5z"/>
	<path class="st0" d="M1038.5-157.6c0,3.7-3,6.8-6.8,6.8c-3.7,0-6.7-3-6.7-6.8c0-3.7,3-6.8,6.7-6.8
		C1035.5-164.4,1038.5-161.3,1038.5-157.6z"/>
	<path class="st0" d="M1056.4-157.2c0,3.7-3,6.7-6.8,6.7c-3.7,0-6.8-3-6.8-6.7s3-6.7,6.8-6.7
		C1053.4-163.9,1056.4-160.9,1056.4-157.2z"/>
	<path class="st0" d="M1074.2-157.2c0,3.7-3,6.8-6.8,6.8c-3.7,0-6.8-3-6.8-6.8c0-3.7,3-6.8,6.8-6.8
		C1071.2-163.9,1074.2-160.9,1074.2-157.2z"/>
	<path class="st0" d="M1092.1-157.3c0,3.7-3,6.8-6.8,6.8c-3.7,0-6.8-3-6.8-6.8c0-3.7,3-6.7,6.8-6.7
		C1089-164.1,1092.1-161,1092.1-157.3z"/>
	<path class="st0" d="M1109.9-157.3c0,3.7-3,6.8-6.8,6.8c-3.7,0-6.8-3-6.8-6.8c0-3.7,3-6.7,6.8-6.7
		C1106.9-164.1,1109.9-161,1109.9-157.3z"/>
	<path class="st0" d="M1127.8-157.2c0,3.7-3,6.8-6.8,6.8c-3.7,0-6.8-3-6.8-6.8c0-3.7,3-6.8,6.8-6.8
		C1124.7-164,1127.8-161,1127.8-157.2z"/>
	<path class="st0" d="M1145.6-157.2c0,3.7-3,6.8-6.8,6.8c-3.7,0-6.7-3-6.7-6.8c0-3.7,3-6.8,6.7-6.8
		C1142.6-164,1145.6-161,1145.6-157.2z"/>
	<path class="st0" d="M1163.4-157.4c0,3.7-3,6.8-6.8,6.8c-3.7,0-6.8-3-6.8-6.8c0-3.7,3-6.8,6.8-6.8
		C1160.4-164.2,1163.4-161.2,1163.4-157.4z"/>
	<path class="st0" d="M1181.3-157.4c0,3.7-3,6.8-6.8,6.8c-3.7,0-6.8-3-6.8-6.8c0-3.7,3-6.8,6.8-6.8S1181.3-161.1,1181.3-157.4z"/>
	<path class="st0" d="M1199.1-157.2c0,3.7-3,6.8-6.8,6.8c-3.7,0-6.8-3-6.8-6.8c0-3.7,3-6.8,6.8-6.8
		C1196.1-164,1199.1-160.9,1199.1-157.2z"/>
	<path class="st0" d="M1217-157.2c0,3.7-3,6.8-6.8,6.8c-3.7,0-6.8-3-6.8-6.8c0-3.7,3-6.8,6.8-6.8C1214-164,1217-160.9,1217-157.2z"
		/>
	<path class="st0" d="M1234.8-157.4c0,3.7-3,6.8-6.8,6.8c-3.7,0-6.8-3-6.8-6.8c0-3.7,3-6.7,6.8-6.7
		C1231.8-164.1,1234.8-161.1,1234.8-157.4z"/>
	<path class="st0" d="M1252.7-157.4c0,3.7-3,6.8-6.8,6.8c-3.7,0-6.8-3-6.8-6.8c0-3.7,3-6.8,6.8-6.8
		C1249.6-164.1,1252.7-161.1,1252.7-157.4z"/>
	<path class="st0" d="M1270.5-157.3c0,3.7-3,6.7-6.7,6.7c-3.7,0-6.8-3-6.8-6.7s3-6.8,6.8-6.8C1267.5-164,1270.5-161,1270.5-157.3z"
		/>
	<path class="st0" d="M1288.4-157.3c0,3.7-3,6.8-6.8,6.8c-3.7,0-6.8-3-6.8-6.8c0-3.7,3-6.8,6.8-6.8
		C1285.3-164,1288.4-161,1288.4-157.3z"/>
	<path class="st0" d="M1306.2-157.5c0,3.7-3,6.8-6.8,6.8c-3.7,0-6.8-3-6.8-6.8c0-3.7,3-6.7,6.8-6.7S1306.2-161.2,1306.2-157.5z"/>
	<path class="st0" d="M521-138.3c0,3.7-3,6.8-6.8,6.8c-3.7,0-6.8-3-6.8-6.8c0-3.7,3-6.7,6.8-6.7C518-145,521-142,521-138.3z"/>
	<path class="st0" d="M538.9-138.3c0,3.7-3,6.8-6.8,6.8c-3.7,0-6.8-3-6.8-6.8c0-3.7,3-6.7,6.8-6.7C535.8-145,538.9-142,538.9-138.3z
		"/>
	<path class="st0" d="M556.7-138.2c0,3.7-3,6.8-6.8,6.8c-3.7,0-6.8-3-6.8-6.8c0-3.7,3-6.7,6.8-6.7
		C553.7-144.9,556.7-141.9,556.7-138.2z"/>
	<path class="st0" d="M574.5-138.2c0,3.7-3,6.8-6.7,6.8s-6.8-3-6.8-6.8c0-3.7,3-6.7,6.8-6.7C571.5-144.9,574.5-141.9,574.5-138.2z"
		/>
	<path class="st0" d="M592.4-138.3c0,3.7-3,6.8-6.8,6.8c-3.7,0-6.8-3-6.8-6.8c0-3.7,3-6.7,6.8-6.7
		C589.4-145.1,592.4-142.1,592.4-138.3z"/>
	<path class="st0" d="M610.2-138.3c0,3.7-3,6.7-6.7,6.7s-6.8-3-6.8-6.7s3-6.8,6.8-6.8C607.2-145.1,610.2-142.1,610.2-138.3z"/>
	<path class="st0" d="M628.1-138.1c0,3.7-3,6.8-6.8,6.8c-3.7,0-6.8-3-6.8-6.8c0-3.7,3-6.8,6.8-6.8
		C625.1-144.9,628.1-141.9,628.1-138.1z"/>
	<path class="st0" d="M645.9-138.1c0,3.7-3,6.8-6.7,6.8s-6.8-3-6.8-6.8c0-3.7,3-6.8,6.8-6.8C642.9-144.9,645.9-141.8,645.9-138.1z"
		/>
	<path class="st0" d="M663.8-138.3c0,3.7-3,6.8-6.7,6.8c-3.7,0-6.8-3-6.8-6.8c0-3.7,3-6.8,6.8-6.8
		C660.7-145.1,663.8-142,663.8-138.3z"/>
	<path class="st0" d="M877.9-138.4c0,3.7-3,6.8-6.8,6.8c-3.7,0-6.8-3-6.8-6.8c0-3.7,3-6.8,6.8-6.8
		C874.9-145.1,877.9-142.1,877.9-138.4z"/>
	<path class="st0" d="M895.8-138.3c0,3.7-3,6.8-6.7,6.8s-6.8-3-6.8-6.8c0-3.7,3-6.8,6.8-6.8C892.7-145.1,895.8-142.1,895.8-138.3z"
		/>
	<path class="st0" d="M967.2-138.3c0,3.7-3,6.8-6.8,6.8c-3.7,0-6.8-3-6.8-6.8c0-3.7,3-6.8,6.8-6.8
		C964.1-145.1,967.2-142,967.2-138.3z"/>
	<path class="st0" d="M985-138.3c0,3.7-3,6.8-6.7,6.8s-6.8-3-6.8-6.8c0-3.7,3-6.8,6.8-6.8C982-145,985-142,985-138.3z"/>
	<circle class="st0" cx="996.1" cy="-138.3" r="6.8"/>
	<path class="st0" d="M1020.7-138.4c0,3.7-3,6.8-6.8,6.8c-3.7,0-6.8-3-6.8-6.8c0-3.7,3-6.8,6.8-6.8
		C1017.7-145.1,1020.7-142.1,1020.7-138.4z"/>
	<path class="st0" d="M1038.5-138.4c0,3.7-3,6.8-6.7,6.8c-3.7,0-6.8-3-6.8-6.8c0-3.7,3-6.8,6.8-6.8
		C1035.5-145.1,1038.5-142.1,1038.5-138.4z"/>
	<path class="st0" d="M1056.4-138c0,3.7-3,6.8-6.8,6.8c-3.7,0-6.7-3-6.7-6.8c0-3.7,3-6.8,6.7-6.8
		C1053.4-144.7,1056.4-141.7,1056.4-138z"/>
	<path class="st0" d="M1074.2-138c0,3.7-3,6.8-6.8,6.8c-3.7,0-6.8-3-6.8-6.8c0-3.7,3-6.8,6.8-6.8
		C1071.2-144.7,1074.2-141.7,1074.2-138z"/>
	<path class="st0" d="M1092.1-138.1c0,3.7-3,6.8-6.8,6.8c-3.7,0-6.8-3-6.8-6.8c0-3.7,3-6.8,6.8-6.8
		C1089-144.8,1092.1-141.8,1092.1-138.1z"/>
	<path class="st0" d="M1109.9-138.1c0,3.7-3,6.8-6.8,6.8c-3.7,0-6.8-3-6.8-6.8c0-3.7,3-6.7,6.8-6.7
		C1106.9-144.8,1109.9-141.8,1109.9-138.1z"/>
	<path class="st0" d="M1127.8-138c0,3.7-3,6.8-6.8,6.8c-3.7,0-6.8-3-6.8-6.8c0-3.7,3-6.8,6.8-6.8
		C1124.7-144.8,1127.8-141.7,1127.8-138z"/>
	<path class="st0" d="M1145.6-138c0,3.7-3,6.8-6.7,6.8c-3.7,0-6.8-3-6.8-6.8c0-3.7,3-6.8,6.8-6.8
		C1142.6-144.8,1145.6-141.7,1145.6-138z"/>
	<path class="st0" d="M1163.4-138.2c0,3.7-3,6.8-6.8,6.8c-3.7,0-6.8-3-6.8-6.8s3-6.8,6.8-6.8
		C1160.4-144.9,1163.4-141.9,1163.4-138.2z"/>
	<path class="st0" d="M1181.3-138.2c0,3.7-3,6.8-6.8,6.8c-3.7,0-6.8-3-6.8-6.8c0-3.7,3-6.8,6.8-6.8
		C1178.3-144.9,1181.3-141.9,1181.3-138.2z"/>
	<path class="st0" d="M1199.1-138c0,3.7-3,6.8-6.7,6.8c-3.7,0-6.8-3-6.8-6.8c0-3.7,3-6.7,6.8-6.7
		C1196.1-144.7,1199.1-141.7,1199.1-138z"/>
	<path class="st0" d="M1217-138c0,3.7-3,6.8-6.8,6.8c-3.7,0-6.8-3-6.8-6.8c0-3.7,3-6.8,6.8-6.8C1214-144.7,1217-141.7,1217-138z"/>
	<path class="st0" d="M1234.8-138.1c0,3.7-3,6.8-6.8,6.8c-3.7,0-6.8-3-6.8-6.8c0-3.7,3-6.8,6.8-6.8
		C1231.8-144.9,1234.8-141.9,1234.8-138.1z"/>
	<path class="st0" d="M1252.7-138.1c0,3.7-3,6.8-6.7,6.8s-6.8-3-6.8-6.8c0-3.7,3-6.7,6.8-6.7
		C1249.6-144.9,1252.7-141.9,1252.7-138.1z"/>
	<path class="st0" d="M1270.5-138c0,3.7-3,6.8-6.7,6.8c-3.7,0-6.8-3-6.8-6.8c0-3.7,3-6.7,6.8-6.7
		C1267.5-144.8,1270.5-141.8,1270.5-138z"/>
	<path class="st0" d="M1288.4-138c0,3.7-3,6.7-6.8,6.7c-3.7,0-6.8-3-6.8-6.7s3-6.8,6.8-6.8C1285.3-144.8,1288.4-141.8,1288.4-138z"
		/>
	<path class="st0" d="M1306.2-138.2c0,3.7-3,6.8-6.8,6.8c-3.7,0-6.8-3-6.8-6.8c0-3.7,3-6.8,6.8-6.8S1306.2-142,1306.2-138.2z"/>
	<path class="st0" d="M521-119.1c0,3.7-3,6.8-6.8,6.8c-3.7,0-6.8-3-6.8-6.8c0-3.7,3-6.7,6.8-6.7C518-125.8,521-122.8,521-119.1z"/>
	<path class="st0" d="M538.9-119c0,3.7-3,6.8-6.8,6.8c-3.7,0-6.8-3-6.8-6.8c0-3.7,3-6.8,6.8-6.8C535.8-125.8,538.9-122.8,538.9-119z
		"/>
	<circle class="st0" cx="549.9" cy="-118.9" r="6.8"/>
	<path class="st0" d="M574.5-118.9c0,3.7-3,6.8-6.8,6.8c-3.7,0-6.8-3-6.8-6.8c0-3.7,3-6.8,6.8-6.8S574.5-122.7,574.5-118.9z"/>
	<path class="st0" d="M592.4-119.1c0,3.7-3,6.8-6.8,6.8c-3.7,0-6.8-3-6.8-6.8c0-3.7,3-6.7,6.8-6.7
		C589.4-125.9,592.4-122.8,592.4-119.1z"/>
	<path class="st0" d="M610.2-119.1c0,3.7-3,6.8-6.8,6.8c-3.7,0-6.7-3-6.7-6.8c0-3.7,3-6.8,6.7-6.8
		C607.2-125.9,610.2-122.8,610.2-119.1z"/>
	<path class="st0" d="M628.1-118.9c0,3.7-3,6.8-6.8,6.8c-3.7,0-6.8-3-6.8-6.8c0-3.7,3-6.7,6.8-6.7
		C625.1-125.6,628.1-122.6,628.1-118.9z"/>
	<path class="st0" d="M645.9-118.9c0,3.7-3,6.7-6.8,6.7c-3.7,0-6.8-3-6.8-6.7s3-6.8,6.8-6.8C642.9-125.6,645.9-122.6,645.9-118.9z"
		/>
	<path class="st0" d="M895.8-119.1c0,3.7-3,6.8-6.7,6.8s-6.8-3-6.8-6.8c0-3.7,3-6.7,6.8-6.7C892.7-125.9,895.8-122.8,895.8-119.1z"
		/>
	<path class="st0" d="M913.6-118.9c0,3.7-3,6.8-6.8,6.8c-3.7,0-6.8-3-6.8-6.8c0-3.7,3-6.8,6.8-6.8
		C910.6-125.7,913.6-122.6,913.6-118.9z"/>
	<path class="st0" d="M931.5-118.9c0,3.7-3,6.8-6.8,6.8c-3.7,0-6.8-3-6.8-6.8c0-3.7,3-6.8,6.8-6.8
		C928.4-125.7,931.5-122.6,931.5-118.9z"/>
	<path class="st0" d="M1020.7-119.1c0,3.7-3,6.8-6.7,6.8s-6.8-3-6.8-6.8c0-3.7,3-6.8,6.8-6.8
		C1017.7-125.9,1020.7-122.9,1020.7-119.1z"/>
	<path class="st0" d="M1038.5-119.2c0,3.7-3,6.8-6.8,6.8c-3.7,0-6.7-3-6.7-6.8c0-3.7,3-6.8,6.7-6.8
		C1035.5-125.9,1038.5-122.9,1038.5-119.2z"/>
	<path class="st0" d="M1056.4-118.7c0,3.7-3,6.8-6.8,6.8c-3.7,0-6.8-3-6.8-6.8c0-3.7,3-6.8,6.8-6.8
		C1053.4-125.5,1056.4-122.5,1056.4-118.7z"/>
	<path class="st0" d="M1074.2-118.7c0,3.7-3,6.8-6.8,6.8c-3.7,0-6.8-3-6.8-6.8c0-3.7,3-6.8,6.8-6.8S1074.2-122.4,1074.2-118.7z"/>
	<path class="st0" d="M1092.1-118.8c0,3.7-3,6.8-6.8,6.8c-3.7,0-6.8-3-6.8-6.8c0-3.7,3-6.8,6.8-6.8
		C1089-125.6,1092.1-122.6,1092.1-118.8z"/>
	<path class="st0" d="M1109.9-118.8c0,3.7-3,6.8-6.8,6.8c-3.7,0-6.8-3-6.8-6.8c0-3.7,3-6.7,6.8-6.7
		C1106.9-125.6,1109.9-122.6,1109.9-118.8z"/>
	<path class="st0" d="M1127.8-118.8c0,3.7-3,6.8-6.8,6.8c-3.7,0-6.8-3-6.8-6.8c0-3.7,3-6.8,6.8-6.8
		C1124.7-125.5,1127.8-122.5,1127.8-118.8z"/>
	<path class="st0" d="M1145.6-118.8c0,3.7-3,6.8-6.8,6.8c-3.7,0-6.7-3-6.7-6.8c0-3.7,3-6.7,6.7-6.7
		C1142.6-125.5,1145.6-122.5,1145.6-118.8z"/>
	<path class="st0" d="M1163.4-119c0,3.7-3,6.8-6.8,6.8c-3.7,0-6.8-3-6.8-6.8c0-3.7,3-6.8,6.8-6.8
		C1160.4-125.7,1163.4-122.7,1163.4-119z"/>
	<circle class="st0" cx="1174.5" cy="-119" r="6.8"/>
	<path class="st0" d="M1199.1-118.8c0,3.7-3,6.8-6.8,6.8c-3.7,0-6.8-3-6.8-6.8c0-3.7,3-6.8,6.8-6.8
		C1196.1-125.5,1199.1-122.5,1199.1-118.8z"/>
	<path class="st0" d="M1217-118.8c0,3.7-3,6.8-6.8,6.8c-3.7,0-6.8-3-6.8-6.8c0-3.7,3-6.7,6.8-6.7C1214-125.5,1217-122.5,1217-118.8z
		"/>
	<path class="st0" d="M1234.8-118.9c0,3.7-3,6.8-6.8,6.8c-3.7,0-6.8-3-6.8-6.8c0-3.7,3-6.7,6.8-6.7
		C1231.8-125.7,1234.8-122.6,1234.8-118.9z"/>
	<path class="st0" d="M1252.7-118.9c0,3.7-3,6.8-6.8,6.8c-3.7,0-6.8-3-6.8-6.8c0-3.7,3-6.8,6.8-6.8
		C1249.6-125.7,1252.7-122.6,1252.7-118.9z"/>
	<path class="st0" d="M1270.5-118.8c0,3.7-3,6.8-6.7,6.8c-3.7,0-6.8-3-6.8-6.8c0-3.7,3-6.8,6.8-6.8
		C1267.5-125.6,1270.5-122.5,1270.5-118.8z"/>
	<path class="st0" d="M1288.4-118.8c0,3.7-3,6.8-6.8,6.8c-3.7,0-6.8-3-6.8-6.8c0-3.7,3-6.8,6.8-6.8
		C1285.3-125.6,1288.4-122.5,1288.4-118.8z"/>
	<path class="st0" d="M1306.2-119c0,3.7-3,6.8-6.8,6.8c-3.7,0-6.8-3-6.8-6.8c0-3.7,3-6.8,6.8-6.8S1306.2-122.7,1306.2-119z"/>
	<path class="st0" d="M521-99.8c0,3.7-3,6.8-6.8,6.8c-3.7,0-6.8-3-6.8-6.8c0-3.7,3-6.7,6.8-6.7C518-106.6,521-103.6,521-99.8z"/>
	<path class="st0" d="M538.9-99.8c0,3.7-3,6.8-6.8,6.8c-3.7,0-6.8-3-6.8-6.8c0-3.7,3-6.8,6.8-6.8
		C535.8-106.6,538.9-103.5,538.9-99.8z"/>
	<path class="st0" d="M556.7-99.7c0,3.7-3,6.8-6.8,6.8c-3.7,0-6.8-3-6.8-6.8c0-3.7,3-6.8,6.8-6.8
		C553.7-106.5,556.7-103.4,556.7-99.7z"/>
	<path class="st0" d="M574.5-99.7c0,3.7-3,6.8-6.8,6.8c-3.7,0-6.8-3-6.8-6.8c0-3.7,3-6.8,6.8-6.8S574.5-103.4,574.5-99.7z"/>
	<path class="st0" d="M592.4-99.9c0,3.7-3,6.8-6.8,6.8c-3.7,0-6.8-3-6.8-6.8c0-3.7,3-6.8,6.8-6.8
		C589.4-106.6,592.4-103.6,592.4-99.9z"/>
	<path class="st0" d="M610.2-99.9c0,3.7-3,6.8-6.8,6.8c-3.7,0-6.7-3-6.7-6.8c0-3.7,3-6.7,6.7-6.7
		C607.2-106.6,610.2-103.6,610.2-99.9z"/>
	<path class="st0" d="M628.1-99.7c0,3.7-3,6.8-6.8,6.8c-3.7,0-6.8-3-6.8-6.8c0-3.7,3-6.8,6.8-6.8
		C625.1-106.4,628.1-103.4,628.1-99.7z"/>
	<path class="st0" d="M877.9-99.9c0,3.7-3,6.7-6.8,6.7c-3.7,0-6.7-3-6.7-6.7s3-6.8,6.7-6.8C874.9-106.6,877.9-103.6,877.9-99.9z"/>
	<path class="st0" d="M895.8-99.9c0,3.7-3,6.8-6.7,6.8s-6.8-3-6.8-6.8c0-3.7,3-6.8,6.8-6.8C892.7-106.6,895.8-103.6,895.8-99.9z"/>
	<path class="st0" d="M913.6-99.7c0,3.7-3,6.8-6.8,6.8c-3.7,0-6.8-3-6.8-6.8c0-3.7,3-6.7,6.8-6.7
		C910.6-106.4,913.6-103.4,913.6-99.7z"/>
	<path class="st0" d="M931.5-99.7c0,3.7-3,6.8-6.8,6.8c-3.7,0-6.8-3-6.8-6.8c0-3.7,3-6.8,6.8-6.8
		C928.4-106.4,931.5-103.4,931.5-99.7z"/>
	<path class="st0" d="M949.3-99.9c0,3.7-3,6.8-6.8,6.8c-3.7,0-6.8-3-6.8-6.8c0-3.7,3-6.7,6.8-6.7
		C946.3-106.6,949.3-103.6,949.3-99.9z"/>
	<path class="st0" d="M967.1-99.9c0,3.7-3,6.8-6.7,6.8s-6.7-3-6.7-6.8c0-3.7,3-6.7,6.7-6.7C964.1-106.6,967.1-103.6,967.1-99.9z"/>
	<path class="st0" d="M985-99.8c0,3.7-3,6.8-6.8,6.8c-3.7,0-6.8-3-6.8-6.8c0-3.7,3-6.7,6.8-6.7C982-106.6,985-103.5,985-99.8z"/>
	<path class="st0" d="M1002.8-99.8c0,3.7-3,6.8-6.8,6.8c-3.7,0-6.8-3-6.8-6.8c0-3.7,3-6.7,6.8-6.7S1002.8-103.5,1002.8-99.8z"/>
	<path class="st0" d="M1020.7-99.9c0,3.7-3,6.8-6.7,6.8s-6.8-3-6.8-6.8c0-3.7,3-6.8,6.8-6.8C1017.7-106.7,1020.7-103.6,1020.7-99.9z
		"/>
	<path class="st0" d="M1038.5-99.9c0,3.7-3,6.8-6.8,6.8c-3.7,0-6.7-3-6.7-6.8c0-3.7,3-6.8,6.7-6.8
		C1035.5-106.7,1038.5-103.7,1038.5-99.9z"/>
	<path class="st0" d="M1056.4-99.5c0,3.7-3,6.7-6.8,6.7c-3.7,0-6.8-3-6.8-6.7s3-6.8,6.8-6.8C1053.4-106.2,1056.4-103.2,1056.4-99.5z
		"/>
	<path class="st0" d="M1074.2-99.5c0,3.7-3,6.8-6.8,6.8c-3.7,0-6.8-3-6.8-6.8c0-3.7,3-6.8,6.8-6.8
		C1071.2-106.2,1074.2-103.2,1074.2-99.5z"/>
	<path class="st0" d="M1092.1-99.6c0,3.7-3,6.8-6.8,6.8c-3.7,0-6.8-3-6.8-6.8c0-3.7,3-6.8,6.8-6.8
		C1089-106.4,1092.1-103.3,1092.1-99.6z"/>
	<path class="st0" d="M1109.9-99.6c0,3.7-3,6.8-6.8,6.8c-3.7,0-6.8-3-6.8-6.8c0-3.7,3-6.7,6.8-6.7
		C1106.9-106.4,1109.9-103.3,1109.9-99.6z"/>
	<path class="st0" d="M1127.8-99.6c0,3.7-3,6.8-6.8,6.8c-3.7,0-6.8-3-6.8-6.8c0-3.7,3-6.8,6.8-6.8
		C1124.7-106.3,1127.8-103.3,1127.8-99.6z"/>
	<path class="st0" d="M1145.6-99.5c0,3.7-3,6.8-6.8,6.8c-3.7,0-6.7-3-6.7-6.8c0-3.7,3-6.7,6.7-6.7
		C1142.6-106.3,1145.6-103.3,1145.6-99.5z"/>
	<path class="st0" d="M1163.4-99.7c0,3.7-3,6.8-6.8,6.8c-3.7,0-6.8-3-6.8-6.8c0-3.7,3-6.8,6.8-6.8
		C1160.4-106.5,1163.4-103.5,1163.4-99.7z"/>
	<path class="st0" d="M1181.3-99.7c0,3.7-3,6.8-6.8,6.8c-3.7,0-6.8-3-6.8-6.8c0-3.7,3-6.7,6.8-6.7
		C1178.3-106.5,1181.3-103.4,1181.3-99.7z"/>
	<path class="st0" d="M1199.1-99.5c0,3.7-3,6.8-6.8,6.8c-3.7,0-6.8-3-6.8-6.8c0-3.7,3-6.8,6.8-6.8
		C1196.1-106.3,1199.1-103.3,1199.1-99.5z"/>
	<path class="st0" d="M1217-99.5c0,3.7-3,6.8-6.8,6.8c-3.7,0-6.8-3-6.8-6.8c0-3.7,3-6.8,6.8-6.8C1214-106.3,1217-103.2,1217-99.5z"
		/>
	<path class="st0" d="M1234.8-99.7c0,3.7-3,6.8-6.8,6.8c-3.7,0-6.8-3-6.8-6.8c0-3.7,3-6.8,6.8-6.8
		C1231.8-106.4,1234.8-103.4,1234.8-99.7z"/>
	<path class="st0" d="M1252.7-99.7c0,3.7-3,6.8-6.8,6.8c-3.7,0-6.8-3-6.8-6.8c0-3.7,3-6.8,6.8-6.8
		C1249.6-106.4,1252.7-103.4,1252.7-99.7z"/>
	<path class="st0" d="M1270.5-99.6c0,3.7-3,6.7-6.7,6.7c-3.7,0-6.8-3-6.8-6.7s3-6.7,6.8-6.7C1267.5-106.3,1270.5-103.3,1270.5-99.6z
		"/>
	<path class="st0" d="M1288.4-99.6c0,3.7-3,6.8-6.8,6.8c-3.7,0-6.8-3-6.8-6.8c0-3.7,3-6.8,6.8-6.8
		C1285.3-106.3,1288.4-103.3,1288.4-99.6z"/>
	<path class="st0" d="M1306.2-99.8c0,3.7-3,6.8-6.8,6.8c-3.7,0-6.8-3-6.8-6.8c0-3.7,3-6.8,6.8-6.8
		C1303.2-106.5,1306.2-103.5,1306.2-99.8z"/>
	<path class="st0" d="M1324.1-99.8c0,3.7-3,6.7-6.8,6.7c-3.7,0-6.8-3-6.8-6.7s3-6.8,6.8-6.8C1321-106.5,1324.1-103.5,1324.1-99.8z"
		/>
	<path class="st0" d="M521-80.6c0,3.7-3,6.8-6.8,6.8c-3.7,0-6.8-3-6.8-6.8c0-3.7,3-6.8,6.8-6.8C518-87.3,521-84.3,521-80.6z"/>
	<path class="st0" d="M538.9-80.6c0,3.7-3,6.8-6.8,6.8c-3.7,0-6.8-3-6.8-6.8c0-3.7,3-6.7,6.8-6.7C535.8-87.3,538.9-84.3,538.9-80.6z
		"/>
	<path class="st0" d="M556.7-80.5c0,3.7-3,6.8-6.8,6.8c-3.7,0-6.8-3-6.8-6.8c0-3.7,3-6.8,6.8-6.8C553.7-87.2,556.7-84.2,556.7-80.5z
		"/>
	<path class="st0" d="M610.2-80.6c0,3.7-3,6.7-6.7,6.7s-6.8-3-6.8-6.7s3-6.8,6.8-6.8C607.2-87.4,610.2-84.4,610.2-80.6z"/>
	<path class="st0" d="M860.1-80.5c0,3.7-3,6.8-6.8,6.8c-3.7,0-6.8-3-6.8-6.8c0-3.7,3-6.8,6.8-6.8C857-87.3,860.1-84.2,860.1-80.5z"
		/>
	<path class="st0" d="M877.9-80.7c0,3.7-3,6.8-6.8,6.8c-3.7,0-6.8-3-6.8-6.8c0-3.7,3-6.8,6.8-6.8C874.9-87.4,877.9-84.4,877.9-80.7z
		"/>
	<path class="st0" d="M895.8-80.7c0,3.7-3,6.8-6.7,6.8s-6.8-3-6.8-6.8c0-3.7,3-6.7,6.8-6.7C892.7-87.4,895.8-84.4,895.8-80.7z"/>
	<path class="st0" d="M913.6-80.5c0,3.7-3,6.8-6.8,6.8c-3.7,0-6.8-3-6.8-6.8c0-3.7,3-6.8,6.8-6.8C910.6-87.2,913.6-84.2,913.6-80.5z
		"/>
	<circle class="st0" cx="924.7" cy="-80.4" r="6.8"/>
	<path class="st0" d="M949.3-80.6c0,3.7-3,6.8-6.8,6.8c-3.7,0-6.7-3-6.7-6.8c0-3.7,3-6.8,6.7-6.8C946.3-87.4,949.3-84.4,949.3-80.6z
		"/>
	<path class="st0" d="M967.1-80.6c0,3.7-3,6.8-6.8,6.8c-3.7,0-6.8-3-6.8-6.8c0-3.7,3-6.8,6.8-6.8C964.1-87.4,967.1-84.4,967.1-80.6z
		"/>
	<path class="st0" d="M985-80.6c0,3.7-3,6.8-6.8,6.8c-3.7,0-6.8-3-6.8-6.8c0-3.7,3-6.8,6.8-6.8C982-87.3,985-84.3,985-80.6z"/>
	<path class="st0" d="M1002.8-80.6c0,3.7-3,6.8-6.8,6.8c-3.7,0-6.7-3-6.7-6.8c0-3.7,3-6.8,6.7-6.8
		C999.8-87.3,1002.8-84.3,1002.8-80.6z"/>
	<path class="st0" d="M1020.7-80.7c0,3.7-3,6.8-6.8,6.8c-3.7,0-6.8-3-6.8-6.8c0-3.7,3-6.7,6.8-6.7S1020.7-84.4,1020.7-80.7z"/>
	<path class="st0" d="M1038.5-80.7c0,3.7-3,6.8-6.7,6.8c-3.7,0-6.8-3-6.8-6.8c0-3.7,3-6.8,6.8-6.8
		C1035.5-87.4,1038.5-84.4,1038.5-80.7z"/>
	<path class="st0" d="M1056.4-80.3c0,3.7-3,6.8-6.8,6.8c-3.7,0-6.7-3-6.7-6.8c0-3.7,3-6.7,6.7-6.7C1053.4-87,1056.4-84,1056.4-80.3z
		"/>
	<path class="st0" d="M1074.2-80.3c0,3.7-3,6.8-6.8,6.8c-3.7,0-6.8-3-6.8-6.8c0-3.7,3-6.7,6.8-6.7S1074.2-84,1074.2-80.3z"/>
	<path class="st0" d="M1092.1-80.4c0,3.7-3,6.8-6.8,6.8c-3.7,0-6.8-3-6.8-6.8c0-3.7,3-6.8,6.8-6.8
		C1089-87.1,1092.1-84.1,1092.1-80.4z"/>
	<path class="st0" d="M1127.8-80.3c0,3.7-3,6.8-6.8,6.8c-3.7,0-6.8-3-6.8-6.8c0-3.7,3-6.8,6.8-6.8
		C1124.7-87.1,1127.8-84,1127.8-80.3z"/>
	<path class="st0" d="M1145.6-80.3c0,3.7-3,6.8-6.8,6.8c-3.7,0-6.7-3-6.7-6.8c0-3.7,3-6.7,6.7-6.7
		C1142.6-87.1,1145.6-84,1145.6-80.3z"/>
	<path class="st0" d="M1163.4-80.5c0,3.7-3,6.8-6.8,6.8c-3.7,0-6.8-3-6.8-6.8c0-3.7,3-6.8,6.8-6.8
		C1160.4-87.3,1163.4-84.2,1163.4-80.5z"/>
	<path class="st0" d="M1181.3-80.5c0,3.7-3,6.8-6.8,6.8c-3.7,0-6.8-3-6.8-6.8c0-3.7,3-6.7,6.8-6.7S1181.3-84.2,1181.3-80.5z"/>
	<path class="st0" d="M1199.1-80.3c0,3.7-3,6.8-6.8,6.8c-3.7,0-6.8-3-6.8-6.8c0-3.7,3-6.7,6.8-6.7C1196.1-87,1199.1-84,1199.1-80.3z
		"/>
	<path class="st0" d="M1217-80.3c0,3.7-3,6.8-6.8,6.8c-3.7,0-6.7-3-6.7-6.8c0-3.7,3-6.8,6.7-6.8C1214-87,1217-84,1217-80.3z"/>
	<path class="st0" d="M1234.8-80.4c0,3.7-3,6.8-6.8,6.8c-3.7,0-6.8-3-6.8-6.8c0-3.7,3-6.7,6.8-6.7
		C1231.8-87.2,1234.8-84.2,1234.8-80.4z"/>
	<path class="st0" d="M1252.7-80.4c0,3.7-3,6.8-6.8,6.8c-3.7,0-6.8-3-6.8-6.8c0-3.7,3-6.7,6.8-6.7
		C1249.6-87.2,1252.7-84.2,1252.7-80.4z"/>
	<path class="st0" d="M1270.5-80.4c0,3.7-3,6.8-6.7,6.8c-3.7,0-6.8-3-6.8-6.8c0-3.7,3-6.7,6.8-6.7
		C1267.5-87.1,1270.5-84.1,1270.5-80.4z"/>
	<path class="st0" d="M1288.4-80.3c0,3.7-3,6.8-6.8,6.8c-3.7,0-6.8-3-6.8-6.8c0-3.7,3-6.7,6.8-6.7
		C1285.3-87.1,1288.4-84.1,1288.4-80.3z"/>
	<path class="st0" d="M1306.2-80.6c0,3.7-3,6.8-6.8,6.8c-3.7,0-6.7-3-6.7-6.8c0-3.7,3-6.7,6.7-6.7
		C1303.2-87.3,1306.2-84.3,1306.2-80.6z"/>
	<path class="st0" d="M1324.1-80.5c0,3.7-3,6.8-6.8,6.8c-3.7,0-6.7-3-6.7-6.8c0-3.7,3-6.8,6.7-6.8
		C1321-87.3,1324.1-84.3,1324.1-80.5z"/>
	<path class="st0" d="M538.9-61.4c0,3.7-3,6.8-6.8,6.8c-3.7,0-6.8-3-6.8-6.8c0-3.7,3-6.8,6.8-6.8C535.8-68.1,538.9-65.1,538.9-61.4z
		"/>
	<path class="st0" d="M556.7-61.3c0,3.7-3,6.8-6.8,6.8c-3.7,0-6.8-3-6.8-6.8c0-3.7,3-6.7,6.8-6.7C553.7-68,556.7-65,556.7-61.3z"/>
	<path class="st0" d="M860.1-61.3c0,3.7-3,6.8-6.8,6.8c-3.7,0-6.8-3-6.8-6.8c0-3.7,3-6.8,6.8-6.8C857-68,860.1-65,860.1-61.3z"/>
	<path class="st0" d="M877.9-61.4c0,3.7-3,6.8-6.8,6.8c-3.7,0-6.7-3-6.7-6.8c0-3.7,3-6.8,6.7-6.8C874.9-68.2,877.9-65.2,877.9-61.4z
		"/>
	<path class="st0" d="M895.8-61.4c0,3.7-3,6.8-6.7,6.8s-6.8-3-6.8-6.8c0-3.7,3-6.8,6.8-6.8C892.7-68.2,895.8-65.2,895.8-61.4z"/>
	<path class="st0" d="M913.6-61.2c0,3.7-3,6.8-6.8,6.8c-3.7,0-6.8-3-6.8-6.8c0-3.7,3-6.7,6.8-6.7C910.6-68,913.6-65,913.6-61.2z"/>
	<path class="st0" d="M931.5-61.2c0,3.7-3,6.8-6.8,6.8c-3.7,0-6.8-3-6.8-6.8c0-3.7,3-6.7,6.8-6.7C928.4-68,931.5-64.9,931.5-61.2z"
		/>
	<path class="st0" d="M949.3-61.4c0,3.7-3,6.8-6.8,6.8c-3.7,0-6.8-3-6.8-6.8c0-3.7,3-6.8,6.8-6.8S949.3-65.1,949.3-61.4z"/>
	<path class="st0" d="M967.1-61.4c0,3.7-3,6.8-6.7,6.8s-6.7-3-6.7-6.8c0-3.7,3-6.8,6.7-6.8S967.1-65.1,967.1-61.4z"/>
	<path class="st0" d="M985-61.3c0,3.7-3,6.8-6.8,6.8c-3.7,0-6.8-3-6.8-6.8c0-3.7,3-6.7,6.8-6.7C982-68.1,985-65.1,985-61.3z"/>
	<path class="st0" d="M1002.8-61.3c0,3.7-3,6.8-6.8,6.8c-3.7,0-6.8-3-6.8-6.8c0-3.7,3-6.8,6.8-6.8
		C999.8-68.1,1002.8-65.1,1002.8-61.3z"/>
	<path class="st0" d="M1020.7-61.5c0,3.7-3,6.8-6.7,6.8s-6.8-3-6.8-6.8c0-3.7,3-6.8,6.8-6.8C1017.7-68.2,1020.7-65.2,1020.7-61.5z"
		/>
	<path class="st0" d="M1038.5-61.5c0,3.7-3,6.7-6.8,6.7c-3.7,0-6.7-3-6.7-6.7s3-6.8,6.7-6.8C1035.5-68.2,1038.5-65.2,1038.5-61.5z"
		/>
	<path class="st0" d="M1056.4-61c0,3.7-3,6.8-6.8,6.8c-3.7,0-6.8-3-6.8-6.8c0-3.7,3-6.7,6.8-6.7C1053.4-67.8,1056.4-64.8,1056.4-61z
		"/>
	<path class="st0" d="M1074.2-61c0,3.7-3,6.8-6.8,6.8c-3.7,0-6.8-3-6.8-6.8c0-3.7,3-6.8,6.8-6.8S1074.2-64.8,1074.2-61z"/>
	<ellipse class="st0" cx="1085.3" cy="-61.2" rx="6.8" ry="6.7"/>
	<path class="st0" d="M1109.9-61.2c0,3.7-3,6.8-6.8,6.8c-3.7,0-6.8-3-6.8-6.8c0-3.7,3-6.8,6.8-6.8
		C1106.9-67.9,1109.9-64.9,1109.9-61.2z"/>
	<path class="st0" d="M1181.3-61.3c0,3.7-3,6.8-6.8,6.8c-3.7,0-6.8-3-6.8-6.8c0-3.7,3-6.7,6.8-6.7S1181.3-65,1181.3-61.3z"/>
	<path class="st0" d="M1199.1-61.1c0,3.7-3,6.8-6.8,6.8c-3.7,0-6.8-3-6.8-6.8c0-3.7,3-6.8,6.8-6.8
		C1196.1-67.8,1199.1-64.8,1199.1-61.1z"/>
	<path class="st0" d="M1217-61.1c0,3.7-3,6.8-6.8,6.8c-3.7,0-6.8-3-6.8-6.8c0-3.7,3-6.8,6.8-6.8C1214-67.8,1217-64.8,1217-61.1z"/>
	<path class="st0" d="M1234.8-61.2c0,3.7-3,6.8-6.8,6.8c-3.7,0-6.8-3-6.8-6.8c0-3.7,3-6.8,6.8-6.8
		C1231.8-68,1234.8-64.9,1234.8-61.2z"/>
	<path class="st0" d="M1252.7-61.2c0,3.7-3,6.8-6.8,6.8c-3.7,0-6.8-3-6.8-6.8c0-3.7,3-6.7,6.8-6.7
		C1249.6-68,1252.7-64.9,1252.7-61.2z"/>
	<path class="st0" d="M1270.5-61.1c0,3.7-3,6.8-6.7,6.8c-3.7,0-6.8-3-6.8-6.8c0-3.7,3-6.8,6.8-6.8
		C1267.5-67.9,1270.5-64.8,1270.5-61.1z"/>
	<path class="st0" d="M1288.4-61.1c0,3.7-3,6.8-6.8,6.8c-3.7,0-6.8-3-6.8-6.8c0-3.7,3-6.7,6.8-6.7
		C1285.3-67.9,1288.4-64.8,1288.4-61.1z"/>
	<path class="st0" d="M1306.2-61.3c0,3.7-3,6.8-6.8,6.8c-3.7,0-6.8-3-6.8-6.8c0-3.7,3-6.8,6.8-6.8
		C1303.2-68.1,1306.2-65.1,1306.2-61.3z"/>
	<path class="st0" d="M538.9-42.1c0,3.7-3,6.8-6.8,6.8c-3.7,0-6.8-3-6.8-6.8c0-3.7,3-6.8,6.8-6.8C535.8-48.9,538.9-45.8,538.9-42.1z
		"/>
	<path class="st0" d="M556.7-42c0,3.7-3,6.8-6.8,6.8c-3.7,0-6.8-3-6.8-6.8c0-3.7,3-6.8,6.8-6.8C553.7-48.8,556.7-45.7,556.7-42z"/>
	<path class="st0" d="M574.5-42c0,3.7-3,6.8-6.8,6.8c-3.7,0-6.8-3-6.8-6.8c0-3.7,3-6.8,6.8-6.8S574.5-45.7,574.5-42z"/>
	<path class="st0" d="M860.1-42c0,3.7-3,6.8-6.8,6.8c-3.7,0-6.8-3-6.8-6.8c0-3.7,3-6.8,6.8-6.8C857-48.8,860.1-45.8,860.1-42z"/>
	<path class="st0" d="M877.9-42.2c0,3.7-3,6.8-6.8,6.8c-3.7,0-6.8-3-6.8-6.8c0-3.7,3-6.8,6.8-6.8C874.9-49,877.9-45.9,877.9-42.2z"
		/>
	<path class="st0" d="M895.8-42.2c0,3.7-3,6.8-6.7,6.8s-6.8-3-6.8-6.8c0-3.7,3-6.8,6.8-6.8C892.7-48.9,895.8-45.9,895.8-42.2z"/>
	<path class="st0" d="M913.6-42c0,3.7-3,6.8-6.8,6.8c-3.7,0-6.8-3-6.8-6.8s3-6.8,6.8-6.8C910.6-48.7,913.6-45.7,913.6-42z"/>
	<path class="st0" d="M931.5-42c0,3.7-3,6.8-6.8,6.8c-3.7,0-6.8-3-6.8-6.8c0-3.7,3-6.8,6.8-6.8C928.4-48.7,931.5-45.7,931.5-42z"/>
	<path class="st0" d="M949.3-42.2c0,3.7-3,6.8-6.8,6.8c-3.7,0-6.7-3-6.7-6.8c0-3.7,3-6.8,6.7-6.8C946.3-48.9,949.3-45.9,949.3-42.2z
		"/>
	<path class="st0" d="M967.1-42.2c0,3.7-3,6.8-6.8,6.8c-3.7,0-6.8-3-6.8-6.8c0-3.7,3-6.8,6.8-6.8C964.1-48.9,967.1-45.9,967.1-42.2z
		"/>
	<path class="st0" d="M985-42.1c0,3.7-3,6.8-6.8,6.8c-3.7,0-6.8-3-6.8-6.8c0-3.7,3-6.8,6.8-6.8S985-45.8,985-42.1z"/>
	<path class="st0" d="M1002.8-42.1c0,3.7-3,6.8-6.8,6.8c-3.7,0-6.7-3-6.7-6.8c0-3.7,3-6.8,6.7-6.8
		C999.8-48.8,1002.8-45.8,1002.8-42.1z"/>
	<path class="st0" d="M1020.7-42.2c0,3.7-3,6.8-6.8,6.8c-3.7,0-6.8-3-6.8-6.8c0-3.7,3-6.8,6.8-6.8S1020.7-45.9,1020.7-42.2z"/>
	<path class="st0" d="M1038.5-42.2c0,3.7-3,6.8-6.7,6.8c-3.7,0-6.8-3-6.8-6.8c0-3.7,3-6.8,6.8-6.8C1035.5-49,1038.5-46,1038.5-42.2z
		"/>
	<path class="st0" d="M1056.4-41.8c0,3.7-3,6.8-6.8,6.8c-3.7,0-6.7-3-6.7-6.8c0-3.7,3-6.8,6.7-6.8
		C1053.4-48.6,1056.4-45.5,1056.4-41.8z"/>
	<path class="st0" d="M1074.2-41.8c0,3.7-3,6.8-6.8,6.8c-3.7,0-6.8-3-6.8-6.8c0-3.7,3-6.8,6.8-6.8
		C1071.2-48.5,1074.2-45.5,1074.2-41.8z"/>
	<path class="st0" d="M1092.1-41.9c0,3.7-3,6.8-6.8,6.8c-3.7,0-6.8-3-6.8-6.8c0-3.7,3-6.8,6.8-6.8
		C1089-48.7,1092.1-45.6,1092.1-41.9z"/>
	<path class="st0" d="M1109.9-41.9c0,3.7-3,6.8-6.8,6.8c-3.7,0-6.7-3-6.7-6.8c0-3.7,3-6.8,6.7-6.8
		C1106.9-48.7,1109.9-45.6,1109.9-41.9z"/>
	<path class="st0" d="M1127.8-41.9c0,3.7-3,6.8-6.8,6.8c-3.7,0-6.8-3-6.8-6.8c0-3.7,3-6.8,6.8-6.8
		C1124.7-48.6,1127.8-45.6,1127.8-41.9z"/>
	<path class="st0" d="M1181.3-42c0,3.7-3,6.8-6.8,6.8c-3.7,0-6.8-3-6.8-6.8c0-3.7,3-6.7,6.8-6.7C1178.3-48.8,1181.3-45.8,1181.3-42z
		"/>
	<path class="st0" d="M1199.1-41.8c0,3.7-3,6.8-6.8,6.8c-3.7,0-6.8-3-6.8-6.8c0-3.7,3-6.8,6.8-6.8
		C1196.1-48.6,1199.1-45.6,1199.1-41.8z"/>
	<path class="st0" d="M1217-41.8c0,3.7-3,6.8-6.8,6.8c-3.7,0-6.7-3-6.7-6.8c0-3.7,3-6.8,6.7-6.8C1214-48.6,1217-45.5,1217-41.8z"/>
	<path class="st0" d="M1270.5-41.9c0,3.7-3,6.8-6.7,6.8c-3.7,0-6.8-3-6.8-6.8c0-3.7,3-6.8,6.8-6.8
		C1267.5-48.6,1270.5-45.6,1270.5-41.9z"/>
	<path class="st0" d="M1288.4-41.9c0,3.7-3,6.8-6.8,6.8c-3.7,0-6.8-3-6.8-6.8c0-3.7,3-6.8,6.8-6.8
		C1285.3-48.6,1288.4-45.6,1288.4-41.9z"/>
	<path class="st0" d="M1306.2-42.1c0,3.7-3,6.8-6.8,6.8c-3.7,0-6.7-3-6.7-6.8c0-3.7,3-6.8,6.7-6.8
		C1303.2-48.8,1306.2-45.8,1306.2-42.1z"/>
	<path class="st0" d="M574.5-22.8c0,3.7-3,6.8-6.8,6.8c-3.7,0-6.8-3-6.8-6.8c0-3.7,3-6.7,6.8-6.7S574.5-26.5,574.5-22.8z"/>
	<path class="st0" d="M592.4-23c0,3.7-3,6.8-6.8,6.8c-3.7,0-6.8-3-6.8-6.8c0-3.7,3-6.7,6.8-6.7C589.4-29.7,592.4-26.7,592.4-23z"/>
	<path class="st0" d="M842.2-22.8c0,3.7-3,6.8-6.8,6.8c-3.7,0-6.8-3-6.8-6.8c0-3.7,3-6.7,6.8-6.7C839.2-29.6,842.2-26.5,842.2-22.8z
		"/>
	<path class="st0" d="M860.1-22.8c0,3.7-3,6.8-6.8,6.8c-3.7,0-6.8-3-6.8-6.8c0-3.7,3-6.7,6.8-6.7C857-29.6,860.1-26.5,860.1-22.8z"
		/>
	<path class="st0" d="M877.9-23c0,3.7-3,6.8-6.8,6.8c-3.7,0-6.8-3-6.8-6.8c0-3.7,3-6.7,6.8-6.7C874.9-29.7,877.9-26.7,877.9-23z"/>
	<path class="st0" d="M895.8-23c0,3.7-3,6.8-6.7,6.8s-6.8-3-6.8-6.8c0-3.7,3-6.8,6.8-6.8C892.7-29.7,895.8-26.7,895.8-23z"/>
	<path class="st0" d="M913.6-22.8c0,3.7-3,6.8-6.8,6.8c-3.7,0-6.8-3-6.8-6.8c0-3.7,3-6.8,6.8-6.8C910.6-29.5,913.6-26.5,913.6-22.8z
		"/>
	<path class="st0" d="M931.5-22.7c0,3.7-3,6.7-6.8,6.7c-3.7,0-6.8-3-6.8-6.7s3-6.8,6.8-6.8C928.4-29.5,931.5-26.5,931.5-22.7z"/>
	<path class="st0" d="M949.3-22.9c0,3.7-3,6.8-6.8,6.8c-3.7,0-6.7-3-6.7-6.8c0-3.7,3-6.8,6.7-6.8C946.3-29.7,949.3-26.7,949.3-22.9z
		"/>
	<path class="st0" d="M967.1-22.9c0,3.7-3,6.8-6.8,6.8c-3.7,0-6.8-3-6.8-6.8c0-3.7,3-6.8,6.8-6.8C964.1-29.7,967.1-26.7,967.1-22.9z
		"/>
	<path class="st0" d="M985-22.9c0,3.7-3,6.8-6.8,6.8c-3.7,0-6.8-3-6.8-6.8c0-3.7,3-6.7,6.8-6.7S985-26.6,985-22.9z"/>
	<path class="st0" d="M1002.8-22.9c0,3.7-3,6.8-6.8,6.8c-3.7,0-6.7-3-6.7-6.8c0-3.7,3-6.8,6.7-6.8
		C999.8-29.6,1002.8-26.6,1002.8-22.9z"/>
	<path class="st0" d="M1020.7-23c0,3.7-3,6.8-6.8,6.8c-3.7,0-6.8-3-6.8-6.8c0-3.7,3-6.7,6.8-6.7S1020.7-26.7,1020.7-23z"/>
	<path class="st0" d="M1038.5-23c0,3.7-3,6.8-6.7,6.8c-3.7,0-6.8-3-6.8-6.8c0-3.7,3-6.8,6.8-6.8C1035.5-29.7,1038.5-26.7,1038.5-23z
		"/>
	<path class="st0" d="M1056.4-22.6c0,3.7-3,6.8-6.8,6.8c-3.7,0-6.7-3-6.7-6.8c0-3.7,3-6.8,6.7-6.8
		C1053.4-29.3,1056.4-26.3,1056.4-22.6z"/>
	<path class="st0" d="M1074.2-22.6c0,3.7-3,6.7-6.8,6.7c-3.7,0-6.8-3-6.8-6.7s3-6.7,6.8-6.7C1071.2-29.3,1074.2-26.3,1074.2-22.6z"
		/>
	<path class="st0" d="M1092.1-22.7c0,3.7-3,6.8-6.8,6.8c-3.7,0-6.8-3-6.8-6.8c0-3.7,3-6.8,6.8-6.8
		C1089-29.4,1092.1-26.4,1092.1-22.7z"/>
	<path class="st0" d="M1109.9-22.7c0,3.7-3,6.8-6.8,6.8c-3.7,0-6.7-3-6.7-6.8s3-6.8,6.7-6.8C1106.9-29.4,1109.9-26.4,1109.9-22.7z"
		/>
	<path class="st0" d="M1199.1-22.6c0,3.7-3,6.8-6.8,6.8c-3.7,0-6.8-3-6.8-6.8c0-3.7,3-6.8,6.8-6.8
		C1196.1-29.3,1199.1-26.3,1199.1-22.6z"/>
	<path class="st0" d="M1217-22.6c0,3.7-3,6.7-6.8,6.7c-3.7,0-6.7-3-6.7-6.7s3-6.8,6.7-6.8C1214-29.3,1217-26.3,1217-22.6z"/>
	<path class="st0" d="M1288.4-22.6c0,3.7-3,6.8-6.8,6.8c-3.7,0-6.8-3-6.8-6.8c0-3.7,3-6.8,6.8-6.8
		C1285.3-29.4,1288.4-26.4,1288.4-22.6z"/>
	<path class="st0" d="M1306.2-22.9c0,3.7-3,6.8-6.8,6.8c-3.7,0-6.7-3-6.7-6.8c0-3.7,3-6.7,6.7-6.7
		C1303.2-29.6,1306.2-26.6,1306.2-22.9z"/>
	<path class="st0" d="M592.4-3.7c0,3.7-3,6.8-6.8,6.8c-3.7,0-6.8-3-6.8-6.8c0-3.7,3-6.8,6.8-6.8C589.4-10.5,592.4-7.4,592.4-3.7z"/>
	<path class="st0" d="M628.1-3.5c0,3.7-3,6.7-6.8,6.7c-3.7,0-6.8-3-6.8-6.7s3-6.8,6.8-6.8C625.1-10.2,628.1-7.2,628.1-3.5z"/>
	<path class="st0" d="M645.9-3.5c0,3.7-3,6.8-6.8,6.8c-3.7,0-6.8-3-6.8-6.8c0-3.7,3-6.8,6.8-6.8C642.9-10.2,645.9-7.2,645.9-3.5z"/>
	<path class="st0" d="M860.1-3.6c0,3.7-3,6.8-6.8,6.8c-3.7,0-6.8-3-6.8-6.8c0-3.7,3-6.8,6.8-6.8C857-10.3,860.1-7.3,860.1-3.6z"/>
	<path class="st0" d="M877.9-3.7c0,3.7-3,6.8-6.8,6.8c-3.7,0-6.8-3-6.8-6.8c0-3.7,3-6.7,6.8-6.7C874.9-10.5,877.9-7.5,877.9-3.7z"/>
	<path class="st0" d="M895.8-3.7c0,3.7-3,6.8-6.7,6.8s-6.8-3-6.8-6.8c0-3.7,3-6.7,6.8-6.7C892.7-10.5,895.8-7.4,895.8-3.7z"/>
	<path class="st0" d="M913.6-3.5c0,3.7-3,6.7-6.8,6.7c-3.7,0-6.8-3-6.8-6.7s3-6.8,6.8-6.8C910.6-10.3,913.6-7.2,913.6-3.5z"/>
	<path class="st0" d="M931.5-3.5c0,3.7-3,6.8-6.8,6.8c-3.7,0-6.8-3-6.8-6.8c0-3.7,3-6.8,6.8-6.8C928.4-10.3,931.5-7.2,931.5-3.5z"/>
	<path class="st0" d="M949.3-3.7c0,3.7-3,6.8-6.8,6.8c-3.7,0-6.7-3-6.7-6.8c0-3.7,3-6.8,6.7-6.8C946.3-10.5,949.3-7.4,949.3-3.7z"/>
	<path class="st0" d="M967.1-3.7c0,3.7-3,6.8-6.8,6.8c-3.7,0-6.8-3-6.8-6.8c0-3.7,3-6.7,6.8-6.7C964.1-10.4,967.1-7.4,967.1-3.7z"/>
	<path class="st0" d="M985-3.6c0,3.7-3,6.8-6.8,6.8c-3.7,0-6.8-3-6.8-6.8c0-3.7,3-6.7,6.8-6.7C982-10.4,985-7.4,985-3.6z"/>
	<path class="st0" d="M1002.8-3.6c0,3.7-3,6.8-6.8,6.8c-3.7,0-6.7-3-6.7-6.8c0-3.7,3-6.7,6.7-6.7C999.8-10.4,1002.8-7.4,1002.8-3.6z
		"/>
	<path class="st0" d="M1020.7-3.8c0,3.7-3,6.8-6.8,6.8c-3.7,0-6.8-3-6.8-6.8c0-3.7,3-6.8,6.8-6.8C1017.7-10.5,1020.7-7.5,1020.7-3.8
		z"/>
	<path class="st0" d="M1038.5-3.8c0,3.7-3,6.7-6.7,6.7c-3.7,0-6.8-3-6.8-6.7s3-6.8,6.8-6.8C1035.5-10.5,1038.5-7.5,1038.5-3.8z"/>
	<path class="st0" d="M1056.4-3.3c0,3.7-3,6.8-6.8,6.8c-3.7,0-6.7-3-6.7-6.8c0-3.7,3-6.8,6.7-6.8C1053.4-10.1,1056.4-7.1,1056.4-3.3
		z"/>
	<path class="st0" d="M1074.2-3.3c0,3.7-3,6.8-6.8,6.8c-3.7,0-6.8-3-6.8-6.8c0-3.7,3-6.8,6.8-6.8C1071.2-10.1,1074.2-7.1,1074.2-3.3
		z"/>
	<path class="st0" d="M1092.1-3.5c0,3.7-3,6.8-6.8,6.8c-3.7,0-6.8-3-6.8-6.8c0-3.7,3-6.7,6.8-6.7C1089-10.2,1092.1-7.2,1092.1-3.5z"
		/>
	<path class="st0" d="M1199.1-3.4c0,3.7-3,6.8-6.8,6.8c-3.7,0-6.8-3-6.8-6.8c0-3.7,3-6.8,6.8-6.8C1196.1-10.1,1199.1-7.1,1199.1-3.4
		z"/>
	<path class="st0" d="M1217-3.4c0,3.7-3,6.8-6.8,6.8c-3.7,0-6.7-3-6.7-6.8c0-3.7,3-6.8,6.7-6.8C1214-10.1,1217-7.1,1217-3.4z"/>
	<path class="st0" d="M1288.4-3.4c0,3.7-3,6.8-6.8,6.8c-3.7,0-6.8-3-6.8-6.8c0-3.7,3-6.8,6.8-6.8C1285.3-10.2,1288.4-7.1,1288.4-3.4
		z"/>
	<path class="st0" d="M1306.2-3.6c0,3.7-3,6.8-6.8,6.8c-3.7,0-6.7-3-6.7-6.8c0-3.7,3-6.8,6.7-6.8C1303.2-10.4,1306.2-7.3,1306.2-3.6
		z"/>
</g>
</svg>
