<?xml version="1.0" encoding="utf-8"?>
<!-- Generator: Adobe Illustrator 19.0.0, SVG Export Plug-In . SVG Version: 6.00 Build 0)  -->
<svg version="1.1" id="Layer_1" xmlns="http://www.w3.org/2000/svg" xmlns:xlink="http://www.w3.org/1999/xlink" x="0px" y="0px"
	 viewBox="0 0 1077.2 668" style="enable-background:new 0 0 1077.2 668;" xml:space="preserve">
<style type="text/css">
	.st0{fill:#1c252b;}
</style>
<g>
	<path class="st0" d="M171.8,339.6c0,3.7-3,6.8-6.8,6.8c-3.7,0-6.7-3-6.7-6.8c0-3.7,3-6.7,6.7-6.7
		C168.8,332.8,171.8,335.8,171.8,339.6z"/>
	<path class="st0" d="M189.7,339.8c0,3.7-3,6.8-6.8,6.8c-3.7,0-6.7-3-6.7-6.8c0-3.7,3-6.7,6.7-6.7
		C186.7,333,189.7,336.1,189.7,339.8z"/>
	<path class="st0" d="M207.5,339.8c0,3.7-3,6.8-6.8,6.8c-3.7,0-6.8-3-6.8-6.8c0-3.7,3-6.8,6.8-6.8
		C204.5,333,207.5,336.1,207.5,339.8z"/>
	<path class="st0" d="M225.4,339.6c0,3.7-3,6.8-6.8,6.8c-3.7,0-6.7-3-6.7-6.8c0-3.7,3-6.8,6.7-6.8
		C222.3,332.9,225.4,335.9,225.4,339.6z"/>
	<path class="st0" d="M243.2,339.6c0,3.7-3,6.8-6.8,6.8c-3.7,0-6.7-3-6.7-6.8c0-3.7,3-6.8,6.7-6.8
		C240.2,332.9,243.2,335.9,243.2,339.6z"/>
	<path class="st0" d="M421.7,339.7c0,3.7-3,6.7-6.8,6.7c-3.7,0-6.8-3-6.8-6.7c0-3.7,3-6.8,6.8-6.8C418.7,333,421.7,336,421.7,339.7z
		"/>
	<path class="st0" d="M439.5,339.6c0,3.7-3,6.8-6.8,6.8c-3.7,0-6.8-3-6.8-6.8c0-3.7,3-6.7,6.8-6.7
		C436.5,332.8,439.5,335.8,439.5,339.6z"/>
	<path class="st0" d="M457.4,339.6c0,3.7-3,6.8-6.8,6.8c-3.7,0-6.8-3-6.8-6.8c0-3.7,3-6.8,6.8-6.8
		C454.3,332.8,457.4,335.8,457.4,339.6z"/>
	<path class="st0" d="M475.2,339.8c0,3.7-3,6.7-6.8,6.7c-3.7,0-6.8-3-6.8-6.7c0-3.7,3-6.8,6.8-6.8C472.2,333,475.2,336,475.2,339.8z
		"/>
	<path class="st0" d="M493,339.8c0,3.7-3,6.8-6.8,6.8c-3.7,0-6.8-3-6.8-6.8c0-3.7,3-6.8,6.8-6.8C490,333,493,336,493,339.8z"/>
	<path class="st0" d="M510.9,339.6c0,3.7-3,6.8-6.8,6.8c-3.7,0-6.8-3-6.8-6.8c0-3.7,3-6.8,6.8-6.8
		C507.9,332.8,510.9,335.9,510.9,339.6z"/>
	<path class="st0" d="M528.7,339.6c0,3.7-3,6.8-6.8,6.8c-3.7,0-6.7-3-6.7-6.8c0-3.7,3-6.8,6.7-6.8
		C525.7,332.8,528.7,335.9,528.7,339.6z"/>
	<path class="st0" d="M546.6,339.6c0,3.7-3,6.8-6.8,6.8c-3.7,0-6.8-3-6.8-6.8c0-3.7,3-6.7,6.8-6.7
		C543.6,332.9,546.6,335.9,546.6,339.6z"/>
	<path class="st0" d="M564.4,339.7c0,3.7-3,6.8-6.8,6.8c-3.7,0-6.8-3-6.8-6.8c0-3.7,3-6.7,6.8-6.7
		C561.4,332.9,564.4,335.9,564.4,339.7z"/>
	<path class="st0" d="M582.3,339.5c0,3.7-3,6.8-6.8,6.8c-3.7,0-6.8-3-6.8-6.8c0-3.7,3-6.7,6.8-6.7
		C579.3,332.8,582.3,335.8,582.3,339.5z"/>
	<path class="st0" d="M600.1,339.5c0,3.7-3,6.8-6.8,6.8c-3.7,0-6.7-3-6.7-6.8c0-3.7,3-6.7,6.7-6.7
		C597.1,332.8,600.1,335.8,600.1,339.5z"/>
	<path class="st0" d="M618,340c0,3.7-3,6.8-6.7,6.8c-3.7,0-6.8-3-6.8-6.8c0-3.7,3-6.8,6.8-6.8C614.9,333.2,618,336.2,618,340z"/>
	<path class="st0" d="M635.8,340c0,3.7-3,6.8-6.7,6.8c-3.7,0-6.8-3-6.8-6.8c0-3.7,3-6.7,6.8-6.7C632.8,333.2,635.8,336.2,635.8,340z
		"/>
	<path class="st0" d="M653.7,339.8c0,3.7-3,6.8-6.8,6.8c-3.7,0-6.8-3-6.8-6.8c0-3.7,3-6.8,6.8-6.8
		C650.6,333.1,653.7,336.1,653.7,339.8z"/>
	<path class="st0" d="M850,339.9c0,3.7-3,6.8-6.8,6.8c-3.7,0-6.8-3-6.8-6.8c0-3.7,3-6.7,6.8-6.7C846.9,333.1,850,336.2,850,339.9z"
		/>
	<path class="st0" d="M171.8,358.8c0,3.7-3,6.8-6.8,6.8c-3.7,0-6.7-3-6.7-6.8c0-3.7,3-6.7,6.7-6.7
		C168.8,352.1,171.8,355.1,171.8,358.8z"/>
	<path class="st0" d="M189.7,359c0,3.7-3,6.8-6.8,6.8c-3.7,0-6.7-3-6.7-6.8c0-3.7,3-6.7,6.7-6.7C186.7,352.3,189.7,355.3,189.7,359z
		"/>
	<path class="st0" d="M207.5,359c0,3.7-3,6.7-6.8,6.7c-3.7,0-6.8-3-6.8-6.7c0-3.7,3-6.8,6.8-6.8C204.5,352.3,207.5,355.3,207.5,359z
		"/>
	<path class="st0" d="M225.4,358.8c0,3.7-3,6.8-6.8,6.8c-3.7,0-6.7-3-6.7-6.8c0-3.7,3-6.7,6.7-6.7
		C222.3,352.1,225.4,355.1,225.4,358.8z"/>
	<path class="st0" d="M243.2,358.8c0,3.7-3,6.8-6.8,6.8c-3.7,0-6.7-3-6.7-6.8c0-3.7,3-6.8,6.7-6.8
		C240.2,352.1,243.2,355.1,243.2,358.8z"/>
	<path class="st0" d="M261.1,358.9c0,3.7-3,6.7-6.8,6.7c-3.7,0-6.7-3-6.7-6.7c0-3.7,3-6.8,6.7-6.8
		C258,352.2,261.1,355.2,261.1,358.9z"/>
	<path class="st0" d="M457.4,358.8c0,3.7-3,6.8-6.8,6.8c-3.7,0-6.8-3-6.8-6.8c0-3.7,3-6.8,6.8-6.8
		C454.3,352,457.4,355.1,457.4,358.8z"/>
	<path class="st0" d="M510.9,358.8c0,3.7-3,6.8-6.8,6.8c-3.7,0-6.8-3-6.8-6.8c0-3.7,3-6.8,6.8-6.8
		C507.9,352.1,510.9,355.1,510.9,358.8z"/>
	<path class="st0" d="M528.7,358.8c0,3.7-3,6.8-6.8,6.8c-3.7,0-6.7-3-6.7-6.8c0-3.7,3-6.8,6.7-6.8
		C525.7,352.1,528.7,355.1,528.7,358.8z"/>
	<path class="st0" d="M546.6,358.9c0,3.7-3,6.8-6.8,6.8c-3.7,0-6.8-3-6.8-6.8c0-3.7,3-6.8,6.8-6.8
		C543.6,352.1,546.6,355.2,546.6,358.9z"/>
	<path class="st0" d="M564.4,358.9c0,3.7-3,6.7-6.8,6.7c-3.7,0-6.8-3-6.8-6.7c0-3.7,3-6.7,6.8-6.7
		C561.4,352.1,564.4,355.2,564.4,358.9z"/>
	<path class="st0" d="M582.3,358.8c0,3.7-3,6.8-6.8,6.8c-3.7,0-6.8-3-6.8-6.8c0-3.7,3-6.8,6.8-6.8C579.3,352,582.3,355,582.3,358.8z
		"/>
	<path class="st0" d="M600.1,358.8c0,3.7-3,6.7-6.8,6.7c-3.7,0-6.7-3-6.7-6.7c0-3.7,3-6.8,6.7-6.8C597.1,352,600.1,355,600.1,358.8z
		"/>
	<path class="st0" d="M618,359.2c0,3.7-3,6.8-6.7,6.8c-3.7,0-6.8-3-6.8-6.8c0-3.7,3-6.8,6.8-6.8C614.9,352.4,618,355.5,618,359.2z"
		/>
	<path class="st0" d="M635.8,359.2c0,3.7-3,6.8-6.7,6.8c-3.7,0-6.8-3-6.8-6.8c0-3.7,3-6.8,6.8-6.8
		C632.8,352.4,635.8,355.5,635.8,359.2z"/>
	<path class="st0" d="M653.7,359.1c0,3.7-3,6.8-6.8,6.8c-3.7,0-6.8-3-6.8-6.8c0-3.7,3-6.8,6.8-6.8
		C650.6,352.3,653.7,355.3,653.7,359.1z"/>
	<path class="st0" d="M850,359.1c0,3.7-3,6.8-6.8,6.8c-3.7,0-6.8-3-6.8-6.8c0-3.7,3-6.7,6.8-6.7C846.9,352.4,850,355.4,850,359.1z"
		/>
	<path class="st0" d="M867.8,358.9c0,3.7-3,6.8-6.8,6.8c-3.7,0-6.8-3-6.8-6.8c0-3.7,3-6.7,6.8-6.7
		C864.8,352.2,867.8,355.2,867.8,358.9z"/>
	<path class="st0" d="M903.5,359.2c0,3.7-3,6.8-6.7,6.8c-3.7,0-6.8-3-6.8-6.8c0-3.7,3-6.8,6.8-6.8
		C900.5,352.4,903.5,355.4,903.5,359.2z"/>
	<path class="st0" d="M171.8,378c0,3.7-3,6.8-6.8,6.8c-3.7,0-6.7-3-6.7-6.8c0-3.7,3-6.8,6.7-6.8C168.8,371.3,171.8,374.3,171.8,378z
		"/>
	<path class="st0" d="M189.7,378.3c0,3.7-3,6.8-6.8,6.8c-3.7,0-6.7-3-6.7-6.8c0-3.7,3-6.8,6.7-6.8
		C186.7,371.5,189.7,374.5,189.7,378.3z"/>
	<path class="st0" d="M207.5,378.3c0,3.7-3,6.8-6.8,6.8c-3.7,0-6.8-3-6.8-6.8c0-3.7,3-6.7,6.8-6.7
		C204.5,371.5,207.5,374.5,207.5,378.3z"/>
	<path class="st0" d="M225.4,378.1c0,3.7-3,6.8-6.8,6.8c-3.7,0-6.7-3-6.7-6.8c0-3.7,3-6.8,6.7-6.8
		C222.3,371.3,225.4,374.3,225.4,378.1z"/>
	<path class="st0" d="M243.2,378.1c0,3.7-3,6.8-6.8,6.8c-3.7,0-6.7-3-6.7-6.8c0-3.7,3-6.8,6.7-6.8
		C240.2,371.3,243.2,374.3,243.2,378.1z"/>
	<path class="st0" d="M261.1,378.1c0,3.7-3,6.8-6.8,6.8c-3.7,0-6.7-3-6.7-6.8c0-3.7,3-6.8,6.7-6.8
		C258,371.4,261.1,374.4,261.1,378.1z"/>
	<path class="st0" d="M510.9,378c0,3.7-3,6.8-6.8,6.8c-3.7,0-6.8-3-6.8-6.8c0-3.7,3-6.7,6.8-6.7C507.9,371.3,510.9,374.3,510.9,378z
		"/>
	<path class="st0" d="M528.7,378.1c0,3.7-3,6.8-6.8,6.8c-3.7,0-6.7-3-6.7-6.8c0-3.7,3-6.7,6.7-6.7
		C525.7,371.3,528.7,374.3,528.7,378.1z"/>
	<path class="st0" d="M546.6,378.1c0,3.7-3,6.8-6.8,6.8c-3.7,0-6.8-3-6.8-6.8c0-3.7,3-6.7,6.8-6.7
		C543.6,371.4,546.6,374.4,546.6,378.1z"/>
	<path class="st0" d="M564.4,378.1c0,3.7-3,6.8-6.8,6.8c-3.7,0-6.8-3-6.8-6.8c0-3.7,3-6.7,6.8-6.7
		C561.4,371.4,564.4,374.4,564.4,378.1z"/>
	<path class="st0" d="M582.3,378c0,3.7-3,6.8-6.8,6.8c-3.7,0-6.8-3-6.8-6.8c0-3.7,3-6.8,6.8-6.8C579.3,371.2,582.3,374.3,582.3,378z
		"/>
	<path class="st0" d="M600.1,378c0,3.7-3,6.8-6.8,6.8c-3.7,0-6.7-3-6.7-6.8c0-3.7,3-6.8,6.7-6.8C597.1,371.2,600.1,374.3,600.1,378z
		"/>
	<path class="st0" d="M618,378.4c0,3.7-3,6.8-6.7,6.8c-3.7,0-6.8-3-6.8-6.8c0-3.7,3-6.7,6.8-6.7C614.9,371.7,618,374.7,618,378.4z"
		/>
	<path class="st0" d="M635.8,378.4c0,3.7-3,6.8-6.7,6.8c-3.7,0-6.8-3-6.8-6.8c0-3.7,3-6.8,6.8-6.8
		C632.8,371.7,635.8,374.7,635.8,378.4z"/>
	<path class="st0" d="M867.8,378.1c0,3.7-3,6.7-6.8,6.7c-3.7,0-6.8-3-6.8-6.7c0-3.7,3-6.8,6.8-6.8
		C864.8,371.4,867.8,374.4,867.8,378.1z"/>
	<path class="st0" d="M903.5,378.4c0,3.7-3,6.8-6.7,6.8c-3.7,0-6.8-3-6.8-6.8c0-3.7,3-6.7,6.8-6.7
		C900.5,371.7,903.5,374.7,903.5,378.4z"/>
	<path class="st0" d="M974.9,378.3c0,3.7-3,6.8-6.8,6.8c-3.7,0-6.8-3-6.8-6.8c0-3.7,3-6.7,6.8-6.7
		C971.9,371.6,974.9,374.6,974.9,378.3z"/>
	<path class="st0" d="M171.8,397.3c0,3.7-3,6.8-6.8,6.8c-3.7,0-6.8-3-6.8-6.8c0-3.7,3-6.7,6.8-6.7
		C168.8,390.5,171.8,393.5,171.8,397.3z"/>
	<path class="st0" d="M189.7,397.5c0,3.7-3,6.8-6.8,6.8c-3.7,0-6.7-3-6.7-6.8c0-3.7,3-6.8,6.7-6.8
		C186.7,390.7,189.7,393.8,189.7,397.5z"/>
	<path class="st0" d="M207.5,397.5c0,3.7-3,6.8-6.7,6.8c-3.7,0-6.8-3-6.8-6.8c0-3.7,3-6.8,6.8-6.8
		C204.5,390.7,207.5,393.8,207.5,397.5z"/>
	<path class="st0" d="M225.4,397.3c0,3.7-3,6.8-6.8,6.8s-6.8-3-6.8-6.8c0-3.7,3-6.7,6.8-6.7S225.4,393.6,225.4,397.3z"/>
	<path class="st0" d="M243.2,397.3c0,3.7-3,6.8-6.7,6.8c-3.7,0-6.8-3-6.8-6.8c0-3.7,3-6.7,6.8-6.7
		C240.2,390.5,243.2,393.6,243.2,397.3z"/>
	<path class="st0" d="M261.1,397.4c0,3.7-3,6.8-6.8,6.8c-3.7,0-6.8-3-6.8-6.8c0-3.7,3-6.8,6.8-6.8
		C258,390.6,261.1,393.7,261.1,397.4z"/>
	<path class="st0" d="M278.9,397.4c0,3.7-3,6.8-6.7,6.8c-3.7,0-6.8-3-6.8-6.8c0-3.7,3-6.7,6.8-6.7
		C275.9,390.6,278.9,393.7,278.9,397.4z"/>
	<path class="st0" d="M296.8,397.2c0,3.7-3,6.8-6.7,6.8c-3.7,0-6.8-3-6.8-6.8c0-3.7,3-6.7,6.8-6.7
		C293.7,390.5,296.8,393.5,296.8,397.2z"/>
	<path class="st0" d="M314.6,397.2c0,3.7-3,6.8-6.7,6.8c-3.7,0-6.8-3-6.8-6.8c0-3.7,3-6.8,6.8-6.8
		C311.6,390.5,314.6,393.5,314.6,397.2z"/>
	<path class="st0" d="M528.7,397.3c0,3.7-3,6.8-6.8,6.8c-3.7,0-6.8-3-6.8-6.8c0-3.7,3-6.7,6.8-6.7
		C525.7,390.5,528.7,393.6,528.7,397.3z"/>
	<path class="st0" d="M546.6,397.3c0,3.7-3,6.7-6.8,6.7s-6.8-3-6.8-6.7c0-3.7,3-6.8,6.8-6.8S546.6,393.6,546.6,397.3z"/>
	<path class="st0" d="M564.4,397.4c0,3.7-3,6.8-6.8,6.8c-3.7,0-6.8-3-6.8-6.8c0-3.7,3-6.8,6.8-6.8
		C561.4,390.6,564.4,393.6,564.4,397.4z"/>
	<path class="st0" d="M582.3,397.2c0,3.7-3,6.8-6.8,6.8c-3.7,0-6.8-3-6.8-6.8c0-3.7,3-6.7,6.8-6.7
		C579.3,390.5,582.3,393.5,582.3,397.2z"/>
	<path class="st0" d="M600.1,397.2c0,3.7-3,6.8-6.8,6.8c-3.7,0-6.7-3-6.7-6.8c0-3.7,3-6.7,6.7-6.7
		C597.1,390.5,600.1,393.5,600.1,397.2z"/>
	<path class="st0" d="M618,397.6c0,3.7-3,6.8-6.8,6.8c-3.7,0-6.8-3-6.8-6.8c0-3.7,3-6.7,6.8-6.7C614.9,390.9,618,393.9,618,397.6z"
		/>
	<path class="st0" d="M867.8,397.4c0,3.7-3,6.8-6.8,6.8c-3.7,0-6.8-3-6.8-6.8c0-3.7,3-6.7,6.8-6.7
		C864.8,390.6,867.8,393.6,867.8,397.4z"/>
	<path class="st0" d="M903.5,397.6c0,3.7-3,6.7-6.8,6.7c-3.7,0-6.8-3-6.8-6.7c0-3.7,3-6.8,6.8-6.8
		C900.5,390.9,903.5,393.9,903.5,397.6z"/>
	<path class="st0" d="M992.7,397.6c0,3.7-3,6.8-6.7,6.8c-3.7,0-6.8-3-6.8-6.8c0-3.7,3-6.7,6.8-6.7
		C989.7,390.8,992.7,393.9,992.7,397.6z"/>
	<path class="st0" d="M1010.6,397.4c0,3.7-3,6.8-6.8,6.8c-3.7,0-6.8-3-6.8-6.8c0-3.7,3-6.7,6.8-6.7
		C1007.5,390.6,1010.6,393.7,1010.6,397.4z"/>
	<path class="st0" d="M171.8,416.5c0,3.7-3,6.7-6.8,6.7c-3.7,0-6.7-3-6.7-6.7c0-3.7,3-6.7,6.7-6.7
		C168.8,409.8,171.8,412.8,171.8,416.5z"/>
	<path class="st0" d="M189.7,416.7c0,3.7-3,6.7-6.8,6.7c-3.7,0-6.7-3-6.7-6.7c0-3.7,3-6.8,6.7-6.8C186.7,410,189.7,413,189.7,416.7z
		"/>
	<path class="st0" d="M207.5,416.7c0,3.7-3,6.8-6.8,6.8c-3.7,0-6.8-3-6.8-6.8c0-3.7,3-6.7,6.8-6.7C204.5,410,207.5,413,207.5,416.7z
		"/>
	<path class="st0" d="M225.4,416.5c0,3.7-3,6.7-6.8,6.7c-3.7,0-6.7-3-6.7-6.7c0-3.7,3-6.8,6.7-6.8
		C222.3,409.8,225.4,412.8,225.4,416.5z"/>
	<path class="st0" d="M243.2,416.5c0,3.7-3,6.7-6.8,6.7c-3.7,0-6.7-3-6.7-6.7c0-3.7,3-6.8,6.7-6.8
		C240.2,409.8,243.2,412.8,243.2,416.5z"/>
	<path class="st0" d="M261.1,416.6c0,3.7-3,6.8-6.8,6.8c-3.7,0-6.7-3-6.7-6.8c0-3.7,3-6.8,6.7-6.8
		C258,409.9,261.1,412.9,261.1,416.6z"/>
	<path class="st0" d="M278.9,416.6c0,3.7-3,6.8-6.8,6.8c-3.7,0-6.7-3-6.7-6.8c0-3.7,3-6.7,6.7-6.7
		C275.9,409.9,278.9,412.9,278.9,416.6z"/>
	<path class="st0" d="M296.8,416.5c0,3.7-3,6.8-6.8,6.8c-3.7,0-6.8-3-6.8-6.8c0-3.7,3-6.8,6.8-6.8
		C293.7,409.7,296.8,412.7,296.8,416.5z"/>
	<path class="st0" d="M314.6,416.5c0,3.7-3,6.8-6.8,6.8c-3.7,0-6.8-3-6.8-6.8c0-3.7,3-6.8,6.8-6.8
		C311.6,409.7,314.6,412.7,314.6,416.5z"/>
	<path class="st0" d="M332.4,416.7c0,3.7-3,6.8-6.8,6.8c-3.7,0-6.8-3-6.8-6.8c0-3.7,3-6.8,6.8-6.8C329.4,410,332.4,413,332.4,416.7z
		"/>
	<path class="st0" d="M528.7,416.5c0,3.7-3,6.8-6.8,6.8c-3.7,0-6.7-3-6.7-6.8c0-3.7,3-6.8,6.7-6.8
		C525.7,409.8,528.7,412.8,528.7,416.5z"/>
	<path class="st0" d="M546.6,416.6c0,3.7-3,6.8-6.8,6.8c-3.7,0-6.8-3-6.8-6.8c0-3.7,3-6.8,6.8-6.8
		C543.6,409.8,546.6,412.9,546.6,416.6z"/>
	<path class="st0" d="M564.4,416.6c0,3.7-3,6.8-6.8,6.8c-3.7,0-6.8-3-6.8-6.8c0-3.7,3-6.7,6.8-6.7
		C561.4,409.8,564.4,412.9,564.4,416.6z"/>
	<path class="st0" d="M582.3,416.5c0,3.7-3,6.8-6.8,6.8c-3.7,0-6.8-3-6.8-6.8c0-3.7,3-6.7,6.8-6.7
		C579.3,409.7,582.3,412.7,582.3,416.5z"/>
	<path class="st0" d="M600.1,416.5c0,3.7-3,6.8-6.8,6.8c-3.7,0-6.7-3-6.7-6.8c0-3.7,3-6.7,6.7-6.7
		C597.1,409.7,600.1,412.7,600.1,416.5z"/>
	<path class="st0" d="M618,416.9c0,3.7-3,6.8-6.7,6.8c-3.7,0-6.8-3-6.8-6.8c0-3.7,3-6.7,6.8-6.7C614.9,410.1,618,413.1,618,416.9z"
		/>
	<path class="st0" d="M1010.5,416.6c0,3.7-3,6.8-6.7,6.8c-3.7,0-6.8-3-6.8-6.8c0-3.7,3-6.7,6.8-6.7
		C1007.5,409.9,1010.5,412.9,1010.5,416.6z"/>
	<path class="st0" d="M1028.4,416.6c0,3.7-3,6.8-6.8,6.8c-3.7,0-6.8-3-6.8-6.8c0-3.7,3-6.8,6.8-6.8
		C1025.4,409.9,1028.4,412.9,1028.4,416.6z"/>
	<path class="st0" d="M171.8,435.7c0,3.7-3,6.7-6.8,6.7c-3.7,0-6.8-3-6.8-6.7c0-3.7,3-6.8,6.8-6.8C168.8,429,171.8,432,171.8,435.7z
		"/>
	<path class="st0" d="M189.7,436c0,3.7-3,6.7-6.8,6.7c-3.7,0-6.7-3-6.7-6.7c0-3.7,3-6.8,6.7-6.8C186.7,429.2,189.7,432.2,189.7,436z
		"/>
	<path class="st0" d="M207.5,436c0,3.7-3,6.8-6.7,6.8c-3.7,0-6.8-3-6.8-6.8c0-3.7,3-6.7,6.8-6.7C204.5,429.2,207.5,432.2,207.5,436z
		"/>
	<path class="st0" d="M225.4,435.8c0,3.7-3,6.8-6.8,6.8s-6.8-3-6.8-6.8c0-3.7,3-6.8,6.8-6.8S225.4,432,225.4,435.8z"/>
	<path class="st0" d="M243.2,435.8c0,3.7-3,6.8-6.7,6.8c-3.7,0-6.8-3-6.8-6.8c0-3.7,3-6.8,6.8-6.8C240.2,429,243.2,432,243.2,435.8z
		"/>
	<path class="st0" d="M261.1,435.8c0,3.7-3,6.8-6.8,6.8c-3.7,0-6.8-3-6.8-6.8c0-3.7,3-6.8,6.8-6.8
		C258,429.1,261.1,432.1,261.1,435.8z"/>
	<path class="st0" d="M278.9,435.8c0,3.7-3,6.8-6.7,6.8c-3.7,0-6.8-3-6.8-6.8c0-3.7,3-6.7,6.8-6.7
		C275.9,429.1,278.9,432.1,278.9,435.8z"/>
	<path class="st0" d="M296.8,435.7c0,3.7-3,6.8-6.7,6.8c-3.7,0-6.8-3-6.8-6.8c0-3.7,3-6.8,6.8-6.8
		C293.7,428.9,296.8,432,296.8,435.7z"/>
	<path class="st0" d="M314.6,435.7c0,3.7-3,6.8-6.7,6.8c-3.7,0-6.8-3-6.8-6.8c0-3.7,3-6.8,6.8-6.8C311.6,429,314.6,432,314.6,435.7z
		"/>
	<path class="st0" d="M528.7,435.7c0,3.7-3,6.8-6.8,6.8c-3.7,0-6.8-3-6.8-6.8c0-3.7,3-6.7,6.8-6.7C525.7,429,528.7,432,528.7,435.7z
		"/>
	<path class="st0" d="M546.6,435.8c0,3.7-3,6.8-6.8,6.8s-6.8-3-6.8-6.8c0-3.7,3-6.8,6.8-6.8S546.6,432.1,546.6,435.8z"/>
	<path class="st0" d="M564.4,435.8c0,3.7-3,6.8-6.8,6.8c-3.7,0-6.8-3-6.8-6.8c0-3.7,3-6.8,6.8-6.8
		C561.4,429.1,564.4,432.1,564.4,435.8z"/>
	<path class="st0" d="M582.3,435.7c0,3.7-3,6.8-6.8,6.8c-3.7,0-6.8-3-6.8-6.8c0-3.7,3-6.8,6.8-6.8
		C579.3,428.9,582.3,432,582.3,435.7z"/>
	<path class="st0" d="M600.1,435.7c0,3.7-3,6.8-6.8,6.8c-3.7,0-6.7-3-6.7-6.8c0-3.7,3-6.7,6.7-6.7
		C597.1,428.9,600.1,432,600.1,435.7z"/>
	<path class="st0" d="M618,436.1c0,3.7-3,6.8-6.8,6.8c-3.7,0-6.8-3-6.8-6.8c0-3.7,3-6.7,6.8-6.7C614.9,429.4,618,432.4,618,436.1z"
		/>
	<path class="st0" d="M653.7,436c0,3.7-3,6.8-6.8,6.8c-3.7,0-6.8-3-6.8-6.8c0-3.7,3-6.7,6.8-6.7C650.6,429.2,653.7,432.3,653.7,436z
		"/>
	<path class="st0" d="M974.9,436c0,3.7-3,6.8-6.8,6.8c-3.7,0-6.8-3-6.8-6.8c0-3.7,3-6.7,6.8-6.7C971.9,429.3,974.9,432.3,974.9,436z
		"/>
	<path class="st0" d="M189.7,455.2c0,3.7-3,6.7-6.8,6.7c-3.7,0-6.7-3-6.7-6.7c0-3.7,3-6.7,6.7-6.7
		C186.7,448.4,189.7,451.5,189.7,455.2z"/>
	<path class="st0" d="M207.5,455.2c0,3.7-3,6.8-6.7,6.8c-3.7,0-6.8-3-6.8-6.8c0-3.7,3-6.8,6.8-6.8
		C204.5,448.4,207.5,451.5,207.5,455.2z"/>
	<path class="st0" d="M225.4,455c0,3.7-3,6.8-6.8,6.8s-6.8-3-6.8-6.8c0-3.7,3-6.8,6.8-6.8S225.4,451.3,225.4,455z"/>
	<path class="st0" d="M243.2,455c0,3.7-3,6.8-6.7,6.8c-3.7,0-6.8-3-6.8-6.8c0-3.7,3-6.7,6.8-6.7C240.2,448.2,243.2,451.3,243.2,455z
		"/>
	<path class="st0" d="M261.1,455.1c0,3.7-3,6.7-6.8,6.7c-3.7,0-6.8-3-6.8-6.7c0-3.7,3-6.8,6.8-6.8
		C258,448.3,261.1,451.3,261.1,455.1z"/>
	<path class="st0" d="M278.9,455.1c0,3.7-3,6.8-6.7,6.8c-3.7,0-6.8-3-6.8-6.8c0-3.7,3-6.8,6.8-6.8
		C275.9,448.3,278.9,451.3,278.9,455.1z"/>
	<path class="st0" d="M296.8,454.9c0,3.7-3,6.8-6.7,6.8c-3.7,0-6.8-3-6.8-6.8c0-3.7,3-6.7,6.8-6.7
		C293.7,448.2,296.8,451.2,296.8,454.9z"/>
	<path class="st0" d="M314.6,454.9c0,3.7-3,6.8-6.7,6.8c-3.7,0-6.8-3-6.8-6.8c0-3.7,3-6.7,6.8-6.7
		C311.6,448.2,314.6,451.2,314.6,454.9z"/>
	<path class="st0" d="M528.7,455c0,3.7-3,6.8-6.8,6.8c-3.7,0-6.8-3-6.8-6.8c0-3.7,3-6.7,6.8-6.7C525.7,448.2,528.7,451.2,528.7,455z
		"/>
	<path class="st0" d="M546.6,455c0,3.7-3,6.8-6.8,6.8s-6.8-3-6.8-6.8c0-3.7,3-6.7,6.8-6.7S546.6,451.3,546.6,455z"/>
	<path class="st0" d="M564.4,455c0,3.7-3,6.8-6.8,6.8c-3.7,0-6.8-3-6.8-6.8c0-3.7,3-6.7,6.8-6.7C561.4,448.3,564.4,451.3,564.4,455z
		"/>
	<path class="st0" d="M582.3,454.9c0,3.7-3,6.8-6.8,6.8c-3.7,0-6.8-3-6.8-6.8c0-3.7,3-6.8,6.8-6.8
		C579.3,448.2,582.3,451.2,582.3,454.9z"/>
	<path class="st0" d="M600.1,454.9c0,3.7-3,6.8-6.8,6.8c-3.7,0-6.7-3-6.7-6.8c0-3.7,3-6.7,6.7-6.7
		C597.1,448.2,600.1,451.2,600.1,454.9z"/>
	<path class="st0" d="M618,455.3c0,3.7-3,6.8-6.8,6.8c-3.7,0-6.8-3-6.8-6.8c0-3.7,3-6.7,6.8-6.7C614.9,448.6,618,451.6,618,455.3z"
		/>
	<path class="st0" d="M653.7,455.2c0,3.7-3,6.8-6.8,6.8c-3.7,0-6.8-3-6.8-6.8c0-3.7,3-6.7,6.8-6.7
		C650.6,448.5,653.7,451.5,653.7,455.2z"/>
	<path class="st0" d="M939.2,455.2c0,3.7-3,6.8-6.8,6.8c-3.7,0-6.8-3-6.8-6.8c0-3.7,3-6.8,6.8-6.8
		C936.2,448.4,939.2,451.5,939.2,455.2z"/>
	<path class="st0" d="M957,455.2c0,3.7-3,6.8-6.8,6.8c-3.7,0-6.7-3-6.7-6.8c0-3.7,3-6.8,6.7-6.8C954,448.4,957,451.5,957,455.2z"/>
	<path class="st0" d="M974.9,455.3c0,3.7-3,6.8-6.8,6.8c-3.7,0-6.8-3-6.8-6.8c0-3.7,3-6.7,6.8-6.7
		C971.9,448.5,974.9,451.5,974.9,455.3z"/>
	<path class="st0" d="M992.7,455.3c0,3.7-3,6.7-6.7,6.7c-3.7,0-6.8-3-6.8-6.7c0-3.7,3-6.7,6.8-6.7
		C989.7,448.5,992.7,451.6,992.7,455.3z"/>
	<path class="st0" d="M207.5,474.4c0,3.7-3,6.8-6.7,6.8c-3.7,0-6.8-3-6.8-6.8c0-3.7,3-6.7,6.8-6.7
		C204.5,467.7,207.5,470.7,207.5,474.4z"/>
	<path class="st0" d="M225.4,474.2c0,3.7-3,6.8-6.8,6.8c-3.7,0-6.8-3-6.8-6.8c0-3.7,3-6.8,6.8-6.8
		C222.3,467.5,225.4,470.5,225.4,474.2z"/>
	<path class="st0" d="M243.2,474.2c0,3.7-3,6.8-6.8,6.8c-3.7,0-6.7-3-6.7-6.8c0-3.7,3-6.7,6.7-6.7
		C240.2,467.5,243.2,470.5,243.2,474.2z"/>
	<path class="st0" d="M261.1,474.3c0,3.7-3,6.8-6.8,6.8c-3.7,0-6.7-3-6.7-6.8c0-3.7,3-6.8,6.7-6.8
		C258,467.5,261.1,470.6,261.1,474.3z"/>
	<path class="st0" d="M278.9,474.3c0,3.7-3,6.8-6.8,6.8c-3.7,0-6.7-3-6.7-6.8c0-3.7,3-6.8,6.7-6.8
		C275.9,467.5,278.9,470.6,278.9,474.3z"/>
	<path class="st0" d="M296.8,474.2c0,3.7-3,6.8-6.8,6.8c-3.7,0-6.7-3-6.7-6.8c0-3.7,3-6.8,6.7-6.8
		C293.7,467.4,296.8,470.4,296.8,474.2z"/>
	<path class="st0" d="M314.6,474.2c0,3.7-3,6.7-6.7,6.7c-3.7,0-6.8-3-6.8-6.7c0-3.7,3-6.8,6.8-6.8
		C311.6,467.4,314.6,470.4,314.6,474.2z"/>
	<path class="st0" d="M528.7,474.2c0,3.7-3,6.8-6.8,6.8c-3.7,0-6.8-3-6.8-6.8c0-3.7,3-6.8,6.8-6.8
		C525.7,467.5,528.7,470.5,528.7,474.2z"/>
	<path class="st0" d="M546.6,474.3c0,3.7-3,6.8-6.8,6.8c-3.7,0-6.8-3-6.8-6.8c0-3.7,3-6.8,6.8-6.8
		C543.6,467.5,546.6,470.5,546.6,474.3z"/>
	<path class="st0" d="M564.4,474.3c0,3.7-3,6.8-6.8,6.8c-3.7,0-6.7-3-6.7-6.8c0-3.7,3-6.8,6.7-6.8
		C561.4,467.5,564.4,470.6,564.4,474.3z"/>
	<path class="st0" d="M582.3,474.2c0,3.7-3,6.8-6.8,6.8c-3.7,0-6.8-3-6.8-6.8c0-3.7,3-6.7,6.8-6.7
		C579.3,467.4,582.3,470.4,582.3,474.2z"/>
	<path class="st0" d="M600.1,474.1c0,3.7-3,6.7-6.8,6.7c-3.7,0-6.7-3-6.7-6.7c0-3.7,3-6.8,6.7-6.8
		C597.1,467.4,600.1,470.4,600.1,474.1z"/>
	<path class="st0" d="M635.8,474.6c0,3.7-3,6.8-6.8,6.8c-3.7,0-6.8-3-6.8-6.8c0-3.7,3-6.7,6.8-6.7
		C632.8,467.8,635.8,470.8,635.8,474.6z"/>
	<path class="st0" d="M653.7,474.4c0,3.7-3,6.8-6.8,6.8c-3.7,0-6.8-3-6.8-6.8c0-3.7,3-6.7,6.8-6.7
		C650.6,467.7,653.7,470.7,653.7,474.4z"/>
	<path class="st0" d="M921.3,474.6c0,3.7-3,6.8-6.8,6.8c-3.7,0-6.8-3-6.8-6.8c0-3.7,3-6.8,6.8-6.8
		C918.3,467.8,921.3,470.8,921.3,474.6z"/>
	<path class="st0" d="M939.2,474.4c0,3.7-3,6.8-6.8,6.8c-3.7,0-6.8-3-6.8-6.8c0-3.7,3-6.8,6.8-6.8
		C936.2,467.7,939.2,470.7,939.2,474.4z"/>
	<path class="st0" d="M957,474.4c0,3.7-3,6.8-6.8,6.8c-3.7,0-6.8-3-6.8-6.8c0-3.7,3-6.8,6.8-6.8C954,467.7,957,470.7,957,474.4z"/>
	<path class="st0" d="M974.9,474.5c0,3.7-3,6.8-6.8,6.8c-3.7,0-6.8-3-6.8-6.8c0-3.7,3-6.8,6.8-6.8
		C971.9,467.7,974.9,470.8,974.9,474.5z"/>
	<path class="st0" d="M992.7,474.5c0,3.7-3,6.8-6.8,6.8c-3.7,0-6.8-3-6.8-6.8c0-3.7,3-6.8,6.8-6.8
		C989.7,467.8,992.7,470.8,992.7,474.5z"/>
	<path class="st0" d="M225.4,493.4c0,3.7-3,6.8-6.8,6.8s-6.8-3-6.8-6.8c0-3.7,3-6.8,6.8-6.8S225.4,489.7,225.4,493.4z"/>
	<path class="st0" d="M243.2,493.4c0,3.7-3,6.8-6.7,6.8c-3.7,0-6.8-3-6.8-6.8c0-3.7,3-6.7,6.8-6.7
		C240.2,486.7,243.2,489.7,243.2,493.4z"/>
	<path class="st0" d="M261.1,493.5c0,3.7-3,6.8-6.8,6.8c-3.7,0-6.8-3-6.8-6.8c0-3.7,3-6.7,6.8-6.7
		C258,486.8,261.1,489.8,261.1,493.5z"/>
	<path class="st0" d="M278.9,493.5c0,3.7-3,6.8-6.7,6.8c-3.7,0-6.8-3-6.8-6.8c0-3.7,3-6.8,6.8-6.8
		C275.9,486.8,278.9,489.8,278.9,493.5z"/>
	<path class="st0" d="M296.8,493.4c0,3.7-3,6.7-6.7,6.7c-3.7,0-6.8-3-6.8-6.7c0-3.7,3-6.8,6.8-6.8
		C293.7,486.6,296.8,489.7,296.8,493.4z"/>
	<path class="st0" d="M528.7,493.4c0,3.7-3,6.8-6.8,6.8c-3.7,0-6.8-3-6.8-6.8c0-3.7,3-6.7,6.8-6.7
		C525.7,486.7,528.7,489.7,528.7,493.4z"/>
	<path class="st0" d="M546.6,493.5c0,3.7-3,6.8-6.8,6.8s-6.8-3-6.8-6.8c0-3.7,3-6.8,6.8-6.8S546.6,489.8,546.6,493.5z"/>
	<path class="st0" d="M564.4,493.5c0,3.7-3,6.8-6.8,6.8c-3.7,0-6.8-3-6.8-6.8c0-3.7,3-6.8,6.8-6.8
		C561.4,486.7,564.4,489.8,564.4,493.5z"/>
	<path class="st0" d="M582.3,493.4c0,3.7-3,6.8-6.8,6.8c-3.7,0-6.8-3-6.8-6.8c0-3.7,3-6.8,6.8-6.8
		C579.3,486.6,582.3,489.7,582.3,493.4z"/>
	<path class="st0" d="M600.1,493.4c0,3.7-3,6.8-6.8,6.8c-3.7,0-6.7-3-6.7-6.8c0-3.7,3-6.7,6.7-6.7
		C597.1,486.6,600.1,489.6,600.1,493.4z"/>
	<path class="st0" d="M635.8,493.8c0,3.7-3,6.8-6.8,6.8c-3.7,0-6.8-3-6.8-6.8c0-3.7,3-6.7,6.8-6.7
		C632.8,487.1,635.8,490.1,635.8,493.8z"/>
	<path class="st0" d="M885.6,493.5c0,3.7-3,6.8-6.7,6.8c-3.7,0-6.8-3-6.8-6.8c0-3.7,3-6.7,6.8-6.7
		C882.6,486.8,885.6,489.8,885.6,493.5z"/>
	<path class="st0" d="M903.5,493.8c0,3.7-3,6.8-6.8,6.8c-3.7,0-6.8-3-6.8-6.8c0-3.7,3-6.7,6.8-6.7
		C900.5,487,903.5,490.1,903.5,493.8z"/>
	<path class="st0" d="M921.3,493.8c0,3.7-3,6.8-6.8,6.8c-3.7,0-6.8-3-6.8-6.8c0-3.7,3-6.8,6.8-6.8
		C918.3,487,921.3,490.1,921.3,493.8z"/>
	<path class="st0" d="M939.2,493.6c0,3.7-3,6.8-6.8,6.8c-3.7,0-6.8-3-6.8-6.8c0-3.7,3-6.8,6.8-6.8
		C936.2,486.9,939.2,489.9,939.2,493.6z"/>
	<path class="st0" d="M957,493.6c0,3.7-3,6.8-6.8,6.8c-3.7,0-6.7-3-6.7-6.8c0-3.7,3-6.7,6.7-6.7C954,486.9,957,489.9,957,493.6z"/>
	<path class="st0" d="M974.9,493.7c0,3.7-3,6.8-6.8,6.8c-3.7,0-6.8-3-6.8-6.8c0-3.7,3-6.7,6.8-6.7C971.9,487,974.9,490,974.9,493.7z
		"/>
	<path class="st0" d="M992.7,493.7c0,3.7-3,6.8-6.8,6.8c-3.7,0-6.8-3-6.8-6.8c0-3.7,3-6.7,6.8-6.7C989.7,487,992.7,490,992.7,493.7z
		"/>
	<path class="st0" d="M225.4,512.7c0,3.7-3,6.8-6.8,6.8c-3.7,0-6.8-3-6.8-6.8c0-3.7,3-6.7,6.8-6.7
		C222.3,505.9,225.4,508.9,225.4,512.7z"/>
	<path class="st0" d="M243.2,512.7c0,3.7-3,6.8-6.8,6.8c-3.7,0-6.7-3-6.7-6.8c0-3.7,3-6.7,6.7-6.7
		C240.2,505.9,243.2,509,243.2,512.7z"/>
	<path class="st0" d="M261.1,512.8c0,3.7-3,6.8-6.8,6.8c-3.7,0-6.7-3-6.7-6.8c0-3.7,3-6.8,6.7-6.8C258,506,261.1,509,261.1,512.8z"
		/>
	<path class="st0" d="M278.9,512.8c0,3.7-3,6.7-6.8,6.7c-3.7,0-6.7-3-6.7-6.7c0-3.7,3-6.8,6.7-6.8C275.9,506,278.9,509,278.9,512.8z
		"/>
	<path class="st0" d="M528.7,512.7c0,3.7-3,6.8-6.8,6.8c-3.7,0-6.8-3-6.8-6.8c0-3.7,3-6.8,6.8-6.8
		C525.7,505.9,528.7,508.9,528.7,512.7z"/>
	<path class="st0" d="M546.6,512.7c0,3.7-3,6.7-6.8,6.7c-3.7,0-6.8-3-6.8-6.7c0-3.7,3-6.8,6.8-6.8C543.6,506,546.6,509,546.6,512.7z
		"/>
	<path class="st0" d="M564.4,512.7c0,3.7-3,6.8-6.8,6.8c-3.7,0-6.7-3-6.7-6.8c0-3.7,3-6.7,6.7-6.7C561.4,506,564.4,509,564.4,512.7z
		"/>
	<path class="st0" d="M582.3,512.6c0,3.7-3,6.7-6.8,6.7c-3.7,0-6.8-3-6.8-6.7c0-3.7,3-6.8,6.8-6.8
		C579.3,505.9,582.3,508.9,582.3,512.6z"/>
	<path class="st0" d="M885.6,512.7c0,3.7-3,6.8-6.8,6.8c-3.7,0-6.8-3-6.8-6.8c0-3.7,3-6.7,6.8-6.7C882.6,506,885.6,509,885.6,512.7z
		"/>
	<path class="st0" d="M903.5,513c0,3.7-3,6.8-6.8,6.8c-3.7,0-6.7-3-6.7-6.8c0-3.7,3-6.7,6.7-6.7C900.5,506.3,903.5,509.3,903.5,513z
		"/>
	<path class="st0" d="M921.3,513c0,3.7-3,6.8-6.8,6.8c-3.7,0-6.8-3-6.8-6.8c0-3.7,3-6.8,6.8-6.8C918.3,506.3,921.3,509.3,921.3,513z
		"/>
	<path class="st0" d="M939.2,512.9c0,3.7-3,6.8-6.8,6.8c-3.7,0-6.8-3-6.8-6.8c0-3.7,3-6.8,6.8-6.8
		C936.2,506.1,939.2,509.2,939.2,512.9z"/>
	<path class="st0" d="M957,512.9c0,3.7-3,6.8-6.8,6.8c-3.7,0-6.8-3-6.8-6.8c0-3.7,3-6.8,6.8-6.8C954,506.1,957,509.2,957,512.9z"/>
	<path class="st0" d="M974.9,513c0,3.7-3,6.8-6.8,6.8c-3.7,0-6.8-3-6.8-6.8c0-3.7,3-6.8,6.8-6.8C971.9,506.2,974.9,509.2,974.9,513z
		"/>
	<path class="st0" d="M992.7,513c0,3.7-3,6.8-6.8,6.8c-3.7,0-6.8-3-6.8-6.8c0-3.7,3-6.7,6.8-6.7C989.7,506.2,992.7,509.2,992.7,513z
		"/>
	<path class="st0" d="M225.4,531.9c0,3.7-3,6.8-6.8,6.8c-3.7,0-6.8-3-6.8-6.8c0-3.7,3-6.8,6.8-6.8
		C222.3,525.2,225.4,528.2,225.4,531.9z"/>
	<path class="st0" d="M243.2,531.9c0,3.7-3,6.8-6.8,6.8c-3.7,0-6.7-3-6.7-6.8c0-3.7,3-6.7,6.7-6.7
		C240.2,525.2,243.2,528.2,243.2,531.9z"/>
	<path class="st0" d="M261.1,532c0,3.7-3,6.8-6.8,6.8c-3.7,0-6.7-3-6.7-6.8c0-3.7,3-6.8,6.7-6.8C258,525.2,261.1,528.3,261.1,532z"
		/>
	<path class="st0" d="M278.9,532c0,3.7-3,6.7-6.8,6.7c-3.7,0-6.7-3-6.7-6.7c0-3.7,3-6.8,6.7-6.8C275.9,525.2,278.9,528.3,278.9,532z
		"/>
	<path class="st0" d="M546.6,531.9c0,3.7-3,6.8-6.8,6.8c-3.7,0-6.8-3-6.8-6.8c0-3.7,3-6.7,6.8-6.7
		C543.6,525.2,546.6,528.2,546.6,531.9z"/>
	<path class="st0" d="M564.4,532c0,3.7-3,6.7-6.8,6.7c-3.7,0-6.7-3-6.7-6.7c0-3.7,3-6.8,6.7-6.8C561.4,525.2,564.4,528.2,564.4,532z
		"/>
	<path class="st0" d="M885.6,532c0,3.7-3,6.8-6.8,6.8c-3.7,0-6.8-3-6.8-6.8c0-3.7,3-6.8,6.8-6.8C882.6,525.2,885.6,528.3,885.6,532z
		"/>
	<path class="st0" d="M903.5,532.2c0,3.7-3,6.8-6.8,6.8c-3.7,0-6.7-3-6.7-6.8c0-3.7,3-6.7,6.7-6.7
		C900.5,525.5,903.5,528.5,903.5,532.2z"/>
	<path class="st0" d="M921.3,532.3c0,3.7-3,6.8-6.8,6.8c-3.7,0-6.8-3-6.8-6.8c0-3.7,3-6.8,6.8-6.8
		C918.3,525.5,921.3,528.5,921.3,532.3z"/>
	<path class="st0" d="M939.2,532.1c0,3.7-3,6.8-6.8,6.8c-3.7,0-6.8-3-6.8-6.8c0-3.7,3-6.8,6.8-6.8
		C936.2,525.4,939.2,528.4,939.2,532.1z"/>
	<path class="st0" d="M957,532.1c0,3.7-3,6.8-6.8,6.8c-3.7,0-6.8-3-6.8-6.8c0-3.7,3-6.8,6.8-6.8C954,525.4,957,528.4,957,532.1z"/>
	<path class="st0" d="M974.9,532.2c0,3.7-3,6.8-6.8,6.8c-3.7,0-6.8-3-6.8-6.8c0-3.7,3-6.7,6.8-6.7
		C971.9,525.4,974.9,528.5,974.9,532.2z"/>
	<path class="st0" d="M992.7,532.2c0,3.7-3,6.8-6.8,6.8c-3.7,0-6.8-3-6.8-6.8c0-3.7,3-6.8,6.8-6.8
		C989.7,525.4,992.7,528.5,992.7,532.2z"/>
	<path class="st0" d="M225.4,551.1c0,3.7-3,6.8-6.8,6.8c-3.7,0-6.7-3-6.7-6.8c0-3.7,3-6.8,6.7-6.8
		C222.3,544.4,225.4,547.4,225.4,551.1z"/>
	<path class="st0" d="M243.2,551.1c0,3.7-3,6.8-6.8,6.8c-3.7,0-6.7-3-6.7-6.8c0-3.7,3-6.8,6.7-6.8
		C240.2,544.4,243.2,547.4,243.2,551.1z"/>
	<path class="st0" d="M261.1,551.2c0,3.7-3,6.8-6.8,6.8c-3.7,0-6.7-3-6.7-6.8c0-3.7,3-6.8,6.7-6.8
		C258,544.5,261.1,547.5,261.1,551.2z"/>
	<path class="st0" d="M939.2,551.3c0,3.7-3,6.8-6.8,6.8c-3.7,0-6.8-3-6.8-6.8c0-3.7,3-6.7,6.8-6.7
		C936.2,544.6,939.2,547.6,939.2,551.3z"/>
	<path class="st0" d="M957,551.3c0,3.7-3,6.8-6.8,6.8c-3.7,0-6.7-3-6.7-6.8c0-3.7,3-6.8,6.7-6.8C954,544.6,957,547.6,957,551.3z"/>
	<path class="st0" d="M974.9,551.4c0,3.7-3,6.8-6.8,6.8c-3.7,0-6.8-3-6.8-6.8c0-3.7,3-6.8,6.8-6.8
		C971.9,544.7,974.9,547.7,974.9,551.4z"/>
	<path class="st0" d="M225.4,570.4c0,3.7-3,6.8-6.8,6.8c-3.7,0-6.8-3-6.8-6.8c0-3.7,3-6.8,6.8-6.8
		C222.3,563.6,225.4,566.6,225.4,570.4z"/>
	<path class="st0" d="M243.2,570.4c0,3.7-3,6.7-6.8,6.7c-3.7,0-6.7-3-6.7-6.7c0-3.7,3-6.8,6.7-6.8
		C240.2,563.6,243.2,566.6,243.2,570.4z"/>
	<path class="st0" d="M261.1,570.5c0,3.7-3,6.8-6.8,6.8c-3.7,0-6.7-3-6.7-6.8c0-3.7,3-6.8,6.7-6.8
		C258,563.7,261.1,566.7,261.1,570.5z"/>
	<path class="st0" d="M939.2,570.6c0,3.7-3,6.8-6.8,6.8c-3.7,0-6.8-3-6.8-6.8c0-3.7,3-6.8,6.8-6.8
		C936.2,563.8,939.2,566.8,939.2,570.6z"/>
	<path class="st0" d="M957,570.6c0,3.7-3,6.7-6.8,6.7c-3.7,0-6.8-3-6.8-6.7c0-3.7,3-6.8,6.8-6.8C954,563.8,957,566.8,957,570.6z"/>
	<path class="st0" d="M1028.4,570.5c0,3.7-3,6.8-6.8,6.8c-3.7,0-6.8-3-6.8-6.8c0-3.7,3-6.8,6.8-6.8
		C1025.4,563.7,1028.4,566.7,1028.4,570.5z"/>
	<path class="st0" d="M243.2,589.6c0,3.7-3,6.8-6.8,6.8c-3.7,0-6.7-3-6.7-6.8c0-3.7,3-6.7,6.7-6.7
		C240.2,582.9,243.2,585.9,243.2,589.6z"/>
	<path class="st0" d="M261.1,589.7c0,3.7-3,6.8-6.8,6.8c-3.7,0-6.7-3-6.7-6.8c0-3.7,3-6.7,6.7-6.7C258,582.9,261.1,586,261.1,589.7z
		"/>
	<path class="st0" d="M939.2,589.8c0,3.7-3,6.8-6.8,6.8c-3.7,0-6.8-3-6.8-6.8c0-3.7,3-6.7,6.8-6.7
		C936.2,583,939.2,586.1,939.2,589.8z"/>
	<path class="st0" d="M1010.5,589.7c0,3.7-3,6.7-6.7,6.7c-3.7,0-6.8-3-6.8-6.7c0-3.7,3-6.8,6.8-6.8
		C1007.5,582.9,1010.5,586,1010.5,589.7z"/>
	<path class="st0" d="M1028.4,589.7c0,3.7-3,6.8-6.8,6.8c-3.7,0-6.8-3-6.8-6.8c0-3.7,3-6.7,6.8-6.7
		C1025.4,583,1028.4,586,1028.4,589.7z"/>
	<path class="st0" d="M243.2,608.8c0,3.7-3,6.8-6.8,6.8c-3.7,0-6.7-3-6.7-6.8c0-3.7,3-6.7,6.7-6.7
		C240.2,602.1,243.2,605.1,243.2,608.8z"/>
	<path class="st0" d="M261.1,608.9c0,3.7-3,6.8-6.8,6.8c-3.7,0-6.7-3-6.7-6.8c0-3.7,3-6.7,6.7-6.7
		C258,602.2,261.1,605.2,261.1,608.9z"/>
	<path class="st0" d="M974.9,609.1c0,3.7-3,6.8-6.8,6.8c-3.7,0-6.8-3-6.8-6.8c0-3.7,3-6.7,6.8-6.7
		C971.9,602.4,974.9,605.4,974.9,609.1z"/>
	<path class="st0" d="M992.7,609.1c0,3.7-3,6.8-6.7,6.8c-3.7,0-6.8-3-6.8-6.8c0-3.7,3-6.8,6.8-6.8
		C989.7,602.4,992.7,605.4,992.7,609.1z"/>
	<path class="st0" d="M261.1,628.1c0,3.7-3,6.8-6.8,6.8c-3.7,0-6.7-3-6.7-6.8c0-3.7,3-6.8,6.7-6.8
		C258,621.4,261.1,624.4,261.1,628.1z"/>
	<path class="st0" d="M117.7,51.2c0,3.7-3,6.8-6.8,6.8c-3.7,0-6.8-3-6.8-6.8c0-3.7,3-6.7,6.8-6.7C114.7,44.5,117.7,47.5,117.7,51.2z
		"/>
	<circle class="st0" cx="128.8" cy="51.2" r="6.8"/>
	<path class="st0" d="M331.8,51.3c0,3.7-3,6.8-6.8,6.8c-3.7,0-6.8-3-6.8-6.8c0-3.7,3-6.7,6.8-6.7C328.8,44.5,331.8,47.6,331.8,51.3z
		"/>
	<path class="st0" d="M349.7,51.3c0,3.7-3,6.8-6.8,6.8c-3.7,0-6.8-3-6.8-6.8c0-3.7,3-6.8,6.8-6.8C346.7,44.5,349.7,47.6,349.7,51.3z
		"/>
	<path class="st0" d="M367.5,51.1c0,3.7-3,6.8-6.7,6.8c-3.7,0-6.8-3-6.8-6.8c0-3.7,3-6.8,6.8-6.8C364.5,44.3,367.5,47.4,367.5,51.1z
		"/>
	<path class="st0" d="M385.4,51.1c0,3.7-3,6.8-6.8,6.8c-3.7,0-6.7-3-6.7-6.8c0-3.7,3-6.8,6.7-6.8C382.4,44.3,385.4,47.4,385.4,51.1z
		"/>
	<path class="st0" d="M403.2,51.2c0,3.7-3,6.8-6.8,6.8c-3.7,0-6.8-3-6.8-6.8c0-3.7,3-6.7,6.8-6.7C400.2,44.4,403.2,47.5,403.2,51.2z
		"/>
	<path class="st0" d="M421.1,51.2c0,3.7-3,6.8-6.8,6.8c-3.7,0-6.8-3-6.8-6.8c0-3.7,3-6.8,6.8-6.8C418,44.4,421.1,47.5,421.1,51.2z"
		/>
	<path class="st0" d="M438.9,51c0,3.7-3,6.8-6.8,6.8c-3.7,0-6.8-3-6.8-6.8c0-3.7,3-6.7,6.8-6.7C435.9,44.3,438.9,47.3,438.9,51z"/>
	<path class="st0" d="M653.1,51.3c0,3.7-3,6.8-6.8,6.8c-3.7,0-6.8-3-6.8-6.8c0-3.7,3-6.7,6.8-6.7C650,44.6,653.1,47.6,653.1,51.3z"
		/>
	<path class="st0" d="M670.9,51.3c0,3.7-3,6.8-6.8,6.8c-3.7,0-6.7-3-6.7-6.8c0-3.7,3-6.8,6.7-6.8C667.9,44.6,670.9,47.6,670.9,51.3z
		"/>
	<path class="st0" d="M688.8,51.4c0,3.7-3,6.8-6.8,6.8c-3.7,0-6.8-3-6.8-6.8s3-6.8,6.8-6.8C685.7,44.6,688.8,47.6,688.8,51.4z"/>
	<path class="st0" d="M706.6,51.4c0,3.7-3,6.8-6.8,6.8c-3.7,0-6.7-3-6.7-6.8c0-3.7,3-6.8,6.7-6.8C703.6,44.6,706.6,47.7,706.6,51.4z
		"/>
	<path class="st0" d="M724.4,51.2c0,3.7-3,6.8-6.8,6.8c-3.7,0-6.8-3-6.8-6.8c0-3.7,3-6.8,6.8-6.8C721.4,44.4,724.4,47.5,724.4,51.2z
		"/>
	<path class="st0" d="M742.3,51.2c0,3.7-3,6.8-6.8,6.8c-3.7,0-6.8-3-6.8-6.8c0-3.7,3-6.8,6.8-6.8C739.3,44.4,742.3,47.5,742.3,51.2z
		"/>
	<path class="st0" d="M760.1,51.4c0,3.7-3,6.8-6.8,6.8c-3.7,0-6.8-3-6.8-6.8c0-3.7,3-6.8,6.8-6.8C757.1,44.6,760.1,47.7,760.1,51.4z
		"/>
	<path class="st0" d="M778,51.4c0,3.7-3,6.8-6.8,6.8c-3.7,0-6.7-3-6.7-6.8c0-3.7,3-6.8,6.7-6.8C775,44.7,778,47.7,778,51.4z"/>
	<path class="st0" d="M795.8,51.3c0,3.7-3,6.8-6.8,6.8c-3.7,0-6.8-3-6.8-6.8c0-3.7,3-6.8,6.8-6.8C792.8,44.5,795.8,47.5,795.8,51.3z
		"/>
	<path class="st0" d="M813.7,51.3c0,3.7-3,6.8-6.8,6.8c-3.7,0-6.8-3-6.8-6.8c0-3.7,3-6.8,6.8-6.8C810.6,44.5,813.7,47.5,813.7,51.3z
		"/>
	<path class="st0" d="M831.5,51.3c0,3.7-3,6.8-6.7,6.8c-3.7,0-6.8-3-6.8-6.8c0-3.7,3-6.7,6.8-6.7C828.5,44.6,831.5,47.6,831.5,51.3z
		"/>
	<path class="st0" d="M849.4,51.4c0,3.7-3,6.8-6.8,6.8c-3.7,0-6.8-3-6.8-6.8c0-3.7,3-6.8,6.8-6.8C846.3,44.6,849.4,47.6,849.4,51.4z
		"/>
	<path class="st0" d="M867.2,51.1c0,3.7-3,6.8-6.8,6.8c-3.7,0-6.7-3-6.7-6.8c0-3.7,3-6.8,6.7-6.8C864.2,44.4,867.2,47.4,867.2,51.1z
		"/>
	<path class="st0" d="M82,70.3c0,3.7-3,6.8-6.8,6.8c-3.7,0-6.8-3-6.8-6.8c0-3.7,3-6.8,6.8-6.8C79,63.6,82,66.6,82,70.3z"/>
	<path class="st0" d="M99.9,70.3c0,3.7-3,6.8-6.8,6.8c-3.7,0-6.8-3-6.8-6.8c0-3.7,3-6.7,6.8-6.7C96.8,63.6,99.9,66.6,99.9,70.3z"/>
	<path class="st0" d="M117.7,70.4c0,3.7-3,6.8-6.8,6.8c-3.7,0-6.8-3-6.8-6.8c0-3.7,3-6.8,6.8-6.8C114.7,63.7,117.7,66.7,117.7,70.4z
		"/>
	<path class="st0" d="M135.5,70.4c0,3.7-3,6.8-6.8,6.8c-3.7,0-6.8-3-6.8-6.8c0-3.7,3-6.7,6.8-6.7C132.5,63.7,135.5,66.7,135.5,70.4z
		"/>
	<path class="st0" d="M153.4,70.3c0,3.7-3,6.8-6.8,6.8c-3.7,0-6.8-3-6.8-6.8c0-3.7,3-6.7,6.8-6.7C150.4,63.5,153.4,66.5,153.4,70.3z
		"/>
	<path class="st0" d="M171.2,70.3c0,3.7-3,6.8-6.7,6.8c-3.7,0-6.8-3-6.8-6.8c0-3.7,3-6.8,6.8-6.8C168.2,63.5,171.2,66.6,171.2,70.3z
		"/>
	<path class="st0" d="M189.1,70.5c0,3.7-3,6.8-6.8,6.8c-3.7,0-6.8-3-6.8-6.8c0-3.7,3-6.8,6.8-6.8C186.1,63.7,189.1,66.8,189.1,70.5z
		"/>
	<path class="st0" d="M206.9,70.5c0,3.7-3,6.8-6.8,6.8c-3.7,0-6.8-3-6.8-6.8c0-3.7,3-6.8,6.8-6.8C203.9,63.7,206.9,66.8,206.9,70.5z
		"/>
	<path class="st0" d="M224.8,70.3c0,3.7-3,6.8-6.8,6.8c-3.7,0-6.8-3-6.8-6.8c0-3.7,3-6.7,6.8-6.7C221.7,63.6,224.8,66.6,224.8,70.3z
		"/>
	<circle class="st0" cx="235.9" cy="70.3" r="6.8"/>
	<path class="st0" d="M260.5,70.4c0,3.7-3,6.8-6.8,6.8c-3.7,0-6.7-3-6.7-6.8c0-3.7,3-6.8,6.7-6.8C257.4,63.6,260.5,66.7,260.5,70.4z
		"/>
	<path class="st0" d="M278.3,70.4c0,3.7-3,6.8-6.7,6.8c-3.7,0-6.8-3-6.8-6.8c0-3.7,3-6.7,6.8-6.7C275.3,63.6,278.3,66.7,278.3,70.4z
		"/>
	<path class="st0" d="M296.2,70.2c0,3.7-3,6.8-6.8,6.8c-3.7,0-6.8-3-6.8-6.8c0-3.7,3-6.8,6.8-6.8C293.1,63.5,296.2,66.5,296.2,70.2z
		"/>
	<circle class="st0" cx="342.9" cy="70.5" r="6.8"/>
	<path class="st0" d="M367.5,70.3c0,3.7-3,6.8-6.7,6.8c-3.7,0-6.8-3-6.8-6.8c0-3.7,3-6.8,6.8-6.8C364.5,63.6,367.5,66.6,367.5,70.3z
		"/>
	<path class="st0" d="M385.4,70.3c0,3.7-3,6.8-6.8,6.8c-3.7,0-6.7-3-6.7-6.8c0-3.7,3-6.8,6.7-6.8C382.4,63.6,385.4,66.6,385.4,70.3z
		"/>
	<path class="st0" d="M403.2,70.4c0,3.7-3,6.8-6.8,6.8c-3.7,0-6.8-3-6.8-6.8c0-3.7,3-6.8,6.8-6.8C400.2,63.7,403.2,66.7,403.2,70.4z
		"/>
	<path class="st0" d="M421.1,70.4c0,3.7-3,6.8-6.8,6.8c-3.7,0-6.8-3-6.8-6.8c0-3.7,3-6.7,6.8-6.7C418,63.7,421.1,66.7,421.1,70.4z"
		/>
	<path class="st0" d="M528.1,70.3c0,3.7-3,6.8-6.8,6.8c-3.7,0-6.8-3-6.8-6.8c0-3.7,3-6.8,6.8-6.8C525.1,63.5,528.1,66.6,528.1,70.3z
		"/>
	<path class="st0" d="M617.4,70.7c0,3.7-3,6.8-6.8,6.8c-3.7,0-6.7-3-6.7-6.8c0-3.7,3-6.8,6.7-6.8C614.4,63.9,617.4,66.9,617.4,70.7z
		"/>
	<path class="st0" d="M635.2,70.7c0,3.7-3,6.8-6.8,6.8c-3.7,0-6.8-3-6.8-6.8c0-3.7,3-6.8,6.8-6.8C632.2,63.9,635.2,66.9,635.2,70.7z
		"/>
	<path class="st0" d="M653.1,70.5c0,3.7-3,6.8-6.8,6.8c-3.7,0-6.8-3-6.8-6.8c0-3.7,3-6.8,6.8-6.8C650,63.8,653.1,66.8,653.1,70.5z"
		/>
	<path class="st0" d="M670.9,70.5c0,3.7-3,6.8-6.8,6.8c-3.7,0-6.7-3-6.7-6.8c0-3.7,3-6.7,6.7-6.7C667.9,63.8,670.9,66.8,670.9,70.5z
		"/>
	<path class="st0" d="M688.8,70.6c0,3.7-3,6.8-6.8,6.8c-3.7,0-6.8-3-6.8-6.8c0-3.7,3-6.8,6.8-6.8C685.7,63.9,688.8,66.9,688.8,70.6z
		"/>
	<path class="st0" d="M706.6,70.6c0,3.7-3,6.8-6.8,6.8c-3.7,0-6.7-3-6.7-6.8c0-3.7,3-6.8,6.7-6.8C703.6,63.9,706.6,66.9,706.6,70.6z
		"/>
	<path class="st0" d="M724.4,70.4c0,3.7-3,6.8-6.8,6.8c-3.7,0-6.8-3-6.8-6.8c0-3.7,3-6.8,6.8-6.8C721.4,63.7,724.4,66.7,724.4,70.4z
		"/>
	<path class="st0" d="M742.3,70.4c0,3.7-3,6.8-6.8,6.8c-3.7,0-6.8-3-6.8-6.8c0-3.7,3-6.7,6.8-6.7C739.3,63.7,742.3,66.7,742.3,70.4z
		"/>
	<path class="st0" d="M760.1,70.6c0,3.7-3,6.8-6.8,6.8c-3.7,0-6.8-3-6.8-6.8c0-3.7,3-6.8,6.8-6.8C757.1,63.9,760.1,66.9,760.1,70.6z
		"/>
	<path class="st0" d="M778,70.6c0,3.7-3,6.8-6.8,6.8c-3.7,0-6.7-3-6.7-6.8c0-3.7,3-6.8,6.7-6.8C775,63.9,778,66.9,778,70.6z"/>
	<path class="st0" d="M795.8,70.5c0,3.7-3,6.8-6.8,6.8c-3.7,0-6.8-3-6.8-6.8c0-3.7,3-6.8,6.8-6.8C792.8,63.7,795.8,66.8,795.8,70.5z
		"/>
	<path class="st0" d="M813.7,70.5c0,3.7-3,6.8-6.8,6.8c-3.7,0-6.8-3-6.8-6.8c0-3.7,3-6.8,6.8-6.8C810.6,63.7,813.7,66.8,813.7,70.5z
		"/>
	<path class="st0" d="M831.5,70.6c0,3.7-3,6.8-6.7,6.8c-3.7,0-6.8-3-6.8-6.8c0-3.7,3-6.8,6.8-6.8C828.5,63.8,831.5,66.8,831.5,70.6z
		"/>
	<path class="st0" d="M849.4,70.6c0,3.7-3,6.8-6.8,6.8c-3.7,0-6.8-3-6.8-6.8c0-3.7,3-6.8,6.8-6.8C846.3,63.8,849.4,66.9,849.4,70.6z
		"/>
	<path class="st0" d="M867.2,70.4c0,3.7-3,6.8-6.8,6.8c-3.7,0-6.7-3-6.7-6.8c0-3.7,3-6.8,6.7-6.8C864.2,63.6,867.2,66.6,867.2,70.4z
		"/>
	<path class="st0" d="M885.1,70.4c0,3.7-3,6.8-6.8,6.8c-3.7,0-6.7-3-6.7-6.8c0-3.7,3-6.7,6.7-6.7C882,63.6,885.1,66.7,885.1,70.4z"
		/>
	<circle class="st0" cx="57.4" cy="89.8" r="6.8"/>
	<path class="st0" d="M82,89.6c0,3.7-3,6.8-6.8,6.8c-3.7,0-6.8-3-6.8-6.8c0-3.7,3-6.7,6.8-6.7C79,82.8,82,85.8,82,89.6z"/>
	<path class="st0" d="M117.7,89.7c0,3.7-3,6.8-6.8,6.8c-3.7,0-6.8-3-6.8-6.8c0-3.7,3-6.8,6.8-6.8C114.7,82.9,117.7,85.9,117.7,89.7z
		"/>
	<path class="st0" d="M135.5,89.7c0,3.7-3,6.8-6.7,6.8c-3.7,0-6.8-3-6.8-6.8c0-3.7,3-6.8,6.8-6.8C132.5,82.9,135.5,86,135.5,89.7z"
		/>
	<path class="st0" d="M153.4,89.5c0,3.7-3,6.8-6.8,6.8c-3.7,0-6.8-3-6.8-6.8c0-3.7,3-6.8,6.8-6.8C150.4,82.8,153.4,85.8,153.4,89.5z
		"/>
	<path class="st0" d="M171.2,89.5c0,3.7-3,6.8-6.7,6.8c-3.7,0-6.8-3-6.8-6.8c0-3.7,3-6.7,6.8-6.7C168.2,82.8,171.2,85.8,171.2,89.5z
		"/>
	<path class="st0" d="M189.1,89.7c0,3.7-3,6.8-6.8,6.8c-3.7,0-6.8-3-6.8-6.8c0-3.7,3-6.7,6.8-6.7C186.1,83,189.1,86,189.1,89.7z"/>
	<path class="st0" d="M206.9,89.7c0,3.7-3,6.8-6.7,6.8c-3.7,0-6.8-3-6.8-6.8c0-3.7,3-6.8,6.8-6.8C203.9,83,206.9,86,206.9,89.7z"/>
	<path class="st0" d="M224.8,89.5c0,3.7-3,6.8-6.7,6.8c-3.7,0-6.8-3-6.8-6.8c0-3.7,3-6.8,6.8-6.8C221.7,82.8,224.8,85.8,224.8,89.5z
		"/>
	<path class="st0" d="M296.2,89.5c0,3.7-3,6.8-6.8,6.8c-3.7,0-6.8-3-6.8-6.8c0-3.7,3-6.8,6.8-6.8C293.1,82.7,296.2,85.8,296.2,89.5z
		"/>
	<path class="st0" d="M349.7,89.8c0,3.7-3,6.8-6.8,6.8c-3.7,0-6.8-3-6.8-6.8c0-3.7,3-6.8,6.8-6.8C346.7,83,349.7,86,349.7,89.8z"/>
	<path class="st0" d="M367.5,89.6c0,3.7-3,6.8-6.8,6.8c-3.7,0-6.8-3-6.8-6.8c0-3.7,3-6.8,6.8-6.8C364.5,82.8,367.5,85.8,367.5,89.6z
		"/>
	<path class="st0" d="M510.3,89.5c0,3.7-3,6.8-6.8,6.8c-3.7,0-6.7-3-6.7-6.8c0-3.7,3-6.8,6.7-6.8C507.3,82.8,510.3,85.8,510.3,89.5z
		"/>
	<path class="st0" d="M528.2,89.5c0,3.7-3,6.8-6.8,6.8c-3.7,0-6.8-3-6.8-6.8c0-3.7,3-6.8,6.8-6.8C525.1,82.8,528.2,85.8,528.2,89.5z
		"/>
	<path class="st0" d="M546,89.6c0,3.7-3,6.8-6.7,6.8c-3.7,0-6.8-3-6.8-6.8c0-3.7,3-6.7,6.8-6.7C543,82.8,546,85.9,546,89.6z"/>
	<circle class="st0" cx="557.1" cy="89.6" r="6.8"/>
	<path class="st0" d="M581.7,89.5c0,3.7-3,6.8-6.8,6.8c-3.7,0-6.8-3-6.8-6.8c0-3.7,3-6.7,6.8-6.7C578.7,82.7,581.7,85.7,581.7,89.5z
		"/>
	<path class="st0" d="M599.5,89.5c0,3.7-3,6.8-6.7,6.8c-3.7,0-6.8-3-6.8-6.8c0-3.7,3-6.8,6.8-6.8C596.5,82.7,599.5,85.7,599.5,89.5z
		"/>
	<path class="st0" d="M617.4,89.9c0,3.7-3,6.8-6.8,6.8c-3.7,0-6.7-3-6.7-6.8c0-3.7,3-6.8,6.7-6.8C614.4,83.1,617.4,86.2,617.4,89.9z
		"/>
	<path class="st0" d="M635.2,89.9c0,3.7-3,6.8-6.8,6.8c-3.7,0-6.8-3-6.8-6.8c0-3.7,3-6.8,6.8-6.8C632.2,83.1,635.2,86.2,635.2,89.9z
		"/>
	<path class="st0" d="M653.1,89.8c0,3.7-3,6.8-6.8,6.8c-3.7,0-6.8-3-6.8-6.8c0-3.7,3-6.8,6.8-6.8C650,83,653.1,86,653.1,89.8z"/>
	<path class="st0" d="M670.9,89.8c0,3.7-3,6.8-6.8,6.8c-3.7,0-6.8-3-6.8-6.8c0-3.7,3-6.7,6.8-6.7C667.9,83,670.9,86,670.9,89.8z"/>
	<path class="st0" d="M688.8,89.8c0,3.7-3,6.8-6.8,6.8c-3.7,0-6.8-3-6.8-6.8c0-3.7,3-6.8,6.8-6.8C685.7,83.1,688.8,86.1,688.8,89.8z
		"/>
	<path class="st0" d="M706.6,89.8c0,3.7-3,6.8-6.7,6.8c-3.7,0-6.8-3-6.8-6.8c0-3.7,3-6.7,6.8-6.7C703.6,83.1,706.6,86.1,706.6,89.8z
		"/>
	<path class="st0" d="M724.4,89.7c0,3.7-3,6.8-6.8,6.8c-3.7,0-6.8-3-6.8-6.8c0-3.7,3-6.8,6.8-6.8C721.4,82.9,724.4,85.9,724.4,89.7z
		"/>
	<path class="st0" d="M742.3,89.7c0,3.7-3,6.8-6.8,6.8c-3.7,0-6.8-3-6.8-6.8c0-3.7,3-6.7,6.8-6.7C739.3,82.9,742.3,85.9,742.3,89.7z
		"/>
	<path class="st0" d="M760.1,89.9c0,3.7-3,6.7-6.7,6.7c-3.7,0-6.8-3-6.8-6.7c0-3.7,3-6.8,6.8-6.8C757.1,83.1,760.1,86.1,760.1,89.9z
		"/>
	<circle class="st0" cx="771.2" cy="89.9" r="6.8"/>
	<path class="st0" d="M795.8,89.7c0,3.7-3,6.8-6.8,6.8c-3.7,0-6.8-3-6.8-6.8c0-3.7,3-6.8,6.8-6.8C792.8,83,795.8,86,795.8,89.7z"/>
	<path class="st0" d="M813.7,89.7c0,3.7-3,6.8-6.7,6.8c-3.7,0-6.8-3-6.8-6.8c0-3.7,3-6.8,6.8-6.8C810.6,83,813.7,86,813.7,89.7z"/>
	<path class="st0" d="M831.5,89.8c0,3.7-3,6.8-6.7,6.8c-3.7,0-6.8-3-6.8-6.8c0-3.7,3-6.7,6.8-6.7C828.5,83.1,831.5,86.1,831.5,89.8z
		"/>
	<path class="st0" d="M885.1,89.6c0,3.7-3,6.8-6.8,6.8c-3.7,0-6.7-3-6.7-6.8c0-3.7,3-6.7,6.7-6.7C882,82.9,885.1,85.9,885.1,89.6z"
		/>
	<path class="st0" d="M902.9,89.9c0,3.7-3,6.8-6.8,6.8c-3.7,0-6.8-3-6.8-6.8c0-3.7,3-6.8,6.8-6.8C899.9,83.1,902.9,86.2,902.9,89.9z
		"/>
	<path class="st0" d="M117.7,108.9c0,3.7-3,6.8-6.8,6.8c-3.7,0-6.8-3-6.8-6.8c0-3.7,3-6.7,6.8-6.7
		C114.7,102.2,117.7,105.2,117.7,108.9z"/>
	<path class="st0" d="M135.5,108.9c0,3.7-3,6.8-6.8,6.8c-3.7,0-6.8-3-6.8-6.8c0-3.7,3-6.7,6.8-6.7
		C132.5,102.2,135.5,105.2,135.5,108.9z"/>
	<path class="st0" d="M153.4,108.7c0,3.7-3,6.8-6.8,6.8c-3.7,0-6.8-3-6.8-6.8c0-3.7,3-6.7,6.8-6.7C150.4,102,153.4,105,153.4,108.7z
		"/>
	<path class="st0" d="M171.2,108.7c0,3.7-3,6.8-6.7,6.8c-3.7,0-6.8-3-6.8-6.8c0-3.7,3-6.8,6.8-6.8C168.2,102,171.2,105,171.2,108.7z
		"/>
	<path class="st0" d="M189.1,109c0,3.7-3,6.8-6.8,6.8c-3.7,0-6.8-3-6.8-6.8c0-3.7,3-6.8,6.8-6.8C186.1,102.2,189.1,105.2,189.1,109z
		"/>
	<path class="st0" d="M206.9,109c0,3.7-3,6.8-6.8,6.8c-3.7,0-6.8-3-6.8-6.8c0-3.7,3-6.8,6.8-6.8C203.9,102.2,206.9,105.2,206.9,109z
		"/>
	<path class="st0" d="M224.8,108.8c0,3.7-3,6.8-6.8,6.8c-3.7,0-6.8-3-6.8-6.8c0-3.7,3-6.8,6.8-6.8C221.7,102,224.8,105,224.8,108.8z
		"/>
	<path class="st0" d="M260.5,108.8c0,3.7-3,6.8-6.8,6.8c-3.7,0-6.7-3-6.7-6.8c0-3.7,3-6.8,6.7-6.8
		C257.4,102.1,260.5,105.1,260.5,108.8z"/>
	<path class="st0" d="M278.3,108.9c0,3.7-3,6.8-6.7,6.8c-3.7,0-6.8-3-6.8-6.8c0-3.7,3-6.8,6.8-6.8
		C275.3,102.1,278.3,105.1,278.3,108.9z"/>
	<path class="st0" d="M296.2,108.7c0,3.7-3,6.8-6.8,6.8c-3.7,0-6.8-3-6.8-6.8c0-3.7,3-6.7,6.8-6.7C293.1,102,296.2,105,296.2,108.7z
		"/>
	<path class="st0" d="M456.8,108.7c0,3.7-3,6.8-6.7,6.8c-3.7,0-6.8-3-6.8-6.8c0-3.7,3-6.7,6.8-6.7C453.7,102,456.8,105,456.8,108.7z
		"/>
	<path class="st0" d="M510.3,108.7c0,3.7-3,6.8-6.8,6.8c-3.7,0-6.7-3-6.7-6.8c0-3.7,3-6.7,6.7-6.7C507.3,102,510.3,105,510.3,108.7z
		"/>
	<path class="st0" d="M528.1,108.8c0,3.7-3,6.8-6.8,6.8c-3.7,0-6.8-3-6.8-6.8c0-3.7,3-6.7,6.8-6.7C525.1,102,528.1,105,528.1,108.8z
		"/>
	<path class="st0" d="M546,108.8c0,3.7-3,6.8-6.8,6.8c-3.7,0-6.8-3-6.8-6.8c0-3.7,3-6.7,6.8-6.7C543,102.1,546,105.1,546,108.8z"/>
	<path class="st0" d="M563.8,108.8c0,3.7-3,6.8-6.8,6.8c-3.7,0-6.7-3-6.7-6.8c0-3.7,3-6.8,6.7-6.8
		C560.8,102.1,563.8,105.1,563.8,108.8z"/>
	<path class="st0" d="M581.7,108.7c0,3.7-3,6.8-6.8,6.8c-3.7,0-6.8-3-6.8-6.8c0-3.7,3-6.8,6.8-6.8
		C578.7,101.9,581.7,105,581.7,108.7z"/>
	<path class="st0" d="M599.5,108.7c0,3.7-3,6.8-6.7,6.8c-3.7,0-6.8-3-6.8-6.8c0-3.7,3-6.8,6.8-6.8
		C596.5,101.9,599.5,105,599.5,108.7z"/>
	<path class="st0" d="M617.4,109.1c0,3.7-3,6.8-6.8,6.8c-3.7,0-6.7-3-6.7-6.8c0-3.7,3-6.7,6.7-6.7
		C614.4,102.4,617.4,105.4,617.4,109.1z"/>
	<path class="st0" d="M635.2,109.1c0,3.7-3,6.8-6.8,6.8c-3.7,0-6.8-3-6.8-6.8c0-3.7,3-6.8,6.8-6.8
		C632.2,102.4,635.2,105.4,635.2,109.1z"/>
	<path class="st0" d="M653.1,109c0,3.7-3,6.8-6.8,6.8c-3.7,0-6.8-3-6.8-6.8c0-3.7,3-6.8,6.8-6.8C650,102.2,653.1,105.3,653.1,109z"
		/>
	<path class="st0" d="M670.9,109c0,3.7-3,6.8-6.8,6.8c-3.7,0-6.7-3-6.7-6.8c0-3.7,3-6.8,6.7-6.8C667.9,102.3,670.9,105.3,670.9,109z
		"/>
	<path class="st0" d="M688.8,109.1c0,3.7-3,6.7-6.8,6.7c-3.7,0-6.8-3-6.8-6.7c0-3.7,3-6.8,6.8-6.8
		C685.7,102.3,688.8,105.3,688.8,109.1z"/>
	<path class="st0" d="M706.6,109.1c0,3.7-3,6.8-6.8,6.8c-3.7,0-6.7-3-6.7-6.8c0-3.7,3-6.8,6.7-6.8
		C703.6,102.3,706.6,105.3,706.6,109.1z"/>
	<path class="st0" d="M724.4,108.9c0,3.7-3,6.8-6.8,6.8c-3.7,0-6.8-3-6.8-6.8c0-3.7,3-6.7,6.8-6.7
		C721.4,102.1,724.4,105.2,724.4,108.9z"/>
	<path class="st0" d="M742.3,108.9c0,3.7-3,6.8-6.8,6.8c-3.7,0-6.8-3-6.8-6.8c0-3.7,3-6.8,6.8-6.8
		C739.3,102.1,742.3,105.2,742.3,108.9z"/>
	<path class="st0" d="M760.1,109.1c0,3.7-3,6.8-6.8,6.8c-3.7,0-6.8-3-6.8-6.8c0-3.7,3-6.7,6.8-6.7
		C757.1,102.3,760.1,105.4,760.1,109.1z"/>
	<path class="st0" d="M778,109.1c0,3.7-3,6.8-6.8,6.8c-3.7,0-6.7-3-6.7-6.8c0-3.7,3-6.8,6.7-6.8C775,102.3,778,105.4,778,109.1z"/>
	<path class="st0" d="M795.8,108.9c0,3.7-3,6.8-6.8,6.8c-3.7,0-6.8-3-6.8-6.8c0-3.7,3-6.7,6.8-6.7
		C792.8,102.2,795.8,105.2,795.8,108.9z"/>
	<path class="st0" d="M813.7,108.9c0,3.7-3,6.8-6.8,6.8c-3.7,0-6.8-3-6.8-6.8c0-3.7,3-6.7,6.8-6.7
		C810.6,102.2,813.7,105.2,813.7,108.9z"/>
	<path class="st0" d="M831.5,109c0,3.7-3,6.8-6.7,6.8c-3.7,0-6.8-3-6.8-6.8c0-3.7,3-6.8,6.8-6.8C828.5,102.3,831.5,105.3,831.5,109z
		"/>
	<path class="st0" d="M849.4,109c0,3.7-3,6.8-6.8,6.8c-3.7,0-6.8-3-6.8-6.8c0-3.7,3-6.8,6.8-6.8C846.3,102.3,849.4,105.3,849.4,109z
		"/>
	<path class="st0" d="M902.9,109.1c0,3.7-3,6.8-6.8,6.8c-3.7,0-6.8-3-6.8-6.8c0-3.7,3-6.8,6.8-6.8
		C899.9,102.4,902.9,105.4,902.9,109.1z"/>
	<path class="st0" d="M117.7,128.1c0,3.7-3,6.8-6.8,6.8c-3.7,0-6.8-3-6.8-6.8c0-3.7,3-6.7,6.8-6.7
		C114.7,121.4,117.7,124.4,117.7,128.1z"/>
	<path class="st0" d="M135.5,128.1c0,3.7-3,6.8-6.7,6.8c-3.7,0-6.8-3-6.8-6.8c0-3.7,3-6.8,6.8-6.8
		C132.5,121.4,135.5,124.4,135.5,128.1z"/>
	<path class="st0" d="M153.4,128c0,3.7-3,6.8-6.8,6.8c-3.7,0-6.8-3-6.8-6.8c0-3.7,3-6.7,6.8-6.7C150.4,121.2,153.4,124.2,153.4,128z
		"/>
	<path class="st0" d="M171.2,128c0,3.7-3,6.8-6.7,6.8c-3.7,0-6.8-3-6.8-6.8c0-3.7,3-6.8,6.8-6.8C168.2,121.2,171.2,124.2,171.2,128z
		"/>
	<circle class="st0" cx="182.3" cy="128.2" r="6.8"/>
	<path class="st0" d="M206.9,128.2c0,3.7-3,6.8-6.7,6.8c-3.7,0-6.8-3-6.8-6.8c0-3.7,3-6.8,6.8-6.8
		C203.9,121.4,206.9,124.5,206.9,128.2z"/>
	<path class="st0" d="M224.8,128c0,3.7-3,6.8-6.7,6.8c-3.7,0-6.8-3-6.8-6.8c0-3.7,3-6.8,6.8-6.8C221.7,121.2,224.8,124.3,224.8,128z
		"/>
	<path class="st0" d="M242.6,128c0,3.7-3,6.8-6.8,6.8s-6.8-3-6.8-6.8c0-3.7,3-6.8,6.8-6.8S242.6,124.3,242.6,128z"/>
	<path class="st0" d="M260.5,128.1c0,3.7-3,6.7-6.7,6.7c-3.7,0-6.8-3-6.8-6.7c0-3.7,3-6.8,6.8-6.8
		C257.4,121.3,260.5,124.4,260.5,128.1z"/>
	<path class="st0" d="M278.3,128.1c0,3.7-3,6.8-6.7,6.8c-3.7,0-6.8-3-6.8-6.8c0-3.7,3-6.8,6.8-6.8
		C275.3,121.3,278.3,124.4,278.3,128.1z"/>
	<path class="st0" d="M296.2,127.9c0,3.7-3,6.8-6.8,6.8c-3.7,0-6.8-3-6.8-6.8c0-3.7,3-6.7,6.8-6.7
		C293.1,121.2,296.2,124.2,296.2,127.9z"/>
	<path class="st0" d="M456.8,128c0,3.7-3,6.8-6.7,6.8c-3.7,0-6.8-3-6.8-6.8c0-3.7,3-6.8,6.8-6.8C453.7,121.2,456.8,124.2,456.8,128z
		"/>
	<path class="st0" d="M492.5,128.2c0,3.7-3,6.8-6.7,6.8c-3.7,0-6.8-3-6.8-6.8c0-3.7,3-6.8,6.8-6.8
		C489.4,121.4,492.5,124.4,492.5,128.2z"/>
	<path class="st0" d="M510.3,128c0,3.7-3,6.8-6.8,6.8c-3.7,0-6.7-3-6.7-6.8c0-3.7,3-6.8,6.7-6.8C507.3,121.2,510.3,124.3,510.3,128z
		"/>
	<path class="st0" d="M528.2,128c0,3.7-3,6.8-6.8,6.8c-3.7,0-6.8-3-6.8-6.8c0-3.7,3-6.8,6.8-6.8C525.1,121.2,528.2,124.3,528.2,128z
		"/>
	<path class="st0" d="M546,128.1c0,3.7-3,6.8-6.7,6.8c-3.7,0-6.8-3-6.8-6.8c0-3.7,3-6.8,6.8-6.8C543,121.3,546,124.3,546,128.1z"/>
	<path class="st0" d="M563.8,128.1c0,3.7-3,6.8-6.8,6.8c-3.7,0-6.8-3-6.8-6.8c0-3.7,3-6.7,6.8-6.7
		C560.8,121.3,563.8,124.3,563.8,128.1z"/>
	<path class="st0" d="M581.7,127.9c0,3.7-3,6.8-6.8,6.8c-3.7,0-6.8-3-6.8-6.8c0-3.7,3-6.7,6.8-6.7
		C578.7,121.2,581.7,124.2,581.7,127.9z"/>
	<path class="st0" d="M599.5,127.9c0,3.7-3,6.8-6.7,6.8c-3.7,0-6.8-3-6.8-6.8c0-3.7,3-6.8,6.8-6.8
		C596.5,121.2,599.5,124.2,599.5,127.9z"/>
	<path class="st0" d="M617.4,128.4c0,3.7-3,6.8-6.8,6.8c-3.7,0-6.7-3-6.7-6.8c0-3.7,3-6.8,6.7-6.8
		C614.4,121.6,617.4,124.6,617.4,128.4z"/>
	<path class="st0" d="M635.2,128.4c0,3.7-3,6.8-6.8,6.8c-3.7,0-6.8-3-6.8-6.8c0-3.7,3-6.7,6.8-6.7
		C632.2,121.6,635.2,124.6,635.2,128.4z"/>
	<path class="st0" d="M653.1,128.2c0,3.7-3,6.8-6.8,6.8c-3.7,0-6.8-3-6.8-6.8c0-3.7,3-6.7,6.8-6.7
		C650,121.5,653.1,124.5,653.1,128.2z"/>
	<path class="st0" d="M670.9,128.2c0,3.7-3,6.8-6.8,6.8c-3.7,0-6.8-3-6.8-6.8c0-3.7,3-6.7,6.8-6.7
		C667.9,121.5,670.9,124.5,670.9,128.2z"/>
	<path class="st0" d="M688.8,128.3c0,3.7-3,6.8-6.8,6.8c-3.7,0-6.8-3-6.8-6.8c0-3.7,3-6.8,6.8-6.8
		C685.7,121.5,688.8,124.6,688.8,128.3z"/>
	<path class="st0" d="M706.6,128.3c0,3.7-3,6.8-6.7,6.8c-3.7,0-6.8-3-6.8-6.8c0-3.7,3-6.8,6.8-6.8
		C703.6,121.6,706.6,124.6,706.6,128.3z"/>
	<path class="st0" d="M724.4,128.1c0,3.7-3,6.8-6.8,6.8c-3.7,0-6.8-3-6.8-6.8c0-3.7,3-6.8,6.8-6.8
		C721.4,121.4,724.4,124.4,724.4,128.1z"/>
	<path class="st0" d="M742.3,128.1c0,3.7-3,6.8-6.8,6.8c-3.7,0-6.8-3-6.8-6.8c0-3.7,3-6.8,6.8-6.8
		C739.3,121.4,742.3,124.4,742.3,128.1z"/>
	<path class="st0" d="M760.1,128.3c0,3.7-3,6.8-6.7,6.8c-3.7,0-6.8-3-6.8-6.8c0-3.7,3-6.8,6.8-6.8
		C757.1,121.6,760.1,124.6,760.1,128.3z"/>
	<path class="st0" d="M778,128.3c0,3.7-3,6.8-6.8,6.8c-3.7,0-6.8-3-6.8-6.8c0-3.7,3-6.8,6.8-6.8C775,121.6,778,124.6,778,128.3z"/>
	<path class="st0" d="M795.8,128.2c0,3.7-3,6.8-6.8,6.8c-3.7,0-6.8-3-6.8-6.8c0-3.7,3-6.7,6.8-6.7
		C792.8,121.4,795.8,124.4,795.8,128.2z"/>
	<path class="st0" d="M813.7,128.2c0,3.7-3,6.8-6.7,6.8c-3.7,0-6.8-3-6.8-6.8c0-3.7,3-6.8,6.8-6.8
		C810.6,121.4,813.7,124.5,813.7,128.2z"/>
	<path class="st0" d="M831.5,128.3c0,3.7-3,6.8-6.7,6.8c-3.7,0-6.8-3-6.8-6.8c0-3.7,3-6.8,6.8-6.8
		C828.5,121.5,831.5,124.5,831.5,128.3z"/>
	<path class="st0" d="M849.4,128.3c0,3.7-3,6.8-6.8,6.8c-3.7,0-6.8-3-6.8-6.8c0-3.7,3-6.8,6.8-6.8
		C846.3,121.5,849.4,124.5,849.4,128.3z"/>
	<circle class="st0" cx="860.5" cy="128.1" r="6.8"/>
	<path class="st0" d="M99.9,147.3c0,3.7-3,6.7-6.8,6.7c-3.7,0-6.8-3-6.8-6.7c0-3.7,3-6.8,6.8-6.8C96.8,140.5,99.9,143.5,99.9,147.3z
		"/>
	<path class="st0" d="M117.7,147.4c0,3.7-3,6.7-6.8,6.7c-3.7,0-6.8-3-6.8-6.7c0-3.7,3-6.8,6.8-6.8
		C114.7,140.6,117.7,143.6,117.7,147.4z"/>
	<path class="st0" d="M135.5,147.4c0,3.7-3,6.8-6.7,6.8c-3.7,0-6.8-3-6.8-6.8c0-3.7,3-6.8,6.8-6.8
		C132.5,140.6,135.5,143.6,135.5,147.4z"/>
	<path class="st0" d="M153.4,147.2c0,3.7-3,6.8-6.8,6.8c-3.7,0-6.8-3-6.8-6.8c0-3.7,3-6.7,6.8-6.7
		C150.4,140.4,153.4,143.5,153.4,147.2z"/>
	<path class="st0" d="M171.2,147.2c0,3.7-3,6.8-6.7,6.8c-3.7,0-6.8-3-6.8-6.8c0-3.7,3-6.8,6.8-6.8
		C168.2,140.4,171.2,143.5,171.2,147.2z"/>
	<path class="st0" d="M189.1,147.4c0,3.7-3,6.8-6.8,6.8c-3.7,0-6.8-3-6.8-6.8c0-3.7,3-6.7,6.8-6.7
		C186.1,140.7,189.1,143.7,189.1,147.4z"/>
	<path class="st0" d="M206.9,147.4c0,3.7-3,6.8-6.7,6.8c-3.7,0-6.8-3-6.8-6.8c0-3.7,3-6.7,6.8-6.7
		C203.9,140.7,206.9,143.7,206.9,147.4z"/>
	<path class="st0" d="M224.8,147.2c0,3.7-3,6.8-6.7,6.8c-3.7,0-6.8-3-6.8-6.8c0-3.7,3-6.7,6.8-6.7
		C221.7,140.5,224.8,143.5,224.8,147.2z"/>
	<path class="st0" d="M242.6,147.2c0,3.7-3,6.8-6.8,6.8s-6.8-3-6.8-6.8c0-3.7,3-6.8,6.8-6.8S242.6,143.5,242.6,147.2z"/>
	<path class="st0" d="M260.5,147.3c0,3.7-3,6.8-6.7,6.8c-3.7,0-6.8-3-6.8-6.8c0-3.7,3-6.7,6.8-6.7
		C257.4,140.6,260.5,143.6,260.5,147.3z"/>
	<path class="st0" d="M456.8,147.2c0,3.7-3,6.8-6.7,6.8c-3.7,0-6.8-3-6.8-6.8c0-3.7,3-6.7,6.8-6.7
		C453.7,140.4,456.8,143.5,456.8,147.2z"/>
	<path class="st0" d="M474.6,147.4c0,3.7-3,6.8-6.8,6.8c-3.7,0-6.8-3-6.8-6.8c0-3.7,3-6.8,6.8-6.8
		C471.6,140.6,474.6,143.7,474.6,147.4z"/>
	<path class="st0" d="M492.5,147.4c0,3.7-3,6.8-6.7,6.8c-3.7,0-6.8-3-6.8-6.8s3-6.7,6.8-6.7C489.4,140.6,492.5,143.7,492.5,147.4z"
		/>
	<path class="st0" d="M510.3,147.2c0,3.7-3,6.8-6.8,6.8c-3.7,0-6.7-3-6.7-6.8c0-3.7,3-6.7,6.7-6.7
		C507.3,140.5,510.3,143.5,510.3,147.2z"/>
	<path class="st0" d="M528.2,147.2c0,3.7-3,6.8-6.8,6.8c-3.7,0-6.8-3-6.8-6.8c0-3.7,3-6.7,6.8-6.7
		C525.1,140.5,528.2,143.5,528.2,147.2z"/>
	<path class="st0" d="M546,147.3c0,3.7-3,6.8-6.7,6.8c-3.7,0-6.8-3-6.8-6.8c0-3.7,3-6.8,6.8-6.8C543,140.5,546,143.6,546,147.3z"/>
	<circle class="st0" cx="557.1" cy="147.3" r="6.8"/>
	<path class="st0" d="M581.7,147.2c0,3.7-3,6.8-6.8,6.8c-3.7,0-6.8-3-6.8-6.8c0-3.7,3-6.8,6.8-6.8
		C578.7,140.4,581.7,143.4,581.7,147.2z"/>
	<path class="st0" d="M599.5,147.2c0,3.7-3,6.8-6.7,6.8c-3.7,0-6.8-3-6.8-6.8c0-3.7,3-6.8,6.8-6.8
		C596.5,140.4,599.5,143.4,599.5,147.2z"/>
	<path class="st0" d="M617.4,147.6c0,3.7-3,6.8-6.8,6.8c-3.7,0-6.7-3-6.7-6.8c0-3.7,3-6.8,6.7-6.8
		C614.4,140.8,617.4,143.9,617.4,147.6z"/>
	<path class="st0" d="M635.2,147.6c0,3.7-3,6.8-6.8,6.8c-3.7,0-6.8-3-6.8-6.8c0-3.7,3-6.8,6.8-6.8
		C632.2,140.8,635.2,143.9,635.2,147.6z"/>
	<path class="st0" d="M653.1,147.5c0,3.7-3,6.8-6.8,6.8c-3.7,0-6.8-3-6.8-6.8c0-3.7,3-6.7,6.8-6.7
		C650,140.7,653.1,143.7,653.1,147.5z"/>
	<path class="st0" d="M670.9,147.5c0,3.7-3,6.8-6.8,6.8c-3.7,0-6.8-3-6.8-6.8c0-3.7,3-6.8,6.8-6.8
		C667.9,140.7,670.9,143.7,670.9,147.5z"/>
	<path class="st0" d="M688.8,147.5c0,3.7-3,6.8-6.8,6.8c-3.7,0-6.8-3-6.8-6.8c0-3.7,3-6.7,6.8-6.7
		C685.7,140.8,688.8,143.8,688.8,147.5z"/>
	<path class="st0" d="M706.6,147.5c0,3.7-3,6.8-6.7,6.8c-3.7,0-6.8-3-6.8-6.8c0-3.7,3-6.8,6.8-6.8
		C703.6,140.8,706.6,143.8,706.6,147.5z"/>
	<path class="st0" d="M724.4,147.3c0,3.7-3,6.8-6.8,6.8c-3.7,0-6.8-3-6.8-6.8c0-3.7,3-6.8,6.8-6.8
		C721.4,140.6,724.4,143.6,724.4,147.3z"/>
	<path class="st0" d="M742.3,147.4c0,3.7-3,6.8-6.8,6.8c-3.7,0-6.8-3-6.8-6.8c0-3.7,3-6.8,6.8-6.8
		C739.3,140.6,742.3,143.6,742.3,147.4z"/>
	<path class="st0" d="M760.1,147.5c0,3.7-3,6.8-6.7,6.8c-3.7,0-6.8-3-6.8-6.8c0-3.7,3-6.7,6.8-6.7
		C757.1,140.8,760.1,143.8,760.1,147.5z"/>
	<path class="st0" d="M778,147.6c0,3.7-3,6.8-6.8,6.8c-3.7,0-6.8-3-6.8-6.8c0-3.7,3-6.8,6.8-6.8C775,140.8,778,143.8,778,147.6z"/>
	<path class="st0" d="M795.8,147.4c0,3.7-3,6.8-6.8,6.8c-3.7,0-6.8-3-6.8-6.8c0-3.7,3-6.8,6.8-6.8
		C792.8,140.7,795.8,143.7,795.8,147.4z"/>
	<path class="st0" d="M813.7,147.4c0,3.7-3,6.8-6.7,6.8c-3.7,0-6.8-3-6.8-6.8c0-3.7,3-6.8,6.8-6.8
		C810.6,140.7,813.7,143.7,813.7,147.4z"/>
	<path class="st0" d="M831.5,147.5c0,3.7-3,6.8-6.7,6.8c-3.7,0-6.8-3-6.8-6.8c0-3.7,3-6.7,6.8-6.7
		C828.5,140.7,831.5,143.8,831.5,147.5z"/>
	<path class="st0" d="M849.4,147.5c0,3.7-3,6.8-6.8,6.8c-3.7,0-6.8-3-6.8-6.8c0-3.7,3-6.8,6.8-6.8
		C846.3,140.8,849.4,143.8,849.4,147.5z"/>
	<path class="st0" d="M867.2,147.3c0,3.7-3,6.7-6.8,6.7c-3.7,0-6.8-3-6.8-6.7c0-3.7,3-6.8,6.8-6.8
		C864.2,140.5,867.2,143.6,867.2,147.3z"/>
	<path class="st0" d="M885.1,147.3c0,3.7-3,6.8-6.8,6.8c-3.7,0-6.7-3-6.7-6.8c0-3.7,3-6.8,6.7-6.8
		C882,140.5,885.1,143.6,885.1,147.3z"/>
	<path class="st0" d="M82,166.5c0,3.7-3,6.8-6.8,6.8c-3.7,0-6.8-3-6.8-6.8c0-3.7,3-6.8,6.8-6.8C79,159.7,82,162.8,82,166.5z"/>
	<path class="st0" d="M99.9,166.5c0,3.7-3,6.8-6.8,6.8c-3.7,0-6.8-3-6.8-6.8c0-3.7,3-6.8,6.8-6.8C96.8,159.7,99.9,162.8,99.9,166.5z
		"/>
	<path class="st0" d="M117.7,166.6c0,3.7-3,6.8-6.8,6.8c-3.7,0-6.8-3-6.8-6.8c0-3.7,3-6.8,6.8-6.8
		C114.7,159.8,117.7,162.9,117.7,166.6z"/>
	<path class="st0" d="M135.5,166.6c0,3.7-3,6.7-6.8,6.7c-3.7,0-6.8-3-6.8-6.7c0-3.7,3-6.8,6.8-6.8
		C132.5,159.8,135.5,162.9,135.5,166.6z"/>
	<path class="st0" d="M153.4,166.4c0,3.7-3,6.8-6.8,6.8c-3.7,0-6.8-3-6.8-6.8c0-3.7,3-6.8,6.8-6.8
		C150.4,159.7,153.4,162.7,153.4,166.4z"/>
	<path class="st0" d="M171.2,166.4c0,3.7-3,6.8-6.8,6.8c-3.7,0-6.7-3-6.7-6.8c0-3.7,3-6.8,6.7-6.8
		C168.2,159.7,171.2,162.7,171.2,166.4z"/>
	<path class="st0" d="M189.1,166.6c0,3.7-3,6.8-6.8,6.8c-3.7,0-6.8-3-6.8-6.8c0-3.7,3-6.7,6.8-6.7
		C186.1,159.9,189.1,162.9,189.1,166.6z"/>
	<path class="st0" d="M206.9,166.7c0,3.7-3,6.8-6.8,6.8c-3.7,0-6.8-3-6.8-6.8c0-3.7,3-6.8,6.8-6.8
		C203.9,159.9,206.9,162.9,206.9,166.7z"/>
	<path class="st0" d="M224.8,166.5c0,3.7-3,6.8-6.8,6.8c-3.7,0-6.7-3-6.7-6.8c0-3.7,3-6.7,6.7-6.7
		C221.7,159.7,224.8,162.7,224.8,166.5z"/>
	<path class="st0" d="M242.6,166.5c0,3.7-3,6.8-6.8,6.8c-3.7,0-6.8-3-6.8-6.8c0-3.7,3-6.8,6.8-6.8
		C239.6,159.7,242.6,162.7,242.6,166.5z"/>
	<path class="st0" d="M456.8,166.4c0,3.7-3,6.8-6.7,6.8c-3.7,0-6.8-3-6.8-6.8c0-3.7,3-6.8,6.8-6.8
		C453.7,159.7,456.8,162.7,456.8,166.4z"/>
	<path class="st0" d="M474.6,166.6c0,3.7-3,6.8-6.8,6.8c-3.7,0-6.8-3-6.8-6.8c0-3.7,3-6.8,6.8-6.8
		C471.6,159.9,474.6,162.9,474.6,166.6z"/>
	<path class="st0" d="M492.5,166.6c0,3.7-3,6.8-6.8,6.8c-3.7,0-6.8-3-6.8-6.8c0-3.7,3-6.7,6.8-6.7
		C489.4,159.9,492.5,162.9,492.5,166.6z"/>
	<path class="st0" d="M510.3,166.4c0,3.7-3,6.8-6.8,6.8c-3.7,0-6.8-3-6.8-6.8c0-3.7,3-6.8,6.8-6.8
		C507.3,159.7,510.3,162.7,510.3,166.4z"/>
	<path class="st0" d="M528.1,166.4c0,3.7-3,6.8-6.7,6.8c-3.7,0-6.7-3-6.7-6.8c0-3.7,3-6.7,6.7-6.7
		C525.1,159.7,528.1,162.7,528.1,166.4z"/>
	<path class="st0" d="M546,166.5c0,3.7-3,6.8-6.8,6.8c-3.7,0-6.8-3-6.8-6.8c0-3.7,3-6.7,6.8-6.7C543,159.8,546,162.8,546,166.5z"/>
	<path class="st0" d="M563.8,166.5c0,3.7-3,6.8-6.8,6.8c-3.7,0-6.8-3-6.8-6.8c0-3.7,3-6.7,6.8-6.7
		C560.8,159.8,563.8,162.8,563.8,166.5z"/>
	<path class="st0" d="M599.5,166.4c0,3.7-3,6.8-6.8,6.8c-3.7,0-6.7-3-6.7-6.8c0-3.7,3-6.8,6.7-6.8
		C596.5,159.6,599.5,162.7,599.5,166.4z"/>
	<path class="st0" d="M617.4,166.8c0,3.7-3,6.7-6.8,6.7c-3.7,0-6.8-3-6.8-6.7c0-3.7,3-6.7,6.8-6.7
		C614.4,160.1,617.4,163.1,617.4,166.8z"/>
	<path class="st0" d="M635.2,166.8c0,3.7-3,6.8-6.8,6.8c-3.7,0-6.8-3-6.8-6.8c0-3.7,3-6.8,6.8-6.8
		C632.2,160.1,635.2,163.1,635.2,166.8z"/>
	<path class="st0" d="M653.1,166.7c0,3.7-3,6.8-6.8,6.8c-3.7,0-6.8-3-6.8-6.8c0-3.7,3-6.7,6.8-6.7C650,159.9,653.1,163,653.1,166.7z
		"/>
	<path class="st0" d="M670.9,166.7c0,3.7-3,6.8-6.8,6.8c-3.7,0-6.8-3-6.8-6.8c0-3.7,3-6.7,6.8-6.7
		C667.9,159.9,670.9,163,670.9,166.7z"/>
	<path class="st0" d="M688.8,166.8c0,3.7-3,6.8-6.8,6.8c-3.7,0-6.8-3-6.8-6.8c0-3.7,3-6.8,6.8-6.8C685.7,160,688.8,163,688.8,166.8z
		"/>
	<path class="st0" d="M706.6,166.8c0,3.7-3,6.8-6.8,6.8c-3.7,0-6.7-3-6.7-6.8c0-3.7,3-6.8,6.7-6.8C703.6,160,706.6,163,706.6,166.8z
		"/>
	<path class="st0" d="M724.4,166.6c0,3.7-3,6.8-6.8,6.8c-3.7,0-6.8-3-6.8-6.8c0-3.7,3-6.8,6.8-6.8
		C721.4,159.8,724.4,162.8,724.4,166.6z"/>
	<path class="st0" d="M742.3,166.6c0,3.7-3,6.8-6.8,6.8c-3.7,0-6.8-3-6.8-6.8c0-3.7,3-6.8,6.8-6.8
		C739.3,159.8,742.3,162.9,742.3,166.6z"/>
	<path class="st0" d="M760.1,166.8c0,3.7-3,6.8-6.8,6.8c-3.7,0-6.8-3-6.8-6.8c0-3.7,3-6.8,6.8-6.8
		C757.1,160,760.1,163.1,760.1,166.8z"/>
	<path class="st0" d="M778,166.8c0,3.7-3,6.8-6.8,6.8c-3.7,0-6.8-3-6.8-6.8c0-3.7,3-6.8,6.8-6.8C775,160,778,163.1,778,166.8z"/>
	<path class="st0" d="M795.8,166.6c0,3.7-3,6.8-6.8,6.8c-3.7,0-6.8-3-6.8-6.8c0-3.7,3-6.7,6.8-6.7
		C792.8,159.9,795.8,162.9,795.8,166.6z"/>
	<path class="st0" d="M813.7,166.6c0,3.7-3,6.8-6.8,6.8c-3.7,0-6.8-3-6.8-6.8c0-3.7,3-6.8,6.8-6.8
		C810.6,159.9,813.7,162.9,813.7,166.6z"/>
	<path class="st0" d="M831.5,166.7c0,3.7-3,6.7-6.7,6.7c-3.7,0-6.8-3-6.8-6.7c0-3.7,3-6.8,6.8-6.8C828.5,160,831.5,163,831.5,166.7z
		"/>
	<path class="st0" d="M849.4,166.7c0,3.7-3,6.8-6.8,6.8c-3.7,0-6.8-3-6.8-6.8c0-3.7,3-6.8,6.8-6.8C846.3,160,849.4,163,849.4,166.7z
		"/>
	<path class="st0" d="M867.2,166.5c0,3.7-3,6.8-6.8,6.8c-3.7,0-6.8-3-6.8-6.8c0-3.7,3-6.7,6.8-6.7
		C864.2,159.8,867.2,162.8,867.2,166.5z"/>
	<path class="st0" d="M82,185.7c0,3.7-3,6.8-6.8,6.8c-3.7,0-6.8-3-6.8-6.8c0-3.7,3-6.7,6.8-6.7C79,179,82,182,82,185.7z"/>
	<path class="st0" d="M99.9,185.7c0,3.7-3,6.8-6.8,6.8c-3.7,0-6.8-3-6.8-6.8c0-3.7,3-6.7,6.8-6.7C96.8,179,99.9,182,99.9,185.7z"/>
	<path class="st0" d="M117.7,185.8c0,3.7-3,6.8-6.8,6.8c-3.7,0-6.8-3-6.8-6.8c0-3.7,3-6.7,6.8-6.7
		C114.7,179.1,117.7,182.1,117.7,185.8z"/>
	<path class="st0" d="M135.5,185.8c0,3.7-3,6.8-6.7,6.8c-3.7,0-6.8-3-6.8-6.8c0-3.7,3-6.7,6.8-6.7
		C132.5,179.1,135.5,182.1,135.5,185.8z"/>
	<path class="st0" d="M153.4,185.7c0,3.7-3,6.8-6.8,6.8c-3.7,0-6.8-3-6.8-6.8c0-3.7,3-6.7,6.8-6.7
		C150.4,178.9,153.4,181.9,153.4,185.7z"/>
	<path class="st0" d="M171.2,185.7c0,3.7-3,6.7-6.7,6.7c-3.7,0-6.8-3-6.8-6.7c0-3.7,3-6.8,6.8-6.8
		C168.2,178.9,171.2,181.9,171.2,185.7z"/>
	<path class="st0" d="M189.1,185.9c0,3.7-3,6.8-6.8,6.8c-3.7,0-6.8-3-6.8-6.8c0-3.7,3-6.8,6.8-6.8
		C186.1,179.1,189.1,182.1,189.1,185.9z"/>
	<path class="st0" d="M206.9,185.9c0,3.7-3,6.8-6.7,6.8c-3.7,0-6.8-3-6.8-6.8c0-3.7,3-6.8,6.8-6.8
		C203.9,179.1,206.9,182.2,206.9,185.9z"/>
	<path class="st0" d="M224.8,185.7c0,3.7-3,6.8-6.7,6.8c-3.7,0-6.8-3-6.8-6.8c0-3.7,3-6.8,6.8-6.8
		C221.7,178.9,224.8,182,224.8,185.7z"/>
	<path class="st0" d="M438.9,185.6c0,3.7-3,6.8-6.8,6.8c-3.7,0-6.8-3-6.8-6.8c0-3.7,3-6.8,6.8-6.8
		C435.9,178.9,438.9,181.9,438.9,185.6z"/>
	<path class="st0" d="M456.8,185.7c0,3.7-3,6.8-6.7,6.8c-3.7,0-6.8-3-6.8-6.8c0-3.7,3-6.8,6.8-6.8
		C453.7,178.9,456.8,181.9,456.8,185.7z"/>
	<path class="st0" d="M528.2,185.7c0,3.7-3,6.8-6.8,6.8c-3.7,0-6.8-3-6.8-6.8c0-3.7,3-6.8,6.8-6.8
		C525.1,178.9,528.2,182,528.2,185.7z"/>
	<path class="st0" d="M546,185.7c0,3.7-3,6.8-6.7,6.8c-3.7,0-6.8-3-6.8-6.8c0-3.7,3-6.8,6.8-6.8C543,179,546,182,546,185.7z"/>
	<circle class="st0" cx="557.1" cy="185.7" r="6.8"/>
	<path class="st0" d="M581.7,185.6c0,3.7-3,6.8-6.8,6.8c-3.7,0-6.8-3-6.8-6.8c0-3.7,3-6.8,6.8-6.8
		C578.7,178.9,581.7,181.9,581.7,185.6z"/>
	<path class="st0" d="M599.5,185.6c0,3.7-3,6.8-6.7,6.8c-3.7,0-6.8-3-6.8-6.8c0-3.7,3-6.8,6.8-6.8
		C596.5,178.9,599.5,181.9,599.5,185.6z"/>
	<path class="st0" d="M617.4,186c0,3.7-3,6.8-6.8,6.8c-3.7,0-6.7-3-6.7-6.8c0-3.7,3-6.8,6.7-6.8C614.4,179.3,617.4,182.3,617.4,186z
		"/>
	<path class="st0" d="M635.2,186c0,3.7-3,6.8-6.8,6.8c-3.7,0-6.8-3-6.8-6.8c0-3.7,3-6.8,6.8-6.8C632.2,179.3,635.2,182.3,635.2,186z
		"/>
	<path class="st0" d="M653.1,185.9c0,3.7-3,6.8-6.8,6.8c-3.7,0-6.8-3-6.8-6.8c0-3.7,3-6.8,6.8-6.8
		C650,179.2,653.1,182.2,653.1,185.9z"/>
	<path class="st0" d="M670.9,185.9c0,3.7-3,6.8-6.8,6.8c-3.7,0-6.8-3-6.8-6.8c0-3.7,3-6.7,6.8-6.7
		C667.9,179.2,670.9,182.2,670.9,185.9z"/>
	<path class="st0" d="M688.8,186c0,3.7-3,6.8-6.8,6.8c-3.7,0-6.8-3-6.8-6.8c0-3.7,3-6.8,6.8-6.8C685.7,179.2,688.8,182.3,688.8,186z
		"/>
	<path class="st0" d="M706.6,186c0,3.7-3,6.8-6.7,6.8c-3.7,0-6.8-3-6.8-6.8c0-3.7,3-6.8,6.8-6.8C703.6,179.2,706.6,182.3,706.6,186z
		"/>
	<path class="st0" d="M724.4,185.8c0,3.7-3,6.8-6.8,6.8c-3.7,0-6.8-3-6.8-6.8s3-6.8,6.8-6.8C721.4,179.1,724.4,182.1,724.4,185.8z"
		/>
	<path class="st0" d="M742.3,185.8c0,3.7-3,6.8-6.8,6.8c-3.7,0-6.8-3-6.8-6.8c0-3.7,3-6.8,6.8-6.8
		C739.3,179.1,742.3,182.1,742.3,185.8z"/>
	<path class="st0" d="M760.1,186c0,3.7-3,6.8-6.7,6.8c-3.7,0-6.8-3-6.8-6.8c0-3.7,3-6.7,6.8-6.7C757.1,179.3,760.1,182.3,760.1,186z
		"/>
	<path class="st0" d="M778,186c0,3.7-3,6.8-6.8,6.8c-3.7,0-6.8-3-6.8-6.8c0-3.7,3-6.8,6.8-6.8C775,179.3,778,182.3,778,186z"/>
	<path class="st0" d="M795.8,185.9c0,3.7-3,6.8-6.8,6.8c-3.7,0-6.8-3-6.8-6.8c0-3.7,3-6.8,6.8-6.8
		C792.8,179.1,795.8,182.1,795.8,185.9z"/>
	<path class="st0" d="M813.7,185.9c0,3.7-3,6.8-6.7,6.8c-3.7,0-6.8-3-6.8-6.8c0-3.7,3-6.7,6.8-6.7
		C810.6,179.1,813.7,182.1,813.7,185.9z"/>
	<path class="st0" d="M831.5,186c0,3.7-3,6.8-6.7,6.8c-3.7,0-6.8-3-6.8-6.8c0-3.7,3-6.7,6.8-6.7C828.5,179.2,831.5,182.2,831.5,186z
		"/>
	<path class="st0" d="M849.4,186c0,3.7-3,6.7-6.8,6.7c-3.7,0-6.8-3-6.8-6.7c0-3.7,3-6.8,6.8-6.8C846.3,179.2,849.4,182.2,849.4,186z
		"/>
	<path class="st0" d="M867.2,185.8c0,3.7-3,6.8-6.8,6.8c-3.7,0-6.8-3-6.8-6.8c0-3.7,3-6.8,6.8-6.8C864.2,179,867.2,182,867.2,185.8z
		"/>
	<path class="st0" d="M82,204.9c0,3.7-3,6.8-6.8,6.8c-3.7,0-6.8-3-6.8-6.8c0-3.7,3-6.7,6.8-6.7C79,198.2,82,201.2,82,204.9z"/>
	<path class="st0" d="M99.9,205c0,3.7-3,6.8-6.8,6.8c-3.7,0-6.8-3-6.8-6.8c0-3.7,3-6.8,6.8-6.8C96.8,198.2,99.9,201.2,99.9,205z"/>
	<circle class="st0" cx="110.9" cy="205.1" r="6.8"/>
	<path class="st0" d="M135.5,205.1c0,3.7-3,6.8-6.8,6.8c-3.7,0-6.8-3-6.8-6.8c0-3.7,3-6.8,6.8-6.8
		C132.5,198.3,135.5,201.3,135.5,205.1z"/>
	<path class="st0" d="M153.4,204.9c0,3.7-3,6.8-6.8,6.8c-3.7,0-6.8-3-6.8-6.8c0-3.7,3-6.7,6.8-6.7
		C150.4,198.1,153.4,201.2,153.4,204.9z"/>
	<path class="st0" d="M171.2,204.9c0,3.7-3,6.8-6.8,6.8c-3.7,0-6.7-3-6.7-6.8c0-3.7,3-6.8,6.7-6.8
		C168.2,198.1,171.2,201.2,171.2,204.9z"/>
	<path class="st0" d="M189.1,205.1c0,3.7-3,6.8-6.8,6.8c-3.7,0-6.8-3-6.8-6.8c0-3.7,3-6.7,6.8-6.7
		C186.1,198.4,189.1,201.4,189.1,205.1z"/>
	<path class="st0" d="M206.9,205.1c0,3.7-3,6.7-6.8,6.7c-3.7,0-6.8-3-6.8-6.7c0-3.7,3-6.8,6.8-6.8
		C203.9,198.4,206.9,201.4,206.9,205.1z"/>
	<path class="st0" d="M456.8,204.9c0,3.7-3,6.8-6.7,6.8c-3.7,0-6.8-3-6.8-6.8c0-3.7,3-6.7,6.8-6.7
		C453.7,198.1,456.8,201.2,456.8,204.9z"/>
	<path class="st0" d="M474.6,205.1c0,3.7-3,6.8-6.8,6.8c-3.7,0-6.8-3-6.8-6.8c0-3.7,3-6.8,6.8-6.8
		C471.6,198.3,474.6,201.4,474.6,205.1z"/>
	<path class="st0" d="M492.5,205.1c0,3.7-3,6.8-6.8,6.8c-3.7,0-6.8-3-6.8-6.8c0-3.7,3-6.8,6.8-6.8
		C489.4,198.3,492.5,201.4,492.5,205.1z"/>
	<path class="st0" d="M581.7,204.9c0,3.7-3,6.8-6.7,6.8c-3.7,0-6.8-3-6.8-6.8c0-3.7,3-6.8,6.8-6.8
		C578.7,198.1,581.7,201.1,581.7,204.9z"/>
	<path class="st0" d="M599.5,204.8c0,3.7-3,6.8-6.8,6.8c-3.7,0-6.7-3-6.7-6.8c0-3.7,3-6.8,6.7-6.8
		C596.5,198.1,599.5,201.1,599.5,204.8z"/>
	<path class="st0" d="M617.4,205.3c0,3.7-3,6.8-6.8,6.8c-3.7,0-6.8-3-6.8-6.8c0-3.7,3-6.8,6.8-6.8
		C614.4,198.5,617.4,201.5,617.4,205.3z"/>
	<path class="st0" d="M635.2,205.3c0,3.7-3,6.8-6.8,6.8c-3.7,0-6.8-3-6.8-6.8c0-3.7,3-6.8,6.8-6.8
		C632.2,198.5,635.2,201.6,635.2,205.3z"/>
	<path class="st0" d="M653.1,205.2c0,3.7-3,6.8-6.8,6.8c-3.7,0-6.8-3-6.8-6.8c0-3.7,3-6.8,6.8-6.8
		C650,198.4,653.1,201.4,653.1,205.2z"/>
	<path class="st0" d="M670.9,205.2c0,3.7-3,6.8-6.8,6.8c-3.7,0-6.8-3-6.8-6.8c0-3.7,3-6.7,6.8-6.7
		C667.9,198.4,670.9,201.4,670.9,205.2z"/>
	<path class="st0" d="M688.8,205.2c0,3.7-3,6.8-6.8,6.8c-3.7,0-6.8-3-6.8-6.8c0-3.7,3-6.8,6.8-6.8
		C685.7,198.5,688.8,201.5,688.8,205.2z"/>
	<path class="st0" d="M706.6,205.2c0,3.7-3,6.8-6.8,6.8c-3.7,0-6.7-3-6.7-6.8c0-3.7,3-6.7,6.7-6.7
		C703.6,198.5,706.6,201.5,706.6,205.2z"/>
	<path class="st0" d="M724.4,205c0,3.7-3,6.8-6.8,6.8c-3.7,0-6.8-3-6.8-6.8c0-3.7,3-6.8,6.8-6.8C721.4,198.3,724.4,201.3,724.4,205z
		"/>
	<circle class="st0" cx="735.5" cy="205" r="6.8"/>
	<path class="st0" d="M760.1,205.2c0,3.7-3,6.8-6.8,6.8c-3.7,0-6.8-3-6.8-6.8c0-3.7,3-6.8,6.8-6.8
		C757.1,198.5,760.1,201.5,760.1,205.2z"/>
	<path class="st0" d="M778,205.2c0,3.7-3,6.8-6.8,6.8c-3.7,0-6.8-3-6.8-6.8c0-3.7,3-6.7,6.8-6.7C775,198.5,778,201.5,778,205.2z"/>
	<path class="st0" d="M795.8,205.1c0,3.7-3,6.8-6.8,6.8c-3.7,0-6.8-3-6.8-6.8c0-3.7,3-6.7,6.8-6.7
		C792.8,198.3,795.8,201.4,795.8,205.1z"/>
	<path class="st0" d="M813.7,205.1c0,3.7-3,6.8-6.8,6.8c-3.7,0-6.8-3-6.8-6.8c0-3.7,3-6.8,6.8-6.8
		C810.6,198.3,813.7,201.4,813.7,205.1z"/>
	<path class="st0" d="M831.5,205.2c0,3.7-3,6.8-6.7,6.8c-3.7,0-6.8-3-6.8-6.8c0-3.7,3-6.8,6.8-6.8
		C828.5,198.4,831.5,201.5,831.5,205.2z"/>
	<path class="st0" d="M849.4,205.2c0,3.7-3,6.8-6.8,6.8c-3.7,0-6.8-3-6.8-6.8c0-3.7,3-6.8,6.8-6.8
		C846.3,198.4,849.4,201.5,849.4,205.2z"/>
	<path class="st0" d="M867.2,205c0,3.7-3,6.8-6.8,6.8c-3.7,0-6.8-3-6.8-6.8c0-3.7,3-6.8,6.8-6.8C864.2,198.2,867.2,201.3,867.2,205z
		"/>
	<path class="st0" d="M82,224.2c0,3.7-3,6.8-6.8,6.8c-3.7,0-6.8-3-6.8-6.8c0-3.7,3-6.7,6.8-6.7C79,217.4,82,220.4,82,224.2z"/>
	<path class="st0" d="M99.9,224.2c0,3.7-3,6.8-6.8,6.8c-3.7,0-6.8-3-6.8-6.8c0-3.7,3-6.8,6.8-6.8C96.8,217.4,99.9,220.5,99.9,224.2z
		"/>
	<path class="st0" d="M117.7,224.3c0,3.7-3,6.8-6.8,6.8c-3.7,0-6.8-3-6.8-6.8c0-3.7,3-6.8,6.8-6.8
		C114.7,217.5,117.7,220.6,117.7,224.3z"/>
	<path class="st0" d="M135.5,224.3c0,3.7-3,6.8-6.8,6.8c-3.7,0-6.8-3-6.8-6.8c0-3.7,3-6.8,6.8-6.8
		C132.5,217.5,135.5,220.6,135.5,224.3z"/>
	<path class="st0" d="M153.4,224.1c0,3.7-3,6.8-6.8,6.8c-3.7,0-6.8-3-6.8-6.8c0-3.7,3-6.8,6.8-6.8
		C150.4,217.4,153.4,220.4,153.4,224.1z"/>
	<path class="st0" d="M171.2,224.1c0,3.7-3,6.8-6.8,6.8c-3.7,0-6.7-3-6.7-6.8c0-3.7,3-6.7,6.7-6.7
		C168.2,217.4,171.2,220.4,171.2,224.1z"/>
	<path class="st0" d="M189.1,224.3c0,3.7-3,6.8-6.8,6.8c-3.7,0-6.8-3-6.8-6.8c0-3.7,3-6.8,6.8-6.8
		C186.1,217.6,189.1,220.6,189.1,224.3z"/>
	<path class="st0" d="M438.9,224.1c0,3.7-3,6.7-6.8,6.7c-3.7,0-6.7-3-6.7-6.7c0-3.7,3-6.8,6.7-6.8
		C435.9,217.4,438.9,220.4,438.9,224.1z"/>
	<path class="st0" d="M456.8,224.1c0,3.7-3,6.8-6.7,6.8c-3.7,0-6.8-3-6.8-6.8c0-3.7,3-6.8,6.8-6.8
		C453.7,217.4,456.8,220.4,456.8,224.1z"/>
	<path class="st0" d="M474.6,224.3c0,3.7-3,6.8-6.8,6.8c-3.7,0-6.8-3-6.8-6.8c0-3.7,3-6.7,6.8-6.7
		C471.6,217.6,474.6,220.6,474.6,224.3z"/>
	<path class="st0" d="M492.5,224.3c0,3.7-3,6.8-6.8,6.8c-3.7,0-6.8-3-6.8-6.8c0-3.7,3-6.8,6.8-6.8
		C489.4,217.6,492.5,220.6,492.5,224.3z"/>
	<path class="st0" d="M510.3,224.1c0,3.7-3,6.8-6.8,6.8c-3.7,0-6.8-3-6.8-6.8c0-3.7,3-6.7,6.8-6.7
		C507.3,217.4,510.3,220.4,510.3,224.1z"/>
	<path class="st0" d="M528.1,224.1c0,3.7-3,6.8-6.7,6.8c-3.7,0-6.7-3-6.7-6.8c0-3.7,3-6.7,6.7-6.7
		C525.1,217.4,528.1,220.4,528.1,224.1z"/>
	<path class="st0" d="M546,224.2c0,3.7-3,6.8-6.8,6.8c-3.7,0-6.8-3-6.8-6.8c0-3.7,3-6.7,6.8-6.7C543,217.4,546,220.5,546,224.2z"/>
	<path class="st0" d="M563.8,224.2c0,3.7-3,6.8-6.8,6.8c-3.7,0-6.8-3-6.8-6.8c0-3.7,3-6.7,6.8-6.7
		C560.8,217.5,563.8,220.5,563.8,224.2z"/>
	<path class="st0" d="M581.7,224.1c0,3.7-3,6.8-6.7,6.8c-3.7,0-6.8-3-6.8-6.8c0-3.7,3-6.8,6.8-6.8
		C578.7,217.3,581.7,220.4,581.7,224.1z"/>
	<path class="st0" d="M599.5,224.1c0,3.7-3,6.8-6.8,6.8c-3.7,0-6.7-3-6.7-6.8c0-3.7,3-6.8,6.7-6.8
		C596.5,217.3,599.5,220.3,599.5,224.1z"/>
	<path class="st0" d="M617.4,224.5c0,3.7-3,6.7-6.8,6.7c-3.7,0-6.8-3-6.8-6.7c0-3.7,3-6.8,6.8-6.8
		C614.4,217.8,617.4,220.8,617.4,224.5z"/>
	<path class="st0" d="M635.2,224.5c0,3.7-3,6.8-6.8,6.8c-3.7,0-6.8-3-6.8-6.8c0-3.7,3-6.8,6.8-6.8
		C632.2,217.8,635.2,220.8,635.2,224.5z"/>
	<path class="st0" d="M653.1,224.4c0,3.7-3,6.8-6.8,6.8c-3.7,0-6.8-3-6.8-6.8c0-3.7,3-6.8,6.8-6.8
		C650,217.6,653.1,220.7,653.1,224.4z"/>
	<path class="st0" d="M670.9,224.4c0,3.7-3,6.8-6.8,6.8c-3.7,0-6.8-3-6.8-6.8c0-3.7,3-6.7,6.8-6.7
		C667.9,217.6,670.9,220.7,670.9,224.4z"/>
	<path class="st0" d="M688.8,224.4c0,3.7-3,6.8-6.8,6.8c-3.7,0-6.8-3-6.8-6.8c0-3.7,3-6.8,6.8-6.8
		C685.7,217.7,688.8,220.7,688.8,224.4z"/>
	<path class="st0" d="M706.6,224.5c0,3.7-3,6.8-6.8,6.8c-3.7,0-6.7-3-6.7-6.8c0-3.7,3-6.7,6.7-6.7
		C703.6,217.7,706.6,220.7,706.6,224.5z"/>
	<path class="st0" d="M724.4,224.3c0,3.7-3,6.8-6.8,6.8c-3.7,0-6.8-3-6.8-6.8c0-3.7,3-6.8,6.8-6.8
		C721.4,217.5,724.4,220.5,724.4,224.3z"/>
	<path class="st0" d="M742.3,224.3c0,3.7-3,6.8-6.8,6.8c-3.7,0-6.8-3-6.8-6.8c0-3.7,3-6.7,6.8-6.7
		C739.3,217.5,742.3,220.6,742.3,224.3z"/>
	<path class="st0" d="M760.1,224.5c0,3.7-3,6.8-6.8,6.8c-3.7,0-6.8-3-6.8-6.8c0-3.7,3-6.8,6.8-6.8
		C757.1,217.7,760.1,220.7,760.1,224.5z"/>
	<path class="st0" d="M778,224.5c0,3.7-3,6.8-6.8,6.8c-3.7,0-6.8-3-6.8-6.8c0-3.7,3-6.8,6.8-6.8C775,217.7,778,220.8,778,224.5z"/>
	<path class="st0" d="M795.8,224.3c0,3.7-3,6.8-6.8,6.8c-3.7,0-6.8-3-6.8-6.8c0-3.7,3-6.8,6.8-6.8
		C792.8,217.6,795.8,220.6,795.8,224.3z"/>
	<path class="st0" d="M813.7,224.3c0,3.7-3,6.8-6.8,6.8c-3.7,0-6.8-3-6.8-6.8c0-3.7,3-6.8,6.8-6.8
		C810.6,217.6,813.7,220.6,813.7,224.3z"/>
	<path class="st0" d="M831.5,224.4c0,3.7-3,6.7-6.7,6.7c-3.7,0-6.8-3-6.8-6.7c0-3.7,3-6.7,6.8-6.7
		C828.5,217.7,831.5,220.7,831.5,224.4z"/>
	<path class="st0" d="M849.4,224.4c0,3.7-3,6.8-6.8,6.8c-3.7,0-6.8-3-6.8-6.8c0-3.7,3-6.8,6.8-6.8
		C846.3,217.7,849.4,220.7,849.4,224.4z"/>
	<path class="st0" d="M867.2,224.2c0,3.7-3,6.8-6.8,6.8c-3.7,0-6.8-3-6.8-6.8c0-3.7,3-6.8,6.8-6.8
		C864.2,217.5,867.2,220.5,867.2,224.2z"/>
	<path class="st0" d="M885.1,224.2c0,3.7-3,6.7-6.8,6.7c-3.7,0-6.8-3-6.8-6.7c0-3.7,3-6.8,6.8-6.8
		C882,217.5,885.1,220.5,885.1,224.2z"/>
	<path class="st0" d="M82,243.4c0,3.7-3,6.8-6.8,6.8c-3.7,0-6.8-3-6.8-6.8c0-3.7,3-6.8,6.8-6.8C79,236.7,82,239.7,82,243.4z"/>
	<path class="st0" d="M99.9,243.4c0,3.7-3,6.8-6.8,6.8c-3.7,0-6.8-3-6.8-6.8c0-3.7,3-6.7,6.8-6.7C96.8,236.7,99.9,239.7,99.9,243.4z
		"/>
	<path class="st0" d="M117.7,243.5c0,3.7-3,6.8-6.8,6.8c-3.7,0-6.8-3-6.8-6.8c0-3.7,3-6.8,6.8-6.8
		C114.7,236.8,117.7,239.8,117.7,243.5z"/>
	<path class="st0" d="M171.2,243.4c0,3.7-3,6.7-6.7,6.7c-3.7,0-6.8-3-6.8-6.7c0-3.7,3-6.8,6.8-6.8
		C168.2,236.6,171.2,239.6,171.2,243.4z"/>
	<path class="st0" d="M421.1,243.5c0,3.7-3,6.8-6.8,6.8c-3.7,0-6.8-3-6.8-6.8c0-3.7,3-6.8,6.8-6.8
		C418,236.7,421.1,239.8,421.1,243.5z"/>
	<path class="st0" d="M438.9,243.3c0,3.7-3,6.8-6.8,6.8c-3.7,0-6.8-3-6.8-6.8c0-3.7,3-6.8,6.8-6.8
		C435.9,236.6,438.9,239.6,438.9,243.3z"/>
	<path class="st0" d="M456.8,243.3c0,3.7-3,6.8-6.7,6.8c-3.7,0-6.8-3-6.8-6.8c0-3.7,3-6.7,6.8-6.7
		C453.7,236.6,456.8,239.6,456.8,243.3z"/>
	<path class="st0" d="M474.6,243.5c0,3.7-3,6.8-6.8,6.8c-3.7,0-6.8-3-6.8-6.8c0-3.7,3-6.8,6.8-6.8
		C471.6,236.8,474.6,239.8,474.6,243.5z"/>
	<circle class="st0" cx="485.7" cy="243.6" r="6.8"/>
	<path class="st0" d="M510.3,243.4c0,3.7-3,6.8-6.8,6.8c-3.7,0-6.7-3-6.7-6.8c0-3.7,3-6.8,6.7-6.8
		C507.3,236.6,510.3,239.6,510.3,243.4z"/>
	<path class="st0" d="M528.1,243.4c0,3.7-3,6.8-6.8,6.8c-3.7,0-6.8-3-6.8-6.8c0-3.7,3-6.8,6.8-6.8
		C525.1,236.6,528.1,239.6,528.1,243.4z"/>
	<path class="st0" d="M546,243.4c0,3.7-3,6.8-6.8,6.8c-3.7,0-6.8-3-6.8-6.8c0-3.7,3-6.8,6.8-6.8C543,236.7,546,239.7,546,243.4z"/>
	<path class="st0" d="M563.8,243.4c0,3.7-3,6.8-6.8,6.8c-3.7,0-6.7-3-6.7-6.8c0-3.7,3-6.8,6.7-6.8
		C560.8,236.7,563.8,239.7,563.8,243.4z"/>
	<path class="st0" d="M581.7,243.3c0,3.7-3,6.8-6.8,6.8c-3.7,0-6.8-3-6.8-6.8c0-3.7,3-6.7,6.8-6.7
		C578.7,236.6,581.7,239.6,581.7,243.3z"/>
	<path class="st0" d="M599.5,243.3c0,3.7-3,6.8-6.7,6.8c-3.7,0-6.8-3-6.8-6.8c0-3.7,3-6.8,6.8-6.8
		C596.5,236.6,599.5,239.6,599.5,243.3z"/>
	<path class="st0" d="M617.4,243.7c0,3.7-3,6.8-6.8,6.8c-3.7,0-6.7-3-6.7-6.8c0-3.7,3-6.7,6.7-6.7C614.4,237,617.4,240,617.4,243.7z
		"/>
	<path class="st0" d="M635.2,243.7c0,3.7-3,6.8-6.8,6.8c-3.7,0-6.8-3-6.8-6.8c0-3.7,3-6.7,6.8-6.7C632.2,237,635.2,240,635.2,243.7z
		"/>
	<path class="st0" d="M653.1,243.6c0,3.7-3,6.8-6.8,6.8c-3.7,0-6.8-3-6.8-6.8c0-3.7,3-6.8,6.8-6.8
		C650,236.9,653.1,239.9,653.1,243.6z"/>
	<path class="st0" d="M688.8,243.7c0,3.7-3,6.8-6.8,6.8c-3.7,0-6.8-3-6.8-6.8c0-3.7,3-6.8,6.8-6.8
		C685.7,236.9,688.8,240,688.8,243.7z"/>
	<path class="st0" d="M706.6,243.7c0,3.7-3,6.8-6.8,6.8c-3.7,0-6.7-3-6.7-6.8c0-3.7,3-6.7,6.7-6.7
		C703.6,236.9,706.6,240,706.6,243.7z"/>
	<path class="st0" d="M724.4,243.5c0,3.7-3,6.8-6.8,6.8c-3.7,0-6.8-3-6.8-6.8c0-3.7,3-6.8,6.8-6.8
		C721.4,236.7,724.4,239.8,724.4,243.5z"/>
	<path class="st0" d="M742.3,243.5c0,3.7-3,6.8-6.8,6.8c-3.7,0-6.8-3-6.8-6.8c0-3.7,3-6.7,6.8-6.7
		C739.3,236.8,742.3,239.8,742.3,243.5z"/>
	<path class="st0" d="M760.1,243.7c0,3.7-3,6.8-6.8,6.8c-3.7,0-6.8-3-6.8-6.8c0-3.7,3-6.7,6.8-6.7C757.1,237,760.1,240,760.1,243.7z
		"/>
	<path class="st0" d="M778,243.7c0,3.7-3,6.8-6.8,6.8c-3.7,0-6.7-3-6.7-6.8c0-3.7,3-6.8,6.7-6.8C775,237,778,240,778,243.7z"/>
	<path class="st0" d="M795.8,243.6c0,3.7-3,6.8-6.8,6.8c-3.7,0-6.8-3-6.8-6.8c0-3.7,3-6.7,6.8-6.7
		C792.8,236.8,795.8,239.8,795.8,243.6z"/>
	<path class="st0" d="M813.7,243.6c0,3.7-3,6.8-6.8,6.8c-3.7,0-6.8-3-6.8-6.8c0-3.7,3-6.7,6.8-6.7
		C810.6,236.8,813.7,239.8,813.7,243.6z"/>
	<path class="st0" d="M831.5,243.6c0,3.7-3,6.8-6.7,6.8c-3.7,0-6.8-3-6.8-6.8c0-3.7,3-6.7,6.8-6.7
		C828.5,236.9,831.5,239.9,831.5,243.6z"/>
	<path class="st0" d="M849.4,243.7c0,3.7-3,6.8-6.8,6.8c-3.7,0-6.8-3-6.8-6.8c0-3.7,3-6.7,6.8-6.7
		C846.3,236.9,849.4,239.9,849.4,243.7z"/>
	<path class="st0" d="M867.2,243.4c0,3.7-3,6.8-6.8,6.8c-3.7,0-6.7-3-6.7-6.8c0-3.7,3-6.7,6.7-6.7
		C864.2,236.7,867.2,239.7,867.2,243.4z"/>
	<path class="st0" d="M885.1,243.5c0,3.7-3,6.8-6.8,6.8c-3.7,0-6.7-3-6.7-6.8c0-3.7,3-6.8,6.7-6.8
		C882,236.7,885.1,239.7,885.1,243.5z"/>
	<path class="st0" d="M99.9,262.6c0,3.7-3,6.8-6.8,6.8c-3.7,0-6.8-3-6.8-6.8c0-3.7,3-6.8,6.8-6.8C96.8,255.9,99.9,258.9,99.9,262.6z
		"/>
	<path class="st0" d="M117.7,262.7c0,3.7-3,6.8-6.8,6.8c-3.7,0-6.8-3-6.8-6.8c0-3.7,3-6.7,6.8-6.7C114.7,256,117.7,259,117.7,262.7z
		"/>
	<path class="st0" d="M421.1,262.7c0,3.7-3,6.8-6.8,6.8c-3.7,0-6.8-3-6.8-6.8c0-3.7,3-6.8,6.8-6.8C418,256,421.1,259,421.1,262.7z"
		/>
	<path class="st0" d="M438.9,262.6c0,3.7-3,6.8-6.8,6.8c-3.7,0-6.7-3-6.7-6.8c0-3.7,3-6.8,6.7-6.8
		C435.9,255.8,438.9,258.8,438.9,262.6z"/>
	<path class="st0" d="M456.8,262.6c0,3.7-3,6.8-6.7,6.8c-3.7,0-6.8-3-6.8-6.8c0-3.7,3-6.8,6.8-6.8
		C453.7,255.8,456.8,258.8,456.8,262.6z"/>
	<path class="st0" d="M474.6,262.8c0,3.7-3,6.8-6.8,6.8c-3.7,0-6.8-3-6.8-6.8c0-3.7,3-6.7,6.8-6.7C471.6,256,474.6,259,474.6,262.8z
		"/>
	<path class="st0" d="M492.5,262.8c0,3.7-3,6.8-6.8,6.8c-3.7,0-6.8-3-6.8-6.8c0-3.7,3-6.7,6.8-6.7
		C489.4,256,492.5,259.1,492.5,262.8z"/>
	<path class="st0" d="M510.3,262.6c0,3.7-3,6.8-6.8,6.8c-3.7,0-6.8-3-6.8-6.8c0-3.7,3-6.8,6.8-6.8
		C507.3,255.8,510.3,258.9,510.3,262.6z"/>
	<path class="st0" d="M528.1,262.6c0,3.7-3,6.8-6.7,6.8c-3.7,0-6.7-3-6.7-6.8c0-3.7,3-6.8,6.7-6.8
		C525.1,255.8,528.1,258.9,528.1,262.6z"/>
	<path class="st0" d="M546,262.7c0,3.7-3,6.8-6.8,6.8c-3.7,0-6.8-3-6.8-6.8c0-3.7,3-6.7,6.8-6.7C543,255.9,546,258.9,546,262.7z"/>
	<path class="st0" d="M563.8,262.7c0,3.7-3,6.8-6.8,6.8c-3.7,0-6.8-3-6.8-6.8c0-3.7,3-6.8,6.8-6.8
		C560.8,255.9,563.8,258.9,563.8,262.7z"/>
	<path class="st0" d="M581.7,262.5c0,3.7-3,6.8-6.7,6.8c-3.7,0-6.8-3-6.8-6.8c0-3.7,3-6.8,6.8-6.8
		C578.7,255.8,581.7,258.8,581.7,262.5z"/>
	<path class="st0" d="M599.5,262.5c0,3.7-3,6.7-6.8,6.7c-3.7,0-6.7-3-6.7-6.7c0-3.7,3-6.8,6.7-6.8
		C596.5,255.8,599.5,258.8,599.5,262.5z"/>
	<path class="st0" d="M617.4,263c0,3.7-3,6.8-6.8,6.8c-3.7,0-6.8-3-6.8-6.8c0-3.7,3-6.7,6.8-6.7C614.4,256.2,617.4,259.2,617.4,263z
		"/>
	<path class="st0" d="M635.2,263c0,3.7-3,6.8-6.8,6.8c-3.7,0-6.8-3-6.8-6.8c0-3.7,3-6.8,6.8-6.8C632.2,256.2,635.2,259.2,635.2,263z
		"/>
	<ellipse class="st0" cx="646.3" cy="262.8" rx="6.8" ry="6.7"/>
	<path class="st0" d="M670.9,262.8c0,3.7-3,6.8-6.8,6.8c-3.7,0-6.8-3-6.8-6.8c0-3.7,3-6.8,6.8-6.8
		C667.9,256.1,670.9,259.1,670.9,262.8z"/>
	<path class="st0" d="M742.3,262.7c0,3.7-3,6.8-6.8,6.8c-3.7,0-6.8-3-6.8-6.8c0-3.7,3-6.7,6.8-6.7C739.3,256,742.3,259,742.3,262.7z
		"/>
	<path class="st0" d="M760.1,262.9c0,3.7-3,6.8-6.8,6.8c-3.7,0-6.8-3-6.8-6.8c0-3.7,3-6.8,6.8-6.8
		C757.1,256.2,760.1,259.2,760.1,262.9z"/>
	<path class="st0" d="M778,262.9c0,3.7-3,6.8-6.8,6.8c-3.7,0-6.8-3-6.8-6.8c0-3.7,3-6.8,6.8-6.8C775,256.2,778,259.2,778,262.9z"/>
	<path class="st0" d="M795.8,262.8c0,3.7-3,6.8-6.8,6.8c-3.7,0-6.8-3-6.8-6.8c0-3.7,3-6.8,6.8-6.8
		C792.8,256,795.8,259.1,795.8,262.8z"/>
	<path class="st0" d="M813.7,262.8c0,3.7-3,6.8-6.8,6.8c-3.7,0-6.8-3-6.8-6.8c0-3.7,3-6.7,6.8-6.7
		C810.6,256,813.7,259.1,813.7,262.8z"/>
	<path class="st0" d="M831.5,262.9c0,3.7-3,6.8-6.7,6.8c-3.7,0-6.8-3-6.8-6.8c0-3.7,3-6.8,6.8-6.8
		C828.5,256.1,831.5,259.2,831.5,262.9z"/>
	<path class="st0" d="M849.4,262.9c0,3.7-3,6.8-6.8,6.8c-3.7,0-6.8-3-6.8-6.8c0-3.7,3-6.7,6.8-6.7
		C846.3,256.1,849.4,259.2,849.4,262.9z"/>
	<path class="st0" d="M867.2,262.7c0,3.7-3,6.8-6.8,6.8c-3.7,0-6.8-3-6.8-6.8c0-3.7,3-6.8,6.8-6.8
		C864.2,255.9,867.2,258.9,867.2,262.7z"/>
	<path class="st0" d="M99.9,281.9c0,3.7-3,6.8-6.8,6.8c-3.7,0-6.8-3-6.8-6.8c0-3.7,3-6.8,6.8-6.8C96.8,275.1,99.9,278.2,99.9,281.9z
		"/>
	<path class="st0" d="M117.7,282c0,3.7-3,6.8-6.8,6.8c-3.7,0-6.8-3-6.8-6.8c0-3.7,3-6.8,6.8-6.8C114.7,275.2,117.7,278.3,117.7,282z
		"/>
	<path class="st0" d="M135.5,282c0,3.7-3,6.8-6.8,6.8c-3.7,0-6.8-3-6.8-6.8c0-3.7,3-6.8,6.8-6.8C132.5,275.2,135.5,278.3,135.5,282z
		"/>
	<path class="st0" d="M421.1,282c0,3.7-3,6.8-6.8,6.8c-3.7,0-6.8-3-6.8-6.8c0-3.7,3-6.8,6.8-6.8C418,275.2,421.1,278.2,421.1,282z"
		/>
	<path class="st0" d="M438.9,281.8c0,3.7-3,6.8-6.8,6.8c-3.7,0-6.8-3-6.8-6.8c0-3.7,3-6.8,6.8-6.8
		C435.9,275,438.9,278.1,438.9,281.8z"/>
	<path class="st0" d="M456.8,281.8c0,3.7-3,6.8-6.7,6.8c-3.7,0-6.8-3-6.8-6.8c0-3.7,3-6.8,6.8-6.8
		C453.7,275.1,456.8,278.1,456.8,281.8z"/>
	<path class="st0" d="M474.6,282c0,3.7-3,6.8-6.8,6.8c-3.7,0-6.8-3-6.8-6.8s3-6.8,6.8-6.8C471.6,275.3,474.6,278.3,474.6,282z"/>
	<path class="st0" d="M492.5,282c0,3.7-3,6.8-6.8,6.8c-3.7,0-6.8-3-6.8-6.8c0-3.7,3-6.8,6.8-6.8C489.4,275.3,492.5,278.3,492.5,282z
		"/>
	<path class="st0" d="M510.3,281.8c0,3.7-3,6.8-6.8,6.8c-3.7,0-6.7-3-6.7-6.8c0-3.7,3-6.8,6.7-6.8
		C507.3,275.1,510.3,278.1,510.3,281.8z"/>
	<path class="st0" d="M528.1,281.8c0,3.7-3,6.8-6.8,6.8c-3.7,0-6.8-3-6.8-6.8c0-3.7,3-6.8,6.8-6.8
		C525.1,275.1,528.1,278.1,528.1,281.8z"/>
	<path class="st0" d="M546,281.9c0,3.7-3,6.8-6.8,6.8c-3.7,0-6.8-3-6.8-6.8c0-3.7,3-6.8,6.8-6.8C543,275.1,546,278.2,546,281.9z"/>
	<path class="st0" d="M563.8,281.9c0,3.7-3,6.8-6.8,6.8c-3.7,0-6.7-3-6.7-6.8c0-3.7,3-6.8,6.7-6.8
		C560.8,275.2,563.8,278.2,563.8,281.9z"/>
	<path class="st0" d="M581.7,281.8c0,3.7-3,6.8-6.8,6.8c-3.7,0-6.8-3-6.8-6.8c0-3.7,3-6.8,6.8-6.8
		C578.7,275,581.7,278.1,581.7,281.8z"/>
	<path class="st0" d="M599.5,281.8c0,3.7-3,6.8-6.7,6.8c-3.7,0-6.8-3-6.8-6.8c0-3.7,3-6.8,6.8-6.8C596.5,275,599.5,278,599.5,281.8z
		"/>
	<path class="st0" d="M617.4,282.2c0,3.7-3,6.8-6.8,6.8c-3.7,0-6.7-3-6.7-6.8c0-3.7,3-6.8,6.7-6.8
		C614.4,275.4,617.4,278.5,617.4,282.2z"/>
	<path class="st0" d="M635.2,282.2c0,3.7-3,6.8-6.8,6.8c-3.7,0-6.8-3-6.8-6.8c0-3.7,3-6.8,6.8-6.8
		C632.2,275.5,635.2,278.5,635.2,282.2z"/>
	<path class="st0" d="M653.1,282.1c0,3.7-3,6.8-6.8,6.8c-3.7,0-6.8-3-6.8-6.8c0-3.7,3-6.8,6.8-6.8
		C650,275.3,653.1,278.4,653.1,282.1z"/>
	<path class="st0" d="M670.9,282.1c0,3.7-3,6.8-6.8,6.8c-3.7,0-6.7-3-6.7-6.8c0-3.7,3-6.8,6.7-6.8
		C667.9,275.3,670.9,278.4,670.9,282.1z"/>
	<path class="st0" d="M688.8,282.1c0,3.7-3,6.8-6.8,6.8c-3.7,0-6.8-3-6.8-6.8c0-3.7,3-6.8,6.8-6.8
		C685.7,275.4,688.8,278.4,688.8,282.1z"/>
	<path class="st0" d="M742.3,282c0,3.7-3,6.8-6.8,6.8c-3.7,0-6.8-3-6.8-6.8c0-3.7,3-6.7,6.8-6.7C739.3,275.2,742.3,278.2,742.3,282z
		"/>
	<path class="st0" d="M760.1,282.2c0,3.7-3,6.8-6.8,6.8c-3.7,0-6.8-3-6.8-6.8c0-3.7,3-6.8,6.8-6.8
		C757.1,275.4,760.1,278.4,760.1,282.2z"/>
	<path class="st0" d="M778,282.2c0,3.7-3,6.8-6.8,6.8c-3.7,0-6.7-3-6.7-6.8c0-3.7,3-6.8,6.7-6.8C775,275.4,778,278.5,778,282.2z"/>
	<path class="st0" d="M831.5,282.1c0,3.7-3,6.8-6.7,6.8c-3.7,0-6.8-3-6.8-6.8c0-3.7,3-6.8,6.8-6.8
		C828.5,275.4,831.5,278.4,831.5,282.1z"/>
	<path class="st0" d="M849.4,282.1c0,3.7-3,6.8-6.8,6.8c-3.7,0-6.8-3-6.8-6.8c0-3.7,3-6.8,6.8-6.8
		C846.3,275.4,849.4,278.4,849.4,282.1z"/>
	<path class="st0" d="M867.2,281.9c0,3.7-3,6.8-6.8,6.8c-3.7,0-6.7-3-6.7-6.8c0-3.7,3-6.8,6.7-6.8
		C864.2,275.2,867.2,278.2,867.2,281.9z"/>
	<path class="st0" d="M135.5,301.2c0,3.7-3,6.8-6.8,6.8c-3.7,0-6.8-3-6.8-6.8c0-3.7,3-6.7,6.8-6.7
		C132.5,294.5,135.5,297.5,135.5,301.2z"/>
	<path class="st0" d="M153.4,301c0,3.7-3,6.8-6.8,6.8c-3.7,0-6.8-3-6.8-6.8c0-3.7,3-6.7,6.8-6.7C150.4,294.3,153.4,297.3,153.4,301z
		"/>
	<path class="st0" d="M403.2,301.2c0,3.7-3,6.8-6.8,6.8c-3.7,0-6.8-3-6.8-6.8c0-3.7,3-6.7,6.8-6.7
		C400.2,294.4,403.2,297.5,403.2,301.2z"/>
	<path class="st0" d="M421.1,301.2c0,3.7-3,6.8-6.8,6.8c-3.7,0-6.8-3-6.8-6.8c0-3.7,3-6.7,6.8-6.7
		C418,294.4,421.1,297.5,421.1,301.2z"/>
	<path class="st0" d="M438.9,301c0,3.7-3,6.8-6.8,6.8c-3.7,0-6.8-3-6.8-6.8c0-3.7,3-6.7,6.8-6.7C435.9,294.3,438.9,297.3,438.9,301z
		"/>
	<path class="st0" d="M456.8,301c0,3.7-3,6.8-6.7,6.8c-3.7,0-6.8-3-6.8-6.8c0-3.7,3-6.8,6.8-6.8C453.7,294.3,456.8,297.3,456.8,301z
		"/>
	<path class="st0" d="M474.6,301.2c0,3.7-3,6.8-6.8,6.8c-3.7,0-6.8-3-6.8-6.8c0-3.7,3-6.8,6.8-6.8
		C471.6,294.5,474.6,297.5,474.6,301.2z"/>
	<path class="st0" d="M492.5,301.3c0,3.7-3,6.7-6.8,6.7c-3.7,0-6.8-3-6.8-6.7c0-3.7,3-6.8,6.8-6.8
		C489.4,294.5,492.5,297.5,492.5,301.3z"/>
	<path class="st0" d="M510.3,301.1c0,3.7-3,6.8-6.8,6.8c-3.7,0-6.7-3-6.7-6.8c0-3.7,3-6.8,6.7-6.8
		C507.3,294.3,510.3,297.3,510.3,301.1z"/>
	<path class="st0" d="M528.1,301.1c0,3.7-3,6.8-6.8,6.8c-3.7,0-6.8-3-6.8-6.8c0-3.7,3-6.8,6.8-6.8
		C525.1,294.3,528.1,297.3,528.1,301.1z"/>
	<path class="st0" d="M546,301.1c0,3.7-3,6.8-6.8,6.8c-3.7,0-6.8-3-6.8-6.8c0-3.7,3-6.7,6.8-6.7C543,294.4,546,297.4,546,301.1z"/>
	<path class="st0" d="M563.8,301.1c0,3.7-3,6.8-6.8,6.8c-3.7,0-6.7-3-6.7-6.8c0-3.7,3-6.8,6.7-6.8
		C560.8,294.4,563.8,297.4,563.8,301.1z"/>
	<path class="st0" d="M581.7,301c0,3.7-3,6.8-6.8,6.8c-3.7,0-6.8-3-6.8-6.8c0-3.7,3-6.7,6.8-6.7C578.7,294.3,581.7,297.3,581.7,301z
		"/>
	<path class="st0" d="M599.5,301c0,3.7-3,6.8-6.7,6.8c-3.7,0-6.8-3-6.8-6.8c0-3.7,3-6.8,6.8-6.8C596.5,294.3,599.5,297.3,599.5,301z
		"/>
	<path class="st0" d="M617.4,301.4c0,3.7-3,6.8-6.8,6.8c-3.7,0-6.7-3-6.7-6.8c0-3.7,3-6.8,6.7-6.8
		C614.4,294.7,617.4,297.7,617.4,301.4z"/>
	<path class="st0" d="M635.2,301.4c0,3.7-3,6.7-6.8,6.7c-3.7,0-6.8-3-6.8-6.7c0-3.7,3-6.7,6.8-6.7
		C632.2,294.7,635.2,297.7,635.2,301.4z"/>
	<path class="st0" d="M653.1,301.3c0,3.7-3,6.8-6.8,6.8c-3.7,0-6.8-3-6.8-6.8c0-3.7,3-6.8,6.8-6.8
		C650,294.6,653.1,297.6,653.1,301.3z"/>
	<path class="st0" d="M670.9,301.3c0,3.7-3,6.8-6.8,6.8c-3.7,0-6.7-3-6.7-6.8s3-6.8,6.7-6.8C667.9,294.6,670.9,297.6,670.9,301.3z"
		/>
	<path class="st0" d="M760.1,301.4c0,3.7-3,6.8-6.8,6.8c-3.7,0-6.8-3-6.8-6.8c0-3.7,3-6.8,6.8-6.8
		C757.1,294.7,760.1,297.7,760.1,301.4z"/>
	<path class="st0" d="M778,301.4c0,3.7-3,6.7-6.8,6.7c-3.7,0-6.7-3-6.7-6.7c0-3.7,3-6.8,6.7-6.8C775,294.7,778,297.7,778,301.4z"/>
	<path class="st0" d="M849.4,301.4c0,3.7-3,6.8-6.8,6.8c-3.7,0-6.8-3-6.8-6.8c0-3.7,3-6.8,6.8-6.8
		C846.3,294.6,849.4,297.6,849.4,301.4z"/>
	<path class="st0" d="M867.2,301.1c0,3.7-3,6.8-6.8,6.8c-3.7,0-6.7-3-6.7-6.8c0-3.7,3-6.7,6.7-6.7
		C864.2,294.4,867.2,297.4,867.2,301.1z"/>
	<path class="st0" d="M153.4,320.3c0,3.7-3,6.8-6.8,6.8c-3.7,0-6.8-3-6.8-6.8c0-3.7,3-6.8,6.8-6.8
		C150.4,313.5,153.4,316.6,153.4,320.3z"/>
	<path class="st0" d="M189.1,320.5c0,3.7-3,6.7-6.8,6.7c-3.7,0-6.8-3-6.8-6.7c0-3.7,3-6.8,6.8-6.8
		C186.1,313.8,189.1,316.8,189.1,320.5z"/>
	<path class="st0" d="M206.9,320.5c0,3.7-3,6.8-6.8,6.8c-3.7,0-6.8-3-6.8-6.8c0-3.7,3-6.8,6.8-6.8
		C203.9,313.8,206.9,316.8,206.9,320.5z"/>
	<path class="st0" d="M421.1,320.4c0,3.7-3,6.8-6.8,6.8c-3.7,0-6.8-3-6.8-6.8c0-3.7,3-6.8,6.8-6.8
		C418,313.7,421.1,316.7,421.1,320.4z"/>
	<path class="st0" d="M438.9,320.3c0,3.7-3,6.8-6.8,6.8c-3.7,0-6.8-3-6.8-6.8c0-3.7,3-6.7,6.8-6.7
		C435.9,313.5,438.9,316.5,438.9,320.3z"/>
	<path class="st0" d="M456.8,320.3c0,3.7-3,6.8-6.7,6.8c-3.7,0-6.8-3-6.8-6.8c0-3.7,3-6.7,6.8-6.7
		C453.7,313.5,456.8,316.6,456.8,320.3z"/>
	<path class="st0" d="M474.6,320.5c0,3.7-3,6.7-6.8,6.7c-3.7,0-6.8-3-6.8-6.7c0-3.7,3-6.8,6.8-6.8
		C471.6,313.7,474.6,316.8,474.6,320.5z"/>
	<path class="st0" d="M492.5,320.5c0,3.7-3,6.8-6.8,6.8c-3.7,0-6.8-3-6.8-6.8c0-3.7,3-6.8,6.8-6.8
		C489.4,313.7,492.5,316.8,492.5,320.5z"/>
	<path class="st0" d="M510.3,320.3c0,3.7-3,6.8-6.8,6.8c-3.7,0-6.7-3-6.7-6.8c0-3.7,3-6.8,6.7-6.8
		C507.3,313.5,510.3,316.6,510.3,320.3z"/>
	<path class="st0" d="M528.1,320.3c0,3.7-3,6.8-6.8,6.8c-3.7,0-6.8-3-6.8-6.8c0-3.7,3-6.7,6.8-6.7
		C525.1,313.6,528.1,316.6,528.1,320.3z"/>
	<path class="st0" d="M546,320.4c0,3.7-3,6.8-6.8,6.8c-3.7,0-6.8-3-6.8-6.8c0-3.7,3-6.7,6.8-6.7C543,313.6,546,316.6,546,320.4z"/>
	<path class="st0" d="M563.8,320.4c0,3.7-3,6.8-6.8,6.8c-3.7,0-6.7-3-6.7-6.8c0-3.7,3-6.7,6.7-6.7
		C560.8,313.6,563.8,316.6,563.8,320.4z"/>
	<path class="st0" d="M581.7,320.2c0,3.7-3,6.8-6.8,6.8c-3.7,0-6.8-3-6.8-6.8c0-3.7,3-6.8,6.8-6.8
		C578.7,313.5,581.7,316.5,581.7,320.2z"/>
	<path class="st0" d="M599.5,320.2c0,3.7-3,6.7-6.7,6.7c-3.7,0-6.8-3-6.8-6.7c0-3.7,3-6.8,6.8-6.8
		C596.5,313.5,599.5,316.5,599.5,320.2z"/>
	<path class="st0" d="M617.4,320.7c0,3.7-3,6.8-6.8,6.8c-3.7,0-6.7-3-6.7-6.8c0-3.7,3-6.8,6.7-6.8
		C614.4,313.9,617.4,316.9,617.4,320.7z"/>
	<path class="st0" d="M635.2,320.7c0,3.7-3,6.8-6.8,6.8c-3.7,0-6.8-3-6.8-6.8c0-3.7,3-6.8,6.8-6.8
		C632.2,313.9,635.2,316.9,635.2,320.7z"/>
	<path class="st0" d="M653.1,320.5c0,3.7-3,6.8-6.8,6.8c-3.7,0-6.8-3-6.8-6.8c0-3.7,3-6.7,6.8-6.7
		C650,313.8,653.1,316.8,653.1,320.5z"/>
	<path class="st0" d="M760.1,320.6c0,3.7-3,6.8-6.8,6.8c-3.7,0-6.8-3-6.8-6.8c0-3.7,3-6.8,6.8-6.8
		C757.1,313.9,760.1,316.9,760.1,320.6z"/>
	<path class="st0" d="M778,320.6c0,3.7-3,6.8-6.8,6.8c-3.7,0-6.7-3-6.7-6.8c0-3.7,3-6.8,6.7-6.8C775,313.9,778,316.9,778,320.6z"/>
	<path class="st0" d="M849.4,320.6c0,3.7-3,6.8-6.8,6.8c-3.7,0-6.8-3-6.8-6.8c0-3.7,3-6.8,6.8-6.8
		C846.3,313.8,849.4,316.9,849.4,320.6z"/>
	<path class="st0" d="M867.2,320.4c0,3.7-3,6.8-6.8,6.8c-3.7,0-6.7-3-6.7-6.8c0-3.7,3-6.8,6.7-6.8
		C864.2,313.6,867.2,316.7,867.2,320.4z"/>
</g>
</svg>
